G04 PROTEUS GERBER X2 FILE*
%TF.GenerationSoftware,Labcenter,Proteus,8.13-SP0-Build31525*%
%TF.CreationDate,2022-07-11T20:54:32+00:00*%
%TF.FileFunction,Legend,Top*%
%TF.FilePolarity,Positive*%
%TF.Part,Single*%
%TF.SameCoordinates,{67e9d6b1-9973-4f3b-b57f-a68231676cbc}*%
%FSLAX45Y45*%
%MOMM*%
G01*
%TA.AperFunction,Material*%
%ADD25C,0.203200*%
%ADD26C,0.200000*%
%ADD27C,0.127000*%
%ADD28C,0.025400*%
%TA.AperFunction,Profile*%
%ADD24C,0.203200*%
%TA.AperFunction,Material*%
%ADD29C,0.031750*%
%TD.AperFunction*%
D25*
X+896000Y+6981000D02*
X+6928500Y+6981000D01*
X+896000Y+6219000D02*
X+6928500Y+6219000D01*
X+6928500Y+6981000D01*
X+896000Y+6219000D02*
X+896000Y+6981000D01*
X+3785250Y+7052120D02*
X+3785250Y+7036880D01*
X+3801125Y+7021640D01*
X+3864625Y+7021640D01*
X+3880500Y+7036880D01*
X+3880500Y+7113080D01*
X+3944000Y+7082600D02*
X+3975750Y+7113080D01*
X+3975750Y+7021640D01*
X+3000000Y+600000D02*
X+4600000Y+600000D01*
X+4600000Y+3000000D01*
X+3000000Y+3000000D01*
X+3000000Y+600000D01*
X+3625375Y+1802000D02*
X+3688875Y+1802000D01*
X+3657125Y+1802000D02*
X+3657125Y+1710560D01*
X+3625375Y+1710560D02*
X+3688875Y+1710560D01*
X+3831750Y+1725800D02*
X+3815875Y+1710560D01*
X+3768250Y+1710560D01*
X+3736500Y+1741040D01*
X+3736500Y+1771520D01*
X+3768250Y+1802000D01*
X+3815875Y+1802000D01*
X+3831750Y+1786760D01*
X+3895250Y+1771520D02*
X+3927000Y+1802000D01*
X+3927000Y+1710560D01*
D26*
X+1785000Y+1550000D02*
X+1785000Y+1820000D01*
X+1515000Y+1550000D02*
X+1515000Y+1820000D01*
D25*
X+1674520Y+1558000D02*
X+1583080Y+1558000D01*
X+1583080Y+1637375D01*
X+1598320Y+1653250D01*
X+1613560Y+1653250D01*
X+1628800Y+1637375D01*
X+1628800Y+1558000D01*
X+1628800Y+1637375D02*
X+1644040Y+1653250D01*
X+1674520Y+1653250D01*
X+1613560Y+1716750D02*
X+1583080Y+1748500D01*
X+1674520Y+1748500D01*
D26*
X+5550000Y+2165000D02*
X+5820000Y+2165000D01*
X+5550000Y+2435000D02*
X+5820000Y+2435000D01*
D25*
X+5558000Y+2275480D02*
X+5558000Y+2366920D01*
X+5637375Y+2366920D01*
X+5653250Y+2351680D01*
X+5653250Y+2336440D01*
X+5637375Y+2321200D01*
X+5558000Y+2321200D01*
X+5637375Y+2321200D02*
X+5653250Y+2305960D01*
X+5653250Y+2275480D01*
X+5700875Y+2351680D02*
X+5716750Y+2366920D01*
X+5764375Y+2366920D01*
X+5780250Y+2351680D01*
X+5780250Y+2336440D01*
X+5764375Y+2321200D01*
X+5780250Y+2305960D01*
X+5780250Y+2290720D01*
X+5764375Y+2275480D01*
X+5716750Y+2275480D01*
X+5700875Y+2290720D01*
X+5732625Y+2321200D02*
X+5764375Y+2321200D01*
D26*
X+5550000Y+1765000D02*
X+5820000Y+1765000D01*
X+5550000Y+2035000D02*
X+5820000Y+2035000D01*
D25*
X+5558000Y+1875480D02*
X+5558000Y+1966920D01*
X+5637375Y+1966920D01*
X+5653250Y+1951680D01*
X+5653250Y+1936440D01*
X+5637375Y+1921200D01*
X+5558000Y+1921200D01*
X+5637375Y+1921200D02*
X+5653250Y+1905960D01*
X+5653250Y+1875480D01*
X+5780250Y+1966920D02*
X+5700875Y+1966920D01*
X+5700875Y+1936440D01*
X+5764375Y+1936440D01*
X+5780250Y+1921200D01*
X+5780250Y+1890720D01*
X+5764375Y+1875480D01*
X+5716750Y+1875480D01*
X+5700875Y+1890720D01*
D26*
X+5550000Y+1365000D02*
X+5820000Y+1365000D01*
X+5550000Y+1635000D02*
X+5820000Y+1635000D01*
D25*
X+5558000Y+1425480D02*
X+5558000Y+1516920D01*
X+5637375Y+1516920D01*
X+5653250Y+1501680D01*
X+5653250Y+1486440D01*
X+5637375Y+1471200D01*
X+5558000Y+1471200D01*
X+5637375Y+1471200D02*
X+5653250Y+1455960D01*
X+5653250Y+1425480D01*
X+5700875Y+1516920D02*
X+5780250Y+1516920D01*
X+5780250Y+1501680D01*
X+5700875Y+1425480D01*
X+1573000Y+2658000D02*
X+1573000Y+2785000D01*
X+2081000Y+2785000D01*
X+2081000Y+2277000D01*
X+1573000Y+2277000D01*
X+1573000Y+2404000D01*
X+1700000Y+2531000D02*
X+1697564Y+2556876D01*
X+1690515Y+2580848D01*
X+1679238Y+2602438D01*
X+1664122Y+2621170D01*
X+1645554Y+2636569D01*
X+1623919Y+2648158D01*
X+1599606Y+2655460D01*
X+1573000Y+2658000D01*
X+1700000Y+2531000D02*
X+1697564Y+2504394D01*
X+1690515Y+2480081D01*
X+1679238Y+2458446D01*
X+1664122Y+2439878D01*
X+1645554Y+2424762D01*
X+1623919Y+2413485D01*
X+1599606Y+2406436D01*
X+1573000Y+2404000D01*
X+1440920Y+2404000D02*
X+1517120Y+2404000D01*
X+1532360Y+2419875D01*
X+1532360Y+2483375D01*
X+1517120Y+2499250D01*
X+1440920Y+2499250D01*
X+1456160Y+2546875D02*
X+1440920Y+2562750D01*
X+1440920Y+2610375D01*
X+1456160Y+2626250D01*
X+1471400Y+2626250D01*
X+1486640Y+2610375D01*
X+1486640Y+2562750D01*
X+1501880Y+2546875D01*
X+1532360Y+2546875D01*
X+1532360Y+2626250D01*
X+6373000Y+2908000D02*
X+6373000Y+3035000D01*
X+6881000Y+3035000D01*
X+6881000Y+2527000D01*
X+6373000Y+2527000D01*
X+6373000Y+2654000D01*
X+6500000Y+2781000D02*
X+6497564Y+2806876D01*
X+6490515Y+2830848D01*
X+6479238Y+2852438D01*
X+6464122Y+2871170D01*
X+6445554Y+2886569D01*
X+6423919Y+2898158D01*
X+6399606Y+2905460D01*
X+6373000Y+2908000D01*
X+6500000Y+2781000D02*
X+6497564Y+2754394D01*
X+6490515Y+2730081D01*
X+6479238Y+2708446D01*
X+6464122Y+2689878D01*
X+6445554Y+2674762D01*
X+6423919Y+2663485D01*
X+6399606Y+2656436D01*
X+6373000Y+2654000D01*
X+6240920Y+2654000D02*
X+6317120Y+2654000D01*
X+6332360Y+2669875D01*
X+6332360Y+2733375D01*
X+6317120Y+2749250D01*
X+6240920Y+2749250D01*
X+6301880Y+2876250D02*
X+6301880Y+2781000D01*
X+6240920Y+2844500D01*
X+6332360Y+2844500D01*
X+6373000Y+1958000D02*
X+6373000Y+2085000D01*
X+6881000Y+2085000D01*
X+6881000Y+1577000D01*
X+6373000Y+1577000D01*
X+6373000Y+1704000D01*
X+6500000Y+1831000D02*
X+6497564Y+1856876D01*
X+6490515Y+1880848D01*
X+6479238Y+1902438D01*
X+6464122Y+1921170D01*
X+6445554Y+1936569D01*
X+6423919Y+1948158D01*
X+6399606Y+1955460D01*
X+6373000Y+1958000D01*
X+6500000Y+1831000D02*
X+6497564Y+1804394D01*
X+6490515Y+1780081D01*
X+6479238Y+1758446D01*
X+6464122Y+1739878D01*
X+6445554Y+1724762D01*
X+6423919Y+1713485D01*
X+6399606Y+1706436D01*
X+6373000Y+1704000D01*
X+6240920Y+1704000D02*
X+6317120Y+1704000D01*
X+6332360Y+1719875D01*
X+6332360Y+1783375D01*
X+6317120Y+1799250D01*
X+6240920Y+1799250D01*
X+6256160Y+1926250D02*
X+6240920Y+1910375D01*
X+6240920Y+1862750D01*
X+6256160Y+1846875D01*
X+6317120Y+1846875D01*
X+6332360Y+1862750D01*
X+6332360Y+1910375D01*
X+6317120Y+1926250D01*
X+6301880Y+1926250D01*
X+6286640Y+1910375D01*
X+6286640Y+1846875D01*
X+6373000Y+958000D02*
X+6373000Y+1085000D01*
X+6881000Y+1085000D01*
X+6881000Y+577000D01*
X+6373000Y+577000D01*
X+6373000Y+704000D01*
X+6500000Y+831000D02*
X+6497564Y+856876D01*
X+6490515Y+880848D01*
X+6479238Y+902438D01*
X+6464122Y+921170D01*
X+6445554Y+936569D01*
X+6423919Y+948158D01*
X+6399606Y+955460D01*
X+6373000Y+958000D01*
X+6500000Y+831000D02*
X+6497564Y+804394D01*
X+6490515Y+780081D01*
X+6479238Y+758446D01*
X+6464122Y+739878D01*
X+6445554Y+724762D01*
X+6423919Y+713485D01*
X+6399606Y+706436D01*
X+6373000Y+704000D01*
X+6240920Y+704000D02*
X+6317120Y+704000D01*
X+6332360Y+719875D01*
X+6332360Y+783375D01*
X+6317120Y+799250D01*
X+6240920Y+799250D01*
X+6286640Y+862750D02*
X+6271400Y+846875D01*
X+6256160Y+846875D01*
X+6240920Y+862750D01*
X+6240920Y+910375D01*
X+6256160Y+926250D01*
X+6271400Y+926250D01*
X+6286640Y+910375D01*
X+6286640Y+862750D01*
X+6301880Y+846875D01*
X+6317120Y+846875D01*
X+6332360Y+862750D01*
X+6332360Y+910375D01*
X+6317120Y+926250D01*
X+6301880Y+926250D01*
X+6286640Y+910375D01*
X+392000Y+2546000D02*
X+1408000Y+2546000D01*
X+392000Y+3562000D02*
X+1408000Y+3562000D01*
X+1408000Y+2546000D02*
X+1408000Y+3562000D01*
X+392000Y+2546000D02*
X+392000Y+3562000D01*
X+286120Y+2505500D02*
X+301360Y+2521375D01*
X+301360Y+2584875D01*
X+286120Y+2600750D01*
X+270880Y+2600750D01*
X+255640Y+2584875D01*
X+255640Y+2521375D01*
X+240400Y+2505500D01*
X+225160Y+2505500D01*
X+209920Y+2521375D01*
X+209920Y+2584875D01*
X+225160Y+2600750D01*
X+301360Y+2632500D02*
X+209920Y+2632500D01*
X+255640Y+2680125D01*
X+209920Y+2727750D01*
X+301360Y+2727750D01*
X+301360Y+2759500D02*
X+209920Y+2759500D01*
X+209920Y+2838875D01*
X+225160Y+2854750D01*
X+240400Y+2854750D01*
X+255640Y+2838875D01*
X+255640Y+2759500D01*
X+286120Y+2886500D02*
X+301360Y+2902375D01*
X+301360Y+2965875D01*
X+286120Y+2981750D01*
X+270880Y+2981750D01*
X+255640Y+2965875D01*
X+255640Y+2902375D01*
X+240400Y+2886500D01*
X+225160Y+2886500D01*
X+209920Y+2902375D01*
X+209920Y+2965875D01*
X+225160Y+2981750D01*
X+316600Y+3013500D02*
X+316600Y+3108750D01*
X+209920Y+3235750D02*
X+209920Y+3156375D01*
X+240400Y+3156375D01*
X+240400Y+3219875D01*
X+255640Y+3235750D01*
X+286120Y+3235750D01*
X+301360Y+3219875D01*
X+301360Y+3172250D01*
X+286120Y+3156375D01*
X+209920Y+3267500D02*
X+255640Y+3267500D01*
X+301360Y+3315125D01*
X+255640Y+3362750D01*
X+209920Y+3362750D01*
X+316600Y+3394500D02*
X+316600Y+3489750D01*
X+270880Y+3585000D02*
X+270880Y+3616750D01*
X+301360Y+3616750D01*
X+301360Y+3553250D01*
X+270880Y+3521500D01*
X+240400Y+3521500D01*
X+209920Y+3553250D01*
X+209920Y+3600875D01*
X+225160Y+3616750D01*
X+301360Y+3648500D02*
X+209920Y+3648500D01*
X+301360Y+3743750D01*
X+209920Y+3743750D01*
X+301360Y+3775500D02*
X+209920Y+3775500D01*
X+209920Y+3839000D01*
X+240400Y+3870750D01*
X+270880Y+3870750D01*
X+301360Y+3839000D01*
X+301360Y+3775500D01*
X+392000Y+1396000D02*
X+1408000Y+1396000D01*
X+392000Y+2412000D02*
X+1408000Y+2412000D01*
X+1408000Y+1396000D02*
X+1408000Y+2412000D01*
X+392000Y+1396000D02*
X+392000Y+2412000D01*
X+336120Y+1396000D02*
X+351360Y+1411875D01*
X+351360Y+1475375D01*
X+336120Y+1491250D01*
X+320880Y+1491250D01*
X+305640Y+1475375D01*
X+305640Y+1411875D01*
X+290400Y+1396000D01*
X+275160Y+1396000D01*
X+259920Y+1411875D01*
X+259920Y+1475375D01*
X+275160Y+1491250D01*
X+351360Y+1523000D02*
X+259920Y+1523000D01*
X+305640Y+1570625D01*
X+259920Y+1618250D01*
X+351360Y+1618250D01*
X+351360Y+1650000D02*
X+259920Y+1650000D01*
X+259920Y+1729375D01*
X+275160Y+1745250D01*
X+290400Y+1745250D01*
X+305640Y+1729375D01*
X+305640Y+1650000D01*
X+336120Y+1777000D02*
X+351360Y+1792875D01*
X+351360Y+1856375D01*
X+336120Y+1872250D01*
X+320880Y+1872250D01*
X+305640Y+1856375D01*
X+305640Y+1792875D01*
X+290400Y+1777000D01*
X+275160Y+1777000D01*
X+259920Y+1792875D01*
X+259920Y+1856375D01*
X+275160Y+1872250D01*
X+366600Y+1904000D02*
X+366600Y+1999250D01*
X+259920Y+2031000D02*
X+351360Y+2031000D01*
X+351360Y+2126250D01*
X+366600Y+2158000D02*
X+366600Y+2253250D01*
X+351360Y+2285000D02*
X+259920Y+2285000D01*
X+351360Y+2380250D01*
X+259920Y+2380250D01*
X+1919000Y+3800000D02*
X+3559000Y+3800000D01*
X+3559000Y+6050000D01*
X+1919000Y+6050000D01*
X+1919000Y+3800000D01*
X+1878360Y+4734500D02*
X+1786920Y+4734500D01*
X+1786920Y+4813875D01*
X+1802160Y+4829750D01*
X+1817400Y+4829750D01*
X+1832640Y+4813875D01*
X+1832640Y+4734500D01*
X+1832640Y+4813875D02*
X+1847880Y+4829750D01*
X+1878360Y+4829750D01*
X+1786920Y+4861500D02*
X+1878360Y+4861500D01*
X+1878360Y+4956750D01*
X+1847880Y+5083750D02*
X+1847880Y+4988500D01*
X+1786920Y+5052000D01*
X+1878360Y+5052000D01*
X+219000Y+3800000D02*
X+1859000Y+3800000D01*
X+1859000Y+6050000D01*
X+219000Y+6050000D01*
X+219000Y+3800000D01*
X+178360Y+4734500D02*
X+86920Y+4734500D01*
X+86920Y+4813875D01*
X+102160Y+4829750D01*
X+117400Y+4829750D01*
X+132640Y+4813875D01*
X+132640Y+4734500D01*
X+132640Y+4813875D02*
X+147880Y+4829750D01*
X+178360Y+4829750D01*
X+86920Y+4861500D02*
X+178360Y+4861500D01*
X+178360Y+4956750D01*
X+117400Y+5020250D02*
X+86920Y+5052000D01*
X+178360Y+5052000D01*
X+3619000Y+3800000D02*
X+5259000Y+3800000D01*
X+5259000Y+6050000D01*
X+3619000Y+6050000D01*
X+3619000Y+3800000D01*
X+3578360Y+4734500D02*
X+3486920Y+4734500D01*
X+3486920Y+4813875D01*
X+3502160Y+4829750D01*
X+3517400Y+4829750D01*
X+3532640Y+4813875D01*
X+3532640Y+4734500D01*
X+3532640Y+4813875D02*
X+3547880Y+4829750D01*
X+3578360Y+4829750D01*
X+3486920Y+4861500D02*
X+3578360Y+4861500D01*
X+3578360Y+4956750D01*
X+3502160Y+5004375D02*
X+3486920Y+5020250D01*
X+3486920Y+5067875D01*
X+3502160Y+5083750D01*
X+3517400Y+5083750D01*
X+3532640Y+5067875D01*
X+3532640Y+5020250D01*
X+3547880Y+5004375D01*
X+3578360Y+5004375D01*
X+3578360Y+5083750D01*
X+5319000Y+3800000D02*
X+6959000Y+3800000D01*
X+6959000Y+6050000D01*
X+5319000Y+6050000D01*
X+5319000Y+3800000D01*
X+5278360Y+4734500D02*
X+5186920Y+4734500D01*
X+5186920Y+4813875D01*
X+5202160Y+4829750D01*
X+5217400Y+4829750D01*
X+5232640Y+4813875D01*
X+5232640Y+4734500D01*
X+5232640Y+4813875D02*
X+5247880Y+4829750D01*
X+5278360Y+4829750D01*
X+5186920Y+4861500D02*
X+5278360Y+4861500D01*
X+5278360Y+4956750D01*
X+5202160Y+5004375D02*
X+5186920Y+5020250D01*
X+5186920Y+5067875D01*
X+5202160Y+5083750D01*
X+5217400Y+5083750D01*
X+5232640Y+5067875D01*
X+5247880Y+5083750D01*
X+5263120Y+5083750D01*
X+5278360Y+5067875D01*
X+5278360Y+5020250D01*
X+5263120Y+5004375D01*
X+5232640Y+5036125D02*
X+5232640Y+5067875D01*
X+5123000Y+3123000D02*
X+6139000Y+3123000D01*
X+6139000Y+3377000D01*
X+5123000Y+3377000D01*
X+5123000Y+3123000D01*
X+4551500Y+3417640D02*
X+4551500Y+3509080D01*
X+4615000Y+3509080D01*
X+4646750Y+3478600D01*
X+4646750Y+3448120D01*
X+4615000Y+3417640D01*
X+4551500Y+3417640D01*
X+4694375Y+3509080D02*
X+4757875Y+3509080D01*
X+4726125Y+3509080D02*
X+4726125Y+3417640D01*
X+4694375Y+3417640D02*
X+4757875Y+3417640D01*
X+4805500Y+3432880D02*
X+4821375Y+3417640D01*
X+4884875Y+3417640D01*
X+4900750Y+3432880D01*
X+4900750Y+3448120D01*
X+4884875Y+3463360D01*
X+4821375Y+3463360D01*
X+4805500Y+3478600D01*
X+4805500Y+3493840D01*
X+4821375Y+3509080D01*
X+4884875Y+3509080D01*
X+4900750Y+3493840D01*
X+4932500Y+3417640D02*
X+4932500Y+3509080D01*
X+5011875Y+3509080D01*
X+5027750Y+3493840D01*
X+5027750Y+3478600D01*
X+5011875Y+3463360D01*
X+4932500Y+3463360D01*
X+5059500Y+3509080D02*
X+5059500Y+3417640D01*
X+5154750Y+3417640D01*
X+5186500Y+3417640D02*
X+5186500Y+3478600D01*
X+5218250Y+3509080D01*
X+5250000Y+3509080D01*
X+5281750Y+3478600D01*
X+5281750Y+3417640D01*
X+5186500Y+3448120D02*
X+5281750Y+3448120D01*
X+5408750Y+3509080D02*
X+5313500Y+3417640D01*
X+5313500Y+3509080D02*
X+5361125Y+3463360D01*
X+5440500Y+3402400D02*
X+5535750Y+3402400D01*
X+5662750Y+3432880D02*
X+5646875Y+3417640D01*
X+5599250Y+3417640D01*
X+5567500Y+3448120D01*
X+5567500Y+3478600D01*
X+5599250Y+3509080D01*
X+5646875Y+3509080D01*
X+5662750Y+3493840D01*
X+5694500Y+3478600D02*
X+5726250Y+3509080D01*
X+5758000Y+3509080D01*
X+5789750Y+3478600D01*
X+5789750Y+3448120D01*
X+5758000Y+3417640D01*
X+5726250Y+3417640D01*
X+5694500Y+3448120D01*
X+5694500Y+3478600D01*
X+5821500Y+3417640D02*
X+5821500Y+3509080D01*
X+5916750Y+3417640D01*
X+5916750Y+3509080D01*
X+5948500Y+3417640D02*
X+5948500Y+3509080D01*
X+6043750Y+3417640D01*
X+6043750Y+3509080D01*
X+6170750Y+3417640D02*
X+6075500Y+3417640D01*
X+6075500Y+3509080D01*
X+6170750Y+3509080D01*
X+6075500Y+3463360D02*
X+6139000Y+3463360D01*
X+6297750Y+3432880D02*
X+6281875Y+3417640D01*
X+6234250Y+3417640D01*
X+6202500Y+3448120D01*
X+6202500Y+3478600D01*
X+6234250Y+3509080D01*
X+6281875Y+3509080D01*
X+6297750Y+3493840D01*
X+6329500Y+3509080D02*
X+6424750Y+3509080D01*
X+6377125Y+3509080D02*
X+6377125Y+3417640D01*
X+6456500Y+3478600D02*
X+6488250Y+3509080D01*
X+6520000Y+3509080D01*
X+6551750Y+3478600D01*
X+6551750Y+3448120D01*
X+6520000Y+3417640D01*
X+6488250Y+3417640D01*
X+6456500Y+3448120D01*
X+6456500Y+3478600D01*
X+6583500Y+3417640D02*
X+6583500Y+3509080D01*
X+6662875Y+3509080D01*
X+6678750Y+3493840D01*
X+6678750Y+3478600D01*
X+6662875Y+3463360D01*
X+6583500Y+3463360D01*
X+6662875Y+3463360D02*
X+6678750Y+3448120D01*
X+6678750Y+3417640D01*
D26*
X+1755000Y+1250000D02*
X+305000Y+1250000D01*
X+305000Y+350000D01*
X+1101000Y+350000D01*
X+1755000Y+350000D02*
X+1755000Y+488000D01*
X+1755000Y+1250000D02*
X+1755000Y+1113000D01*
X+1755000Y+350000D02*
X+1656000Y+350000D01*
D25*
X+206440Y+698000D02*
X+221680Y+698000D01*
X+236920Y+713875D01*
X+236920Y+777375D01*
X+221680Y+793250D01*
X+145480Y+793250D01*
X+160720Y+840875D02*
X+145480Y+856750D01*
X+145480Y+904375D01*
X+160720Y+920250D01*
X+175960Y+920250D01*
X+191200Y+904375D01*
X+191200Y+856750D01*
X+206440Y+840875D01*
X+236920Y+840875D01*
X+236920Y+920250D01*
X+4773000Y+2623000D02*
X+5281000Y+2623000D01*
X+5281000Y+2877000D01*
X+4773000Y+2877000D01*
X+4773000Y+2623000D01*
X+4900000Y+2917640D02*
X+4900000Y+3009080D01*
X+4979375Y+3009080D01*
X+4995250Y+2993840D01*
X+4995250Y+2978600D01*
X+4979375Y+2963360D01*
X+4900000Y+2963360D01*
X+4979375Y+2963360D02*
X+4995250Y+2948120D01*
X+4995250Y+2917640D01*
X+5027000Y+3009080D02*
X+5122250Y+2917640D01*
X+5027000Y+2917640D02*
X+5122250Y+3009080D01*
D26*
X+1735000Y+3119000D02*
X+1734965Y+3119831D01*
X+1734684Y+3121495D01*
X+1734094Y+3123159D01*
X+1733130Y+3124823D01*
X+1731655Y+3126464D01*
X+1729991Y+3127665D01*
X+1728327Y+3128430D01*
X+1726663Y+3128861D01*
X+1725000Y+3129000D01*
X+1715000Y+3119000D02*
X+1715035Y+3119831D01*
X+1715316Y+3121495D01*
X+1715906Y+3123159D01*
X+1716870Y+3124823D01*
X+1718345Y+3126464D01*
X+1720009Y+3127665D01*
X+1721673Y+3128430D01*
X+1723337Y+3128861D01*
X+1725000Y+3129000D01*
X+1715000Y+3119000D02*
X+1715035Y+3118169D01*
X+1715316Y+3116505D01*
X+1715906Y+3114841D01*
X+1716870Y+3113177D01*
X+1718345Y+3111536D01*
X+1720009Y+3110335D01*
X+1721673Y+3109570D01*
X+1723337Y+3109139D01*
X+1725000Y+3109000D01*
X+1735000Y+3119000D02*
X+1734965Y+3118169D01*
X+1734684Y+3116505D01*
X+1734094Y+3114841D01*
X+1733130Y+3113177D01*
X+1731655Y+3111536D01*
X+1729991Y+3110335D01*
X+1728327Y+3109570D01*
X+1726663Y+3109139D01*
X+1725000Y+3109000D01*
D27*
X+1678000Y+3173000D02*
X+2022000Y+3173000D01*
X+1679417Y+3170106D02*
X+1650754Y+3199885D01*
X+1628066Y+3234727D01*
X+1611890Y+3274070D01*
X+1602767Y+3317348D01*
X+1603000Y+3324000D01*
X+1602038Y+3326275D02*
X+1607648Y+3375638D01*
X+1622139Y+3421223D01*
X+1644644Y+3462166D01*
X+1674294Y+3497602D01*
X+1710222Y+3526667D01*
X+1751561Y+3548498D01*
X+1797443Y+3562231D01*
X+1847000Y+3567000D01*
X+1851275Y+3566962D01*
X+1850000Y+3567000D01*
X+1853000Y+3567000D02*
X+1903094Y+3562125D01*
X+1949421Y+3548099D01*
X+1991082Y+3525818D01*
X+2027180Y+3496180D01*
X+2056818Y+3460081D01*
X+2079099Y+3418421D01*
X+2093125Y+3372094D01*
X+2098000Y+3322000D01*
X+2097000Y+3324000D01*
X+2023633Y+3172901D02*
X+2051721Y+3203120D01*
X+2073794Y+3238344D01*
X+2089304Y+3277986D01*
X+2097701Y+3321458D01*
X+2097000Y+3324000D01*
D25*
X+1723021Y+3664790D02*
X+1754771Y+3695270D01*
X+1786521Y+3695270D01*
X+1818271Y+3664790D01*
X+1818271Y+3634310D01*
X+1786521Y+3603830D01*
X+1754771Y+3603830D01*
X+1723021Y+3634310D01*
X+1723021Y+3664790D01*
X+1786521Y+3634310D02*
X+1818271Y+3603830D01*
X+1881771Y+3664790D02*
X+1913521Y+3695270D01*
X+1913521Y+3603830D01*
D26*
X+4135000Y+3119000D02*
X+4134965Y+3119831D01*
X+4134684Y+3121495D01*
X+4134094Y+3123159D01*
X+4133130Y+3124823D01*
X+4131655Y+3126464D01*
X+4129991Y+3127665D01*
X+4128327Y+3128430D01*
X+4126663Y+3128861D01*
X+4125000Y+3129000D01*
X+4115000Y+3119000D02*
X+4115035Y+3119831D01*
X+4115316Y+3121495D01*
X+4115906Y+3123159D01*
X+4116870Y+3124823D01*
X+4118345Y+3126464D01*
X+4120009Y+3127665D01*
X+4121673Y+3128430D01*
X+4123337Y+3128861D01*
X+4125000Y+3129000D01*
X+4115000Y+3119000D02*
X+4115035Y+3118169D01*
X+4115316Y+3116505D01*
X+4115906Y+3114841D01*
X+4116870Y+3113177D01*
X+4118345Y+3111536D01*
X+4120009Y+3110335D01*
X+4121673Y+3109570D01*
X+4123337Y+3109139D01*
X+4125000Y+3109000D01*
X+4135000Y+3119000D02*
X+4134965Y+3118169D01*
X+4134684Y+3116505D01*
X+4134094Y+3114841D01*
X+4133130Y+3113177D01*
X+4131655Y+3111536D01*
X+4129991Y+3110335D01*
X+4128327Y+3109570D01*
X+4126663Y+3109139D01*
X+4125000Y+3109000D01*
D27*
X+4078000Y+3173000D02*
X+4422000Y+3173000D01*
X+4079417Y+3170106D02*
X+4050754Y+3199885D01*
X+4028066Y+3234727D01*
X+4011890Y+3274070D01*
X+4002767Y+3317348D01*
X+4003000Y+3324000D01*
X+4002038Y+3326275D02*
X+4007648Y+3375638D01*
X+4022139Y+3421223D01*
X+4044644Y+3462166D01*
X+4074294Y+3497602D01*
X+4110222Y+3526667D01*
X+4151561Y+3548498D01*
X+4197443Y+3562231D01*
X+4247000Y+3567000D01*
X+4251275Y+3566962D01*
X+4250000Y+3567000D01*
X+4253000Y+3567000D02*
X+4303094Y+3562125D01*
X+4349421Y+3548099D01*
X+4391082Y+3525818D01*
X+4427180Y+3496180D01*
X+4456818Y+3460081D01*
X+4479099Y+3418421D01*
X+4493125Y+3372094D01*
X+4498000Y+3322000D01*
X+4497000Y+3324000D01*
X+4423633Y+3172901D02*
X+4451721Y+3203120D01*
X+4473794Y+3238344D01*
X+4489304Y+3277986D01*
X+4497701Y+3321458D01*
X+4497000Y+3324000D01*
D25*
X+4123021Y+3664790D02*
X+4154771Y+3695270D01*
X+4186521Y+3695270D01*
X+4218271Y+3664790D01*
X+4218271Y+3634310D01*
X+4186521Y+3603830D01*
X+4154771Y+3603830D01*
X+4123021Y+3634310D01*
X+4123021Y+3664790D01*
X+4186521Y+3634310D02*
X+4218271Y+3603830D01*
X+4265896Y+3680030D02*
X+4281771Y+3695270D01*
X+4329396Y+3695270D01*
X+4345271Y+3680030D01*
X+4345271Y+3664790D01*
X+4329396Y+3649550D01*
X+4281771Y+3649550D01*
X+4265896Y+3634310D01*
X+4265896Y+3603830D01*
X+4345271Y+3603830D01*
D26*
X+3485000Y+3119000D02*
X+3484965Y+3119831D01*
X+3484684Y+3121495D01*
X+3484094Y+3123159D01*
X+3483130Y+3124823D01*
X+3481655Y+3126464D01*
X+3479991Y+3127665D01*
X+3478327Y+3128430D01*
X+3476663Y+3128861D01*
X+3475000Y+3129000D01*
X+3465000Y+3119000D02*
X+3465035Y+3119831D01*
X+3465316Y+3121495D01*
X+3465906Y+3123159D01*
X+3466870Y+3124823D01*
X+3468345Y+3126464D01*
X+3470009Y+3127665D01*
X+3471673Y+3128430D01*
X+3473337Y+3128861D01*
X+3475000Y+3129000D01*
X+3465000Y+3119000D02*
X+3465035Y+3118169D01*
X+3465316Y+3116505D01*
X+3465906Y+3114841D01*
X+3466870Y+3113177D01*
X+3468345Y+3111536D01*
X+3470009Y+3110335D01*
X+3471673Y+3109570D01*
X+3473337Y+3109139D01*
X+3475000Y+3109000D01*
X+3485000Y+3119000D02*
X+3484965Y+3118169D01*
X+3484684Y+3116505D01*
X+3484094Y+3114841D01*
X+3483130Y+3113177D01*
X+3481655Y+3111536D01*
X+3479991Y+3110335D01*
X+3478327Y+3109570D01*
X+3476663Y+3109139D01*
X+3475000Y+3109000D01*
D27*
X+3428000Y+3173000D02*
X+3772000Y+3173000D01*
X+3429417Y+3170106D02*
X+3400754Y+3199885D01*
X+3378066Y+3234727D01*
X+3361890Y+3274070D01*
X+3352767Y+3317348D01*
X+3353000Y+3324000D01*
X+3352038Y+3326275D02*
X+3357648Y+3375638D01*
X+3372139Y+3421223D01*
X+3394644Y+3462166D01*
X+3424294Y+3497602D01*
X+3460222Y+3526667D01*
X+3501561Y+3548498D01*
X+3547443Y+3562231D01*
X+3597000Y+3567000D01*
X+3601275Y+3566962D01*
X+3600000Y+3567000D01*
X+3603000Y+3567000D02*
X+3653094Y+3562125D01*
X+3699421Y+3548099D01*
X+3741082Y+3525818D01*
X+3777180Y+3496180D01*
X+3806818Y+3460081D01*
X+3829099Y+3418421D01*
X+3843125Y+3372094D01*
X+3848000Y+3322000D01*
X+3847000Y+3324000D01*
X+3773633Y+3172901D02*
X+3801721Y+3203120D01*
X+3823794Y+3238344D01*
X+3839304Y+3277986D01*
X+3847701Y+3321458D01*
X+3847000Y+3324000D01*
D25*
X+3473021Y+3664790D02*
X+3504771Y+3695270D01*
X+3536521Y+3695270D01*
X+3568271Y+3664790D01*
X+3568271Y+3634310D01*
X+3536521Y+3603830D01*
X+3504771Y+3603830D01*
X+3473021Y+3634310D01*
X+3473021Y+3664790D01*
X+3536521Y+3634310D02*
X+3568271Y+3603830D01*
X+3615896Y+3680030D02*
X+3631771Y+3695270D01*
X+3679396Y+3695270D01*
X+3695271Y+3680030D01*
X+3695271Y+3664790D01*
X+3679396Y+3649550D01*
X+3695271Y+3634310D01*
X+3695271Y+3619070D01*
X+3679396Y+3603830D01*
X+3631771Y+3603830D01*
X+3615896Y+3619070D01*
X+3647646Y+3649550D02*
X+3679396Y+3649550D01*
D26*
X+2885000Y+3119000D02*
X+2884965Y+3119831D01*
X+2884684Y+3121495D01*
X+2884094Y+3123159D01*
X+2883130Y+3124823D01*
X+2881655Y+3126464D01*
X+2879991Y+3127665D01*
X+2878327Y+3128430D01*
X+2876663Y+3128861D01*
X+2875000Y+3129000D01*
X+2865000Y+3119000D02*
X+2865035Y+3119831D01*
X+2865316Y+3121495D01*
X+2865906Y+3123159D01*
X+2866870Y+3124823D01*
X+2868345Y+3126464D01*
X+2870009Y+3127665D01*
X+2871673Y+3128430D01*
X+2873337Y+3128861D01*
X+2875000Y+3129000D01*
X+2865000Y+3119000D02*
X+2865035Y+3118169D01*
X+2865316Y+3116505D01*
X+2865906Y+3114841D01*
X+2866870Y+3113177D01*
X+2868345Y+3111536D01*
X+2870009Y+3110335D01*
X+2871673Y+3109570D01*
X+2873337Y+3109139D01*
X+2875000Y+3109000D01*
X+2885000Y+3119000D02*
X+2884965Y+3118169D01*
X+2884684Y+3116505D01*
X+2884094Y+3114841D01*
X+2883130Y+3113177D01*
X+2881655Y+3111536D01*
X+2879991Y+3110335D01*
X+2878327Y+3109570D01*
X+2876663Y+3109139D01*
X+2875000Y+3109000D01*
D27*
X+2828000Y+3173000D02*
X+3172000Y+3173000D01*
X+2829417Y+3170106D02*
X+2800754Y+3199885D01*
X+2778066Y+3234727D01*
X+2761890Y+3274070D01*
X+2752767Y+3317348D01*
X+2753000Y+3324000D01*
X+2752038Y+3326275D02*
X+2757648Y+3375638D01*
X+2772139Y+3421223D01*
X+2794644Y+3462166D01*
X+2824294Y+3497602D01*
X+2860222Y+3526667D01*
X+2901561Y+3548498D01*
X+2947443Y+3562231D01*
X+2997000Y+3567000D01*
X+3001275Y+3566962D01*
X+3000000Y+3567000D01*
X+3003000Y+3567000D02*
X+3053094Y+3562125D01*
X+3099421Y+3548099D01*
X+3141082Y+3525818D01*
X+3177180Y+3496180D01*
X+3206818Y+3460081D01*
X+3229099Y+3418421D01*
X+3243125Y+3372094D01*
X+3248000Y+3322000D01*
X+3247000Y+3324000D01*
X+3173633Y+3172901D02*
X+3201721Y+3203120D01*
X+3223794Y+3238344D01*
X+3239304Y+3277986D01*
X+3247701Y+3321458D01*
X+3247000Y+3324000D01*
D25*
X+2873021Y+3664790D02*
X+2904771Y+3695270D01*
X+2936521Y+3695270D01*
X+2968271Y+3664790D01*
X+2968271Y+3634310D01*
X+2936521Y+3603830D01*
X+2904771Y+3603830D01*
X+2873021Y+3634310D01*
X+2873021Y+3664790D01*
X+2936521Y+3634310D02*
X+2968271Y+3603830D01*
X+3095271Y+3634310D02*
X+3000021Y+3634310D01*
X+3063521Y+3695270D01*
X+3063521Y+3603830D01*
D26*
X+2185000Y+1550000D02*
X+2185000Y+1820000D01*
X+1915000Y+1550000D02*
X+1915000Y+1820000D01*
D25*
X+2074520Y+1558000D02*
X+1983080Y+1558000D01*
X+1983080Y+1637375D01*
X+1998320Y+1653250D01*
X+2013560Y+1653250D01*
X+2028800Y+1637375D01*
X+2028800Y+1558000D01*
X+2028800Y+1637375D02*
X+2044040Y+1653250D01*
X+2074520Y+1653250D01*
X+1998320Y+1700875D02*
X+1983080Y+1716750D01*
X+1983080Y+1764375D01*
X+1998320Y+1780250D01*
X+2013560Y+1780250D01*
X+2028800Y+1764375D01*
X+2028800Y+1716750D01*
X+2044040Y+1700875D01*
X+2074520Y+1700875D01*
X+2074520Y+1780250D01*
D26*
X+5550000Y+965000D02*
X+5820000Y+965000D01*
X+5550000Y+1235000D02*
X+5820000Y+1235000D01*
D25*
X+5558000Y+1025480D02*
X+5558000Y+1116920D01*
X+5637375Y+1116920D01*
X+5653250Y+1101680D01*
X+5653250Y+1086440D01*
X+5637375Y+1071200D01*
X+5558000Y+1071200D01*
X+5637375Y+1071200D02*
X+5653250Y+1055960D01*
X+5653250Y+1025480D01*
X+5780250Y+1055960D02*
X+5685000Y+1055960D01*
X+5748500Y+1116920D01*
X+5748500Y+1025480D01*
D26*
X+5550000Y+565000D02*
X+5820000Y+565000D01*
X+5550000Y+835000D02*
X+5820000Y+835000D01*
D25*
X+5558000Y+675480D02*
X+5558000Y+766920D01*
X+5637375Y+766920D01*
X+5653250Y+751680D01*
X+5653250Y+736440D01*
X+5637375Y+721200D01*
X+5558000Y+721200D01*
X+5637375Y+721200D02*
X+5653250Y+705960D01*
X+5653250Y+675480D01*
X+5780250Y+751680D02*
X+5764375Y+766920D01*
X+5716750Y+766920D01*
X+5700875Y+751680D01*
X+5700875Y+690720D01*
X+5716750Y+675480D01*
X+5764375Y+675480D01*
X+5780250Y+690720D01*
X+5780250Y+705960D01*
X+5764375Y+721200D01*
X+5700875Y+721200D01*
D26*
X+5550000Y+165000D02*
X+5820000Y+165000D01*
X+5550000Y+435000D02*
X+5820000Y+435000D01*
D25*
X+5558000Y+225480D02*
X+5558000Y+316920D01*
X+5637375Y+316920D01*
X+5653250Y+301680D01*
X+5653250Y+286440D01*
X+5637375Y+271200D01*
X+5558000Y+271200D01*
X+5637375Y+271200D02*
X+5653250Y+255960D01*
X+5653250Y+225480D01*
X+5716750Y+271200D02*
X+5700875Y+286440D01*
X+5700875Y+301680D01*
X+5716750Y+316920D01*
X+5764375Y+316920D01*
X+5780250Y+301680D01*
X+5780250Y+286440D01*
X+5764375Y+271200D01*
X+5716750Y+271200D01*
X+5700875Y+255960D01*
X+5700875Y+240720D01*
X+5716750Y+225480D01*
X+5764375Y+225480D01*
X+5780250Y+240720D01*
X+5780250Y+255960D01*
X+5764375Y+271200D01*
D28*
X+2380000Y+3310000D02*
X+2420000Y+3310000D01*
X+2420000Y+3390000D01*
X+2380000Y+3390000D01*
X+2380000Y+3310000D01*
D25*
X+2273000Y+3513190D02*
X+2273000Y+3436990D01*
X+2288875Y+3421750D01*
X+2352375Y+3421750D01*
X+2368250Y+3436990D01*
X+2368250Y+3513190D01*
X+2415875Y+3497950D02*
X+2431750Y+3513190D01*
X+2479375Y+3513190D01*
X+2495250Y+3497950D01*
X+2495250Y+3482710D01*
X+2479375Y+3467470D01*
X+2495250Y+3452230D01*
X+2495250Y+3436990D01*
X+2479375Y+3421750D01*
X+2431750Y+3421750D01*
X+2415875Y+3436990D01*
X+2447625Y+3467470D02*
X+2479375Y+3467470D01*
D28*
X+2480000Y+2910000D02*
X+2520000Y+2910000D01*
X+2520000Y+2990000D01*
X+2480000Y+2990000D01*
X+2480000Y+2910000D01*
D25*
X+2373000Y+3113190D02*
X+2373000Y+3036990D01*
X+2388875Y+3021750D01*
X+2452375Y+3021750D01*
X+2468250Y+3036990D01*
X+2468250Y+3113190D01*
X+2595250Y+3113190D02*
X+2515875Y+3113190D01*
X+2515875Y+3082710D01*
X+2579375Y+3082710D01*
X+2595250Y+3067470D01*
X+2595250Y+3036990D01*
X+2579375Y+3021750D01*
X+2531750Y+3021750D01*
X+2515875Y+3036990D01*
D28*
X+2480000Y+2460000D02*
X+2520000Y+2460000D01*
X+2520000Y+2540000D01*
X+2480000Y+2540000D01*
X+2480000Y+2460000D01*
D25*
X+2373000Y+2663190D02*
X+2373000Y+2586990D01*
X+2388875Y+2571750D01*
X+2452375Y+2571750D01*
X+2468250Y+2586990D01*
X+2468250Y+2663190D01*
X+2515875Y+2663190D02*
X+2595250Y+2663190D01*
X+2595250Y+2647950D01*
X+2515875Y+2571750D01*
D28*
X+5780000Y+2810000D02*
X+5820000Y+2810000D01*
X+5820000Y+2890000D01*
X+5780000Y+2890000D01*
X+5780000Y+2810000D01*
D25*
X+5673000Y+3063190D02*
X+5673000Y+2986990D01*
X+5688875Y+2971750D01*
X+5752375Y+2971750D01*
X+5768250Y+2986990D01*
X+5768250Y+3063190D01*
X+5895250Y+3032710D02*
X+5879375Y+3017470D01*
X+5831750Y+3017470D01*
X+5815875Y+3032710D01*
X+5815875Y+3047950D01*
X+5831750Y+3063190D01*
X+5879375Y+3063190D01*
X+5895250Y+3047950D01*
X+5895250Y+2986990D01*
X+5879375Y+2971750D01*
X+5831750Y+2971750D01*
D24*
X+0Y+0D02*
X+7050000Y+0D01*
X+7050000Y+7200000D01*
X+0Y+7200000D01*
X+0Y+0D01*
D29*
X+6219856Y+133960D02*
X+6237636Y+133960D01*
X+6293516Y+133960D02*
X+6379876Y+133960D01*
X+6514496Y+133960D02*
X+6577996Y+133960D01*
X+6669436Y+133960D02*
X+6689756Y+133960D01*
X+6745636Y+133960D02*
X+6763416Y+133960D01*
X+6781196Y+133960D02*
X+6814216Y+133960D01*
X+6072536Y+136500D02*
X+6090316Y+136500D01*
X+6148736Y+136500D02*
X+6166516Y+136500D01*
X+6209696Y+136500D02*
X+6247796Y+136500D01*
X+6293516Y+136500D02*
X+6379876Y+136500D01*
X+6384956Y+136500D02*
X+6402736Y+136500D01*
X+6481476Y+136500D02*
X+6499256Y+136500D01*
X+6514496Y+136500D02*
X+6588156Y+136500D01*
X+6659276Y+136500D02*
X+6702456Y+136500D01*
X+6745636Y+136500D02*
X+6763416Y+136500D01*
X+6781196Y+136500D02*
X+6814216Y+136500D01*
X+6831996Y+136500D02*
X+6849776Y+136500D01*
X+6908196Y+136500D02*
X+6925976Y+136500D01*
X+6072536Y+139040D02*
X+6090316Y+139040D01*
X+6148736Y+139040D02*
X+6166516Y+139040D01*
X+6204616Y+139040D02*
X+6252876Y+139040D01*
X+6293516Y+139040D02*
X+6379876Y+139040D01*
X+6387496Y+139040D02*
X+6402736Y+139040D01*
X+6478936Y+139040D02*
X+6496716Y+139040D01*
X+6514496Y+139040D02*
X+6593236Y+139040D01*
X+6651656Y+139040D02*
X+6707536Y+139040D01*
X+6745636Y+139040D02*
X+6763416Y+139040D01*
X+6781196Y+139040D02*
X+6814216Y+139040D01*
X+6831996Y+139040D02*
X+6849776Y+139040D01*
X+6905656Y+139040D02*
X+6925976Y+139040D01*
X+6072536Y+141580D02*
X+6090316Y+141580D01*
X+6148736Y+141580D02*
X+6166516Y+141580D01*
X+6199536Y+141580D02*
X+6255416Y+141580D01*
X+6293516Y+141580D02*
X+6379876Y+141580D01*
X+6387496Y+141580D02*
X+6405276Y+141580D01*
X+6478936Y+141580D02*
X+6496716Y+141580D01*
X+6514496Y+141580D02*
X+6595776Y+141580D01*
X+6649116Y+141580D02*
X+6712616Y+141580D01*
X+6745636Y+141580D02*
X+6763416Y+141580D01*
X+6781196Y+141580D02*
X+6814216Y+141580D01*
X+6831996Y+141580D02*
X+6849776Y+141580D01*
X+6903116Y+141580D02*
X+6925976Y+141580D01*
X+6072536Y+144120D02*
X+6090316Y+144120D01*
X+6148736Y+144120D02*
X+6166516Y+144120D01*
X+6196996Y+144120D02*
X+6257956Y+144120D01*
X+6293516Y+144120D02*
X+6379876Y+144120D01*
X+6387496Y+144120D02*
X+6405276Y+144120D01*
X+6478936Y+144120D02*
X+6496716Y+144120D01*
X+6514496Y+144120D02*
X+6598316Y+144120D01*
X+6644036Y+144120D02*
X+6715156Y+144120D01*
X+6745636Y+144120D02*
X+6763416Y+144120D01*
X+6781196Y+144120D02*
X+6814216Y+144120D01*
X+6831996Y+144120D02*
X+6849776Y+144120D01*
X+6903116Y+144120D02*
X+6925976Y+144120D01*
X+6072536Y+146660D02*
X+6090316Y+146660D01*
X+6148736Y+146660D02*
X+6166516Y+146660D01*
X+6196996Y+146660D02*
X+6260496Y+146660D01*
X+6293516Y+146660D02*
X+6379876Y+146660D01*
X+6390036Y+146660D02*
X+6407816Y+146660D01*
X+6476396Y+146660D02*
X+6494176Y+146660D01*
X+6514496Y+146660D02*
X+6600856Y+146660D01*
X+6641496Y+146660D02*
X+6717696Y+146660D01*
X+6745636Y+146660D02*
X+6763416Y+146660D01*
X+6781196Y+146660D02*
X+6814216Y+146660D01*
X+6831996Y+146660D02*
X+6849776Y+146660D01*
X+6900576Y+146660D02*
X+6925976Y+146660D01*
X+6072536Y+149200D02*
X+6090316Y+149200D01*
X+6148736Y+149200D02*
X+6166516Y+149200D01*
X+6194456Y+149200D02*
X+6222396Y+149200D01*
X+6232556Y+149200D02*
X+6263036Y+149200D01*
X+6293516Y+149200D02*
X+6311296Y+149200D01*
X+6390036Y+149200D02*
X+6407816Y+149200D01*
X+6476396Y+149200D02*
X+6494176Y+149200D01*
X+6514496Y+149200D02*
X+6532276Y+149200D01*
X+6572916Y+149200D02*
X+6603396Y+149200D01*
X+6638956Y+149200D02*
X+6666896Y+149200D01*
X+6692296Y+149200D02*
X+6720236Y+149200D01*
X+6745636Y+149200D02*
X+6763416Y+149200D01*
X+6781196Y+149200D02*
X+6814216Y+149200D01*
X+6831996Y+149200D02*
X+6849776Y+149200D01*
X+6900576Y+149200D02*
X+6925976Y+149200D01*
X+6072536Y+151740D02*
X+6090316Y+151740D01*
X+6148736Y+151740D02*
X+6166516Y+151740D01*
X+6191916Y+151740D02*
X+6214776Y+151740D01*
X+6242716Y+151740D02*
X+6263036Y+151740D01*
X+6293516Y+151740D02*
X+6311296Y+151740D01*
X+6390036Y+151740D02*
X+6410356Y+151740D01*
X+6473856Y+151740D02*
X+6491636Y+151740D01*
X+6514496Y+151740D02*
X+6532276Y+151740D01*
X+6580536Y+151740D02*
X+6605936Y+151740D01*
X+6638956Y+151740D02*
X+6659276Y+151740D01*
X+6699916Y+151740D02*
X+6720236Y+151740D01*
X+6786276Y+151740D02*
X+6804056Y+151740D01*
X+6831996Y+151740D02*
X+6849776Y+151740D01*
X+6898036Y+151740D02*
X+6925976Y+151740D01*
X+6072536Y+154280D02*
X+6090316Y+154280D01*
X+6148736Y+154280D02*
X+6166516Y+154280D01*
X+6191916Y+154280D02*
X+6212236Y+154280D01*
X+6245256Y+154280D02*
X+6265576Y+154280D01*
X+6293516Y+154280D02*
X+6311296Y+154280D01*
X+6392576Y+154280D02*
X+6410356Y+154280D01*
X+6473856Y+154280D02*
X+6491636Y+154280D01*
X+6514496Y+154280D02*
X+6532276Y+154280D01*
X+6585616Y+154280D02*
X+6605936Y+154280D01*
X+6636416Y+154280D02*
X+6656736Y+154280D01*
X+6702456Y+154280D02*
X+6722776Y+154280D01*
X+6786276Y+154280D02*
X+6804056Y+154280D01*
X+6831996Y+154280D02*
X+6849776Y+154280D01*
X+6895496Y+154280D02*
X+6925976Y+154280D01*
X+6072536Y+156820D02*
X+6090316Y+156820D01*
X+6148736Y+156820D02*
X+6166516Y+156820D01*
X+6189376Y+156820D02*
X+6209696Y+156820D01*
X+6247796Y+156820D02*
X+6265576Y+156820D01*
X+6293516Y+156820D02*
X+6311296Y+156820D01*
X+6392576Y+156820D02*
X+6410356Y+156820D01*
X+6471316Y+156820D02*
X+6491636Y+156820D01*
X+6514496Y+156820D02*
X+6532276Y+156820D01*
X+6588156Y+156820D02*
X+6608476Y+156820D01*
X+6636416Y+156820D02*
X+6654196Y+156820D01*
X+6704996Y+156820D02*
X+6722776Y+156820D01*
X+6786276Y+156820D02*
X+6804056Y+156820D01*
X+6831996Y+156820D02*
X+6849776Y+156820D01*
X+6895496Y+156820D02*
X+6925976Y+156820D01*
X+6072536Y+159360D02*
X+6090316Y+159360D01*
X+6148736Y+159360D02*
X+6166516Y+159360D01*
X+6189376Y+159360D02*
X+6207156Y+159360D01*
X+6247796Y+159360D02*
X+6268116Y+159360D01*
X+6293516Y+159360D02*
X+6311296Y+159360D01*
X+6395116Y+159360D02*
X+6412896Y+159360D01*
X+6471316Y+159360D02*
X+6489096Y+159360D01*
X+6514496Y+159360D02*
X+6532276Y+159360D01*
X+6588156Y+159360D02*
X+6608476Y+159360D01*
X+6633876Y+159360D02*
X+6651656Y+159360D01*
X+6707536Y+159360D02*
X+6725316Y+159360D01*
X+6786276Y+159360D02*
X+6804056Y+159360D01*
X+6831996Y+159360D02*
X+6849776Y+159360D01*
X+6892956Y+159360D02*
X+6925976Y+159360D01*
X+6072536Y+161900D02*
X+6090316Y+161900D01*
X+6148736Y+161900D02*
X+6166516Y+161900D01*
X+6189376Y+161900D02*
X+6207156Y+161900D01*
X+6247796Y+161900D02*
X+6268116Y+161900D01*
X+6293516Y+161900D02*
X+6311296Y+161900D01*
X+6395116Y+161900D02*
X+6412896Y+161900D01*
X+6471316Y+161900D02*
X+6489096Y+161900D01*
X+6514496Y+161900D02*
X+6532276Y+161900D01*
X+6590696Y+161900D02*
X+6608476Y+161900D01*
X+6633876Y+161900D02*
X+6651656Y+161900D01*
X+6707536Y+161900D02*
X+6725316Y+161900D01*
X+6786276Y+161900D02*
X+6804056Y+161900D01*
X+6831996Y+161900D02*
X+6849776Y+161900D01*
X+6892956Y+161900D02*
X+6925976Y+161900D01*
X+6072536Y+164440D02*
X+6090316Y+164440D01*
X+6148736Y+164440D02*
X+6166516Y+164440D01*
X+6189376Y+164440D02*
X+6204616Y+164440D01*
X+6250336Y+164440D02*
X+6268116Y+164440D01*
X+6293516Y+164440D02*
X+6311296Y+164440D01*
X+6395116Y+164440D02*
X+6415436Y+164440D01*
X+6468776Y+164440D02*
X+6486556Y+164440D01*
X+6514496Y+164440D02*
X+6532276Y+164440D01*
X+6590696Y+164440D02*
X+6608476Y+164440D01*
X+6633876Y+164440D02*
X+6649116Y+164440D01*
X+6707536Y+164440D02*
X+6725316Y+164440D01*
X+6786276Y+164440D02*
X+6804056Y+164440D01*
X+6831996Y+164440D02*
X+6849776Y+164440D01*
X+6890416Y+164440D02*
X+6925976Y+164440D01*
X+6072536Y+166980D02*
X+6090316Y+166980D01*
X+6148736Y+166980D02*
X+6166516Y+166980D01*
X+6186836Y+166980D02*
X+6204616Y+166980D01*
X+6250336Y+166980D02*
X+6268116Y+166980D01*
X+6293516Y+166980D02*
X+6311296Y+166980D01*
X+6397656Y+166980D02*
X+6415436Y+166980D01*
X+6468776Y+166980D02*
X+6486556Y+166980D01*
X+6514496Y+166980D02*
X+6532276Y+166980D01*
X+6590696Y+166980D02*
X+6608476Y+166980D01*
X+6633876Y+166980D02*
X+6649116Y+166980D01*
X+6707536Y+166980D02*
X+6725316Y+166980D01*
X+6786276Y+166980D02*
X+6804056Y+166980D01*
X+6831996Y+166980D02*
X+6849776Y+166980D01*
X+6890416Y+166980D02*
X+6905656Y+166980D01*
X+6908196Y+166980D02*
X+6925976Y+166980D01*
X+6072536Y+169520D02*
X+6090316Y+169520D01*
X+6148736Y+169520D02*
X+6166516Y+169520D01*
X+6186836Y+169520D02*
X+6204616Y+169520D01*
X+6250336Y+169520D02*
X+6268116Y+169520D01*
X+6293516Y+169520D02*
X+6311296Y+169520D01*
X+6397656Y+169520D02*
X+6415436Y+169520D01*
X+6466236Y+169520D02*
X+6486556Y+169520D01*
X+6514496Y+169520D02*
X+6532276Y+169520D01*
X+6593236Y+169520D02*
X+6608476Y+169520D01*
X+6631336Y+169520D02*
X+6649116Y+169520D01*
X+6707536Y+169520D02*
X+6725316Y+169520D01*
X+6786276Y+169520D02*
X+6804056Y+169520D01*
X+6831996Y+169520D02*
X+6849776Y+169520D01*
X+6887876Y+169520D02*
X+6903116Y+169520D01*
X+6908196Y+169520D02*
X+6925976Y+169520D01*
X+6072536Y+172060D02*
X+6090316Y+172060D01*
X+6148736Y+172060D02*
X+6166516Y+172060D01*
X+6186836Y+172060D02*
X+6204616Y+172060D01*
X+6250336Y+172060D02*
X+6268116Y+172060D01*
X+6293516Y+172060D02*
X+6311296Y+172060D01*
X+6400196Y+172060D02*
X+6484016Y+172060D01*
X+6514496Y+172060D02*
X+6532276Y+172060D01*
X+6593236Y+172060D02*
X+6608476Y+172060D01*
X+6631336Y+172060D02*
X+6649116Y+172060D01*
X+6707536Y+172060D02*
X+6725316Y+172060D01*
X+6786276Y+172060D02*
X+6804056Y+172060D01*
X+6831996Y+172060D02*
X+6849776Y+172060D01*
X+6885336Y+172060D02*
X+6903116Y+172060D01*
X+6908196Y+172060D02*
X+6925976Y+172060D01*
X+6072536Y+174600D02*
X+6090316Y+174600D01*
X+6148736Y+174600D02*
X+6166516Y+174600D01*
X+6186836Y+174600D02*
X+6204616Y+174600D01*
X+6250336Y+174600D02*
X+6268116Y+174600D01*
X+6293516Y+174600D02*
X+6311296Y+174600D01*
X+6400196Y+174600D02*
X+6484016Y+174600D01*
X+6514496Y+174600D02*
X+6532276Y+174600D01*
X+6590696Y+174600D02*
X+6608476Y+174600D01*
X+6707536Y+174600D02*
X+6725316Y+174600D01*
X+6786276Y+174600D02*
X+6804056Y+174600D01*
X+6831996Y+174600D02*
X+6849776Y+174600D01*
X+6885336Y+174600D02*
X+6900576Y+174600D01*
X+6908196Y+174600D02*
X+6925976Y+174600D01*
X+6072536Y+177140D02*
X+6090316Y+177140D01*
X+6148736Y+177140D02*
X+6166516Y+177140D01*
X+6186836Y+177140D02*
X+6204616Y+177140D01*
X+6250336Y+177140D02*
X+6268116Y+177140D01*
X+6293516Y+177140D02*
X+6311296Y+177140D01*
X+6400196Y+177140D02*
X+6481476Y+177140D01*
X+6514496Y+177140D02*
X+6532276Y+177140D01*
X+6590696Y+177140D02*
X+6608476Y+177140D01*
X+6704996Y+177140D02*
X+6725316Y+177140D01*
X+6786276Y+177140D02*
X+6804056Y+177140D01*
X+6831996Y+177140D02*
X+6849776Y+177140D01*
X+6882796Y+177140D02*
X+6900576Y+177140D01*
X+6908196Y+177140D02*
X+6925976Y+177140D01*
X+6072536Y+179680D02*
X+6090316Y+179680D01*
X+6148736Y+179680D02*
X+6166516Y+179680D01*
X+6186836Y+179680D02*
X+6204616Y+179680D01*
X+6250336Y+179680D02*
X+6268116Y+179680D01*
X+6293516Y+179680D02*
X+6311296Y+179680D01*
X+6402736Y+179680D02*
X+6481476Y+179680D01*
X+6514496Y+179680D02*
X+6532276Y+179680D01*
X+6590696Y+179680D02*
X+6608476Y+179680D01*
X+6702456Y+179680D02*
X+6722776Y+179680D01*
X+6786276Y+179680D02*
X+6804056Y+179680D01*
X+6831996Y+179680D02*
X+6849776Y+179680D01*
X+6882796Y+179680D02*
X+6898036Y+179680D01*
X+6908196Y+179680D02*
X+6925976Y+179680D01*
X+6072536Y+182220D02*
X+6090316Y+182220D01*
X+6148736Y+182220D02*
X+6166516Y+182220D01*
X+6186836Y+182220D02*
X+6204616Y+182220D01*
X+6250336Y+182220D02*
X+6268116Y+182220D01*
X+6293516Y+182220D02*
X+6311296Y+182220D01*
X+6402736Y+182220D02*
X+6481476Y+182220D01*
X+6514496Y+182220D02*
X+6532276Y+182220D01*
X+6590696Y+182220D02*
X+6608476Y+182220D01*
X+6697376Y+182220D02*
X+6722776Y+182220D01*
X+6786276Y+182220D02*
X+6804056Y+182220D01*
X+6831996Y+182220D02*
X+6849776Y+182220D01*
X+6880256Y+182220D02*
X+6895496Y+182220D01*
X+6908196Y+182220D02*
X+6925976Y+182220D01*
X+6072536Y+184760D02*
X+6090316Y+184760D01*
X+6148736Y+184760D02*
X+6166516Y+184760D01*
X+6250336Y+184760D02*
X+6268116Y+184760D01*
X+6293516Y+184760D02*
X+6311296Y+184760D01*
X+6405276Y+184760D02*
X+6478936Y+184760D01*
X+6514496Y+184760D02*
X+6532276Y+184760D01*
X+6588156Y+184760D02*
X+6605936Y+184760D01*
X+6692296Y+184760D02*
X+6720236Y+184760D01*
X+6786276Y+184760D02*
X+6804056Y+184760D01*
X+6831996Y+184760D02*
X+6849776Y+184760D01*
X+6877716Y+184760D02*
X+6895496Y+184760D01*
X+6908196Y+184760D02*
X+6925976Y+184760D01*
X+6072536Y+187300D02*
X+6090316Y+187300D01*
X+6148736Y+187300D02*
X+6166516Y+187300D01*
X+6250336Y+187300D02*
X+6268116Y+187300D01*
X+6293516Y+187300D02*
X+6311296Y+187300D01*
X+6405276Y+187300D02*
X+6423056Y+187300D01*
X+6461156Y+187300D02*
X+6478936Y+187300D01*
X+6514496Y+187300D02*
X+6532276Y+187300D01*
X+6585616Y+187300D02*
X+6605936Y+187300D01*
X+6687216Y+187300D02*
X+6717696Y+187300D01*
X+6786276Y+187300D02*
X+6804056Y+187300D01*
X+6831996Y+187300D02*
X+6849776Y+187300D01*
X+6877716Y+187300D02*
X+6892956Y+187300D01*
X+6908196Y+187300D02*
X+6925976Y+187300D01*
X+6072536Y+189840D02*
X+6090316Y+189840D01*
X+6148736Y+189840D02*
X+6166516Y+189840D01*
X+6250336Y+189840D02*
X+6268116Y+189840D01*
X+6293516Y+189840D02*
X+6311296Y+189840D01*
X+6405276Y+189840D02*
X+6423056Y+189840D01*
X+6461156Y+189840D02*
X+6476396Y+189840D01*
X+6514496Y+189840D02*
X+6532276Y+189840D01*
X+6580536Y+189840D02*
X+6603396Y+189840D01*
X+6682136Y+189840D02*
X+6715156Y+189840D01*
X+6786276Y+189840D02*
X+6804056Y+189840D01*
X+6831996Y+189840D02*
X+6849776Y+189840D01*
X+6875176Y+189840D02*
X+6892956Y+189840D01*
X+6908196Y+189840D02*
X+6925976Y+189840D01*
X+6072536Y+192380D02*
X+6090316Y+192380D01*
X+6148736Y+192380D02*
X+6166516Y+192380D01*
X+6250336Y+192380D02*
X+6268116Y+192380D01*
X+6293516Y+192380D02*
X+6311296Y+192380D01*
X+6407816Y+192380D02*
X+6425596Y+192380D01*
X+6458616Y+192380D02*
X+6476396Y+192380D01*
X+6514496Y+192380D02*
X+6532276Y+192380D01*
X+6567836Y+192380D02*
X+6600856Y+192380D01*
X+6677056Y+192380D02*
X+6712616Y+192380D01*
X+6786276Y+192380D02*
X+6804056Y+192380D01*
X+6831996Y+192380D02*
X+6849776Y+192380D01*
X+6875176Y+192380D02*
X+6890416Y+192380D01*
X+6908196Y+192380D02*
X+6925976Y+192380D01*
X+6072536Y+194920D02*
X+6166516Y+194920D01*
X+6250336Y+194920D02*
X+6268116Y+194920D01*
X+6293516Y+194920D02*
X+6311296Y+194920D01*
X+6407816Y+194920D02*
X+6425596Y+194920D01*
X+6458616Y+194920D02*
X+6476396Y+194920D01*
X+6514496Y+194920D02*
X+6598316Y+194920D01*
X+6669436Y+194920D02*
X+6707536Y+194920D01*
X+6786276Y+194920D02*
X+6804056Y+194920D01*
X+6831996Y+194920D02*
X+6849776Y+194920D01*
X+6872636Y+194920D02*
X+6890416Y+194920D01*
X+6908196Y+194920D02*
X+6925976Y+194920D01*
X+6072536Y+197460D02*
X+6166516Y+197460D01*
X+6250336Y+197460D02*
X+6268116Y+197460D01*
X+6293516Y+197460D02*
X+6311296Y+197460D01*
X+6410356Y+197460D02*
X+6425596Y+197460D01*
X+6456076Y+197460D02*
X+6473856Y+197460D01*
X+6514496Y+197460D02*
X+6595776Y+197460D01*
X+6664356Y+197460D02*
X+6702456Y+197460D01*
X+6786276Y+197460D02*
X+6804056Y+197460D01*
X+6831996Y+197460D02*
X+6849776Y+197460D01*
X+6870096Y+197460D02*
X+6887876Y+197460D01*
X+6908196Y+197460D02*
X+6925976Y+197460D01*
X+6072536Y+200000D02*
X+6166516Y+200000D01*
X+6250336Y+200000D02*
X+6268116Y+200000D01*
X+6293516Y+200000D02*
X+6311296Y+200000D01*
X+6410356Y+200000D02*
X+6428136Y+200000D01*
X+6456076Y+200000D02*
X+6473856Y+200000D01*
X+6514496Y+200000D02*
X+6590696Y+200000D01*
X+6659276Y+200000D02*
X+6697376Y+200000D01*
X+6786276Y+200000D02*
X+6804056Y+200000D01*
X+6831996Y+200000D02*
X+6849776Y+200000D01*
X+6870096Y+200000D02*
X+6885336Y+200000D01*
X+6908196Y+200000D02*
X+6925976Y+200000D01*
X+6072536Y+202540D02*
X+6166516Y+202540D01*
X+6250336Y+202540D02*
X+6268116Y+202540D01*
X+6293516Y+202540D02*
X+6311296Y+202540D01*
X+6410356Y+202540D02*
X+6428136Y+202540D01*
X+6456076Y+202540D02*
X+6473856Y+202540D01*
X+6514496Y+202540D02*
X+6590696Y+202540D01*
X+6654196Y+202540D02*
X+6692296Y+202540D01*
X+6786276Y+202540D02*
X+6804056Y+202540D01*
X+6831996Y+202540D02*
X+6849776Y+202540D01*
X+6867556Y+202540D02*
X+6885336Y+202540D01*
X+6908196Y+202540D02*
X+6925976Y+202540D01*
X+6072536Y+205080D02*
X+6166516Y+205080D01*
X+6250336Y+205080D02*
X+6268116Y+205080D01*
X+6293516Y+205080D02*
X+6311296Y+205080D01*
X+6412896Y+205080D02*
X+6430676Y+205080D01*
X+6453536Y+205080D02*
X+6471316Y+205080D01*
X+6514496Y+205080D02*
X+6595776Y+205080D01*
X+6649116Y+205080D02*
X+6684676Y+205080D01*
X+6786276Y+205080D02*
X+6804056Y+205080D01*
X+6831996Y+205080D02*
X+6849776Y+205080D01*
X+6867556Y+205080D02*
X+6882796Y+205080D01*
X+6908196Y+205080D02*
X+6925976Y+205080D01*
X+6072536Y+207620D02*
X+6090316Y+207620D01*
X+6148736Y+207620D02*
X+6166516Y+207620D01*
X+6250336Y+207620D02*
X+6268116Y+207620D01*
X+6293516Y+207620D02*
X+6311296Y+207620D01*
X+6412896Y+207620D02*
X+6430676Y+207620D01*
X+6453536Y+207620D02*
X+6471316Y+207620D01*
X+6514496Y+207620D02*
X+6532276Y+207620D01*
X+6572916Y+207620D02*
X+6598316Y+207620D01*
X+6644036Y+207620D02*
X+6679596Y+207620D01*
X+6786276Y+207620D02*
X+6804056Y+207620D01*
X+6831996Y+207620D02*
X+6849776Y+207620D01*
X+6865016Y+207620D02*
X+6882796Y+207620D01*
X+6908196Y+207620D02*
X+6925976Y+207620D01*
X+6072536Y+210160D02*
X+6090316Y+210160D01*
X+6148736Y+210160D02*
X+6166516Y+210160D01*
X+6250336Y+210160D02*
X+6268116Y+210160D01*
X+6293516Y+210160D02*
X+6311296Y+210160D01*
X+6415436Y+210160D02*
X+6430676Y+210160D01*
X+6453536Y+210160D02*
X+6468776Y+210160D01*
X+6514496Y+210160D02*
X+6532276Y+210160D01*
X+6580536Y+210160D02*
X+6600856Y+210160D01*
X+6641496Y+210160D02*
X+6674516Y+210160D01*
X+6786276Y+210160D02*
X+6804056Y+210160D01*
X+6831996Y+210160D02*
X+6849776Y+210160D01*
X+6862476Y+210160D02*
X+6880256Y+210160D01*
X+6908196Y+210160D02*
X+6925976Y+210160D01*
X+6072536Y+212700D02*
X+6090316Y+212700D01*
X+6148736Y+212700D02*
X+6166516Y+212700D01*
X+6250336Y+212700D02*
X+6268116Y+212700D01*
X+6293516Y+212700D02*
X+6311296Y+212700D01*
X+6415436Y+212700D02*
X+6433216Y+212700D01*
X+6450996Y+212700D02*
X+6468776Y+212700D01*
X+6514496Y+212700D02*
X+6532276Y+212700D01*
X+6583076Y+212700D02*
X+6600856Y+212700D01*
X+6638956Y+212700D02*
X+6669436Y+212700D01*
X+6786276Y+212700D02*
X+6804056Y+212700D01*
X+6831996Y+212700D02*
X+6849776Y+212700D01*
X+6862476Y+212700D02*
X+6877716Y+212700D01*
X+6908196Y+212700D02*
X+6925976Y+212700D01*
X+6072536Y+215240D02*
X+6090316Y+215240D01*
X+6148736Y+215240D02*
X+6166516Y+215240D01*
X+6250336Y+215240D02*
X+6268116Y+215240D01*
X+6293516Y+215240D02*
X+6311296Y+215240D01*
X+6415436Y+215240D02*
X+6433216Y+215240D01*
X+6450996Y+215240D02*
X+6468776Y+215240D01*
X+6514496Y+215240D02*
X+6532276Y+215240D01*
X+6585616Y+215240D02*
X+6603396Y+215240D01*
X+6638956Y+215240D02*
X+6661816Y+215240D01*
X+6786276Y+215240D02*
X+6804056Y+215240D01*
X+6831996Y+215240D02*
X+6849776Y+215240D01*
X+6859936Y+215240D02*
X+6877716Y+215240D01*
X+6908196Y+215240D02*
X+6925976Y+215240D01*
X+6072536Y+217780D02*
X+6090316Y+217780D01*
X+6148736Y+217780D02*
X+6166516Y+217780D01*
X+6250336Y+217780D02*
X+6268116Y+217780D01*
X+6293516Y+217780D02*
X+6311296Y+217780D01*
X+6417976Y+217780D02*
X+6433216Y+217780D01*
X+6448456Y+217780D02*
X+6466236Y+217780D01*
X+6514496Y+217780D02*
X+6532276Y+217780D01*
X+6588156Y+217780D02*
X+6603396Y+217780D01*
X+6636416Y+217780D02*
X+6656736Y+217780D01*
X+6786276Y+217780D02*
X+6804056Y+217780D01*
X+6831996Y+217780D02*
X+6849776Y+217780D01*
X+6859936Y+217780D02*
X+6875176Y+217780D01*
X+6908196Y+217780D02*
X+6925976Y+217780D01*
X+6072536Y+220320D02*
X+6090316Y+220320D01*
X+6148736Y+220320D02*
X+6166516Y+220320D01*
X+6250336Y+220320D02*
X+6268116Y+220320D01*
X+6293516Y+220320D02*
X+6311296Y+220320D01*
X+6417976Y+220320D02*
X+6435756Y+220320D01*
X+6448456Y+220320D02*
X+6466236Y+220320D01*
X+6514496Y+220320D02*
X+6532276Y+220320D01*
X+6588156Y+220320D02*
X+6605936Y+220320D01*
X+6636416Y+220320D02*
X+6654196Y+220320D01*
X+6786276Y+220320D02*
X+6804056Y+220320D01*
X+6831996Y+220320D02*
X+6849776Y+220320D01*
X+6857396Y+220320D02*
X+6875176Y+220320D01*
X+6908196Y+220320D02*
X+6925976Y+220320D01*
X+6072536Y+222860D02*
X+6090316Y+222860D01*
X+6148736Y+222860D02*
X+6166516Y+222860D01*
X+6250336Y+222860D02*
X+6268116Y+222860D01*
X+6293516Y+222860D02*
X+6311296Y+222860D01*
X+6417976Y+222860D02*
X+6435756Y+222860D01*
X+6448456Y+222860D02*
X+6463696Y+222860D01*
X+6514496Y+222860D02*
X+6532276Y+222860D01*
X+6588156Y+222860D02*
X+6605936Y+222860D01*
X+6636416Y+222860D02*
X+6654196Y+222860D01*
X+6786276Y+222860D02*
X+6804056Y+222860D01*
X+6831996Y+222860D02*
X+6849776Y+222860D01*
X+6854856Y+222860D02*
X+6872636Y+222860D01*
X+6908196Y+222860D02*
X+6925976Y+222860D01*
X+6072536Y+225400D02*
X+6090316Y+225400D01*
X+6148736Y+225400D02*
X+6166516Y+225400D01*
X+6250336Y+225400D02*
X+6268116Y+225400D01*
X+6293516Y+225400D02*
X+6311296Y+225400D01*
X+6420516Y+225400D02*
X+6438296Y+225400D01*
X+6445916Y+225400D02*
X+6463696Y+225400D01*
X+6514496Y+225400D02*
X+6532276Y+225400D01*
X+6588156Y+225400D02*
X+6605936Y+225400D01*
X+6636416Y+225400D02*
X+6651656Y+225400D01*
X+6786276Y+225400D02*
X+6804056Y+225400D01*
X+6831996Y+225400D02*
X+6849776Y+225400D01*
X+6854856Y+225400D02*
X+6870096Y+225400D01*
X+6908196Y+225400D02*
X+6925976Y+225400D01*
X+6072536Y+227940D02*
X+6090316Y+227940D01*
X+6148736Y+227940D02*
X+6166516Y+227940D01*
X+6250336Y+227940D02*
X+6268116Y+227940D01*
X+6293516Y+227940D02*
X+6311296Y+227940D01*
X+6420516Y+227940D02*
X+6438296Y+227940D01*
X+6445916Y+227940D02*
X+6463696Y+227940D01*
X+6514496Y+227940D02*
X+6532276Y+227940D01*
X+6588156Y+227940D02*
X+6605936Y+227940D01*
X+6636416Y+227940D02*
X+6651656Y+227940D01*
X+6704996Y+227940D02*
X+6722776Y+227940D01*
X+6786276Y+227940D02*
X+6804056Y+227940D01*
X+6831996Y+227940D02*
X+6849776Y+227940D01*
X+6852316Y+227940D02*
X+6870096Y+227940D01*
X+6908196Y+227940D02*
X+6925976Y+227940D01*
X+6072536Y+230480D02*
X+6090316Y+230480D01*
X+6148736Y+230480D02*
X+6166516Y+230480D01*
X+6250336Y+230480D02*
X+6268116Y+230480D01*
X+6293516Y+230480D02*
X+6311296Y+230480D01*
X+6423056Y+230480D02*
X+6438296Y+230480D01*
X+6443376Y+230480D02*
X+6461156Y+230480D01*
X+6514496Y+230480D02*
X+6532276Y+230480D01*
X+6588156Y+230480D02*
X+6605936Y+230480D01*
X+6636416Y+230480D02*
X+6651656Y+230480D01*
X+6704996Y+230480D02*
X+6720236Y+230480D01*
X+6786276Y+230480D02*
X+6804056Y+230480D01*
X+6831996Y+230480D02*
X+6849776Y+230480D01*
X+6852316Y+230480D02*
X+6867556Y+230480D01*
X+6908196Y+230480D02*
X+6925976Y+230480D01*
X+6072536Y+233020D02*
X+6090316Y+233020D01*
X+6148736Y+233020D02*
X+6166516Y+233020D01*
X+6250336Y+233020D02*
X+6268116Y+233020D01*
X+6293516Y+233020D02*
X+6311296Y+233020D01*
X+6423056Y+233020D02*
X+6440836Y+233020D01*
X+6443376Y+233020D02*
X+6461156Y+233020D01*
X+6514496Y+233020D02*
X+6532276Y+233020D01*
X+6588156Y+233020D02*
X+6605936Y+233020D01*
X+6636416Y+233020D02*
X+6651656Y+233020D01*
X+6704996Y+233020D02*
X+6720236Y+233020D01*
X+6786276Y+233020D02*
X+6804056Y+233020D01*
X+6831996Y+233020D02*
X+6867556Y+233020D01*
X+6908196Y+233020D02*
X+6925976Y+233020D01*
X+6072536Y+235560D02*
X+6090316Y+235560D01*
X+6148736Y+235560D02*
X+6166516Y+235560D01*
X+6250336Y+235560D02*
X+6268116Y+235560D01*
X+6293516Y+235560D02*
X+6311296Y+235560D01*
X+6423056Y+235560D02*
X+6440836Y+235560D01*
X+6443376Y+235560D02*
X+6458616Y+235560D01*
X+6514496Y+235560D02*
X+6532276Y+235560D01*
X+6588156Y+235560D02*
X+6605936Y+235560D01*
X+6636416Y+235560D02*
X+6654196Y+235560D01*
X+6702456Y+235560D02*
X+6720236Y+235560D01*
X+6786276Y+235560D02*
X+6804056Y+235560D01*
X+6831996Y+235560D02*
X+6865016Y+235560D01*
X+6908196Y+235560D02*
X+6925976Y+235560D01*
X+6072536Y+238100D02*
X+6090316Y+238100D01*
X+6148736Y+238100D02*
X+6166516Y+238100D01*
X+6250336Y+238100D02*
X+6268116Y+238100D01*
X+6293516Y+238100D02*
X+6311296Y+238100D01*
X+6425596Y+238100D02*
X+6458616Y+238100D01*
X+6514496Y+238100D02*
X+6532276Y+238100D01*
X+6585616Y+238100D02*
X+6605936Y+238100D01*
X+6636416Y+238100D02*
X+6654196Y+238100D01*
X+6699916Y+238100D02*
X+6720236Y+238100D01*
X+6786276Y+238100D02*
X+6804056Y+238100D01*
X+6831996Y+238100D02*
X+6865016Y+238100D01*
X+6908196Y+238100D02*
X+6925976Y+238100D01*
X+6072536Y+240640D02*
X+6090316Y+240640D01*
X+6148736Y+240640D02*
X+6166516Y+240640D01*
X+6250336Y+240640D02*
X+6268116Y+240640D01*
X+6293516Y+240640D02*
X+6311296Y+240640D01*
X+6425596Y+240640D02*
X+6458616Y+240640D01*
X+6514496Y+240640D02*
X+6532276Y+240640D01*
X+6585616Y+240640D02*
X+6603396Y+240640D01*
X+6638956Y+240640D02*
X+6656736Y+240640D01*
X+6699916Y+240640D02*
X+6717696Y+240640D01*
X+6786276Y+240640D02*
X+6804056Y+240640D01*
X+6831996Y+240640D02*
X+6862476Y+240640D01*
X+6908196Y+240640D02*
X+6925976Y+240640D01*
X+6072536Y+243180D02*
X+6090316Y+243180D01*
X+6148736Y+243180D02*
X+6166516Y+243180D01*
X+6250336Y+243180D02*
X+6268116Y+243180D01*
X+6293516Y+243180D02*
X+6311296Y+243180D01*
X+6428136Y+243180D02*
X+6456076Y+243180D01*
X+6514496Y+243180D02*
X+6532276Y+243180D01*
X+6580536Y+243180D02*
X+6603396Y+243180D01*
X+6638956Y+243180D02*
X+6659276Y+243180D01*
X+6694836Y+243180D02*
X+6717696Y+243180D01*
X+6781196Y+243180D02*
X+6814216Y+243180D01*
X+6831996Y+243180D02*
X+6859936Y+243180D01*
X+6908196Y+243180D02*
X+6925976Y+243180D01*
X+6072536Y+245720D02*
X+6090316Y+245720D01*
X+6148736Y+245720D02*
X+6166516Y+245720D01*
X+6250336Y+245720D02*
X+6268116Y+245720D01*
X+6293516Y+245720D02*
X+6311296Y+245720D01*
X+6428136Y+245720D02*
X+6456076Y+245720D01*
X+6514496Y+245720D02*
X+6600856Y+245720D01*
X+6641496Y+245720D02*
X+6664356Y+245720D01*
X+6689756Y+245720D02*
X+6715156Y+245720D01*
X+6781196Y+245720D02*
X+6814216Y+245720D01*
X+6831996Y+245720D02*
X+6859936Y+245720D01*
X+6908196Y+245720D02*
X+6925976Y+245720D01*
X+6072536Y+248260D02*
X+6090316Y+248260D01*
X+6148736Y+248260D02*
X+6166516Y+248260D01*
X+6250336Y+248260D02*
X+6268116Y+248260D01*
X+6293516Y+248260D02*
X+6311296Y+248260D01*
X+6428136Y+248260D02*
X+6453536Y+248260D01*
X+6514496Y+248260D02*
X+6600856Y+248260D01*
X+6641496Y+248260D02*
X+6712616Y+248260D01*
X+6781196Y+248260D02*
X+6814216Y+248260D01*
X+6831996Y+248260D02*
X+6857396Y+248260D01*
X+6908196Y+248260D02*
X+6925976Y+248260D01*
X+6072536Y+250800D02*
X+6090316Y+250800D01*
X+6148736Y+250800D02*
X+6166516Y+250800D01*
X+6250336Y+250800D02*
X+6268116Y+250800D01*
X+6293516Y+250800D02*
X+6311296Y+250800D01*
X+6430676Y+250800D02*
X+6453536Y+250800D01*
X+6514496Y+250800D02*
X+6598316Y+250800D01*
X+6644036Y+250800D02*
X+6710076Y+250800D01*
X+6781196Y+250800D02*
X+6814216Y+250800D01*
X+6831996Y+250800D02*
X+6857396Y+250800D01*
X+6908196Y+250800D02*
X+6925976Y+250800D01*
X+6072536Y+253340D02*
X+6090316Y+253340D01*
X+6148736Y+253340D02*
X+6166516Y+253340D01*
X+6250336Y+253340D02*
X+6268116Y+253340D01*
X+6293516Y+253340D02*
X+6311296Y+253340D01*
X+6430676Y+253340D02*
X+6453536Y+253340D01*
X+6514496Y+253340D02*
X+6595776Y+253340D01*
X+6646576Y+253340D02*
X+6707536Y+253340D01*
X+6781196Y+253340D02*
X+6814216Y+253340D01*
X+6831996Y+253340D02*
X+6854856Y+253340D01*
X+6908196Y+253340D02*
X+6925976Y+253340D01*
X+6072536Y+255880D02*
X+6090316Y+255880D01*
X+6148736Y+255880D02*
X+6166516Y+255880D01*
X+6250336Y+255880D02*
X+6268116Y+255880D01*
X+6293516Y+255880D02*
X+6311296Y+255880D01*
X+6433216Y+255880D02*
X+6450996Y+255880D01*
X+6514496Y+255880D02*
X+6590696Y+255880D01*
X+6651656Y+255880D02*
X+6704996Y+255880D01*
X+6781196Y+255880D02*
X+6814216Y+255880D01*
X+6831996Y+255880D02*
X+6852316Y+255880D01*
X+6908196Y+255880D02*
X+6925976Y+255880D01*
X+6072536Y+258420D02*
X+6090316Y+258420D01*
X+6148736Y+258420D02*
X+6166516Y+258420D01*
X+6250336Y+258420D02*
X+6268116Y+258420D01*
X+6293516Y+258420D02*
X+6311296Y+258420D01*
X+6433216Y+258420D02*
X+6450996Y+258420D01*
X+6514496Y+258420D02*
X+6585616Y+258420D01*
X+6656736Y+258420D02*
X+6697376Y+258420D01*
X+6781196Y+258420D02*
X+6814216Y+258420D01*
X+6831996Y+258420D02*
X+6852316Y+258420D01*
X+6908196Y+258420D02*
X+6925976Y+258420D01*
X+6433216Y+260960D02*
X+6448456Y+260960D01*
X+6664356Y+260960D02*
X+6689756Y+260960D01*
X+2973696Y+126505D02*
X+2994016Y+126505D01*
X+3057516Y+126505D02*
X+3075296Y+126505D01*
X+3471536Y+126505D02*
X+3489316Y+126505D01*
X+3583296Y+126505D02*
X+3601076Y+126505D01*
X+3646796Y+126505D02*
X+3664576Y+126505D01*
X+3799196Y+126505D02*
X+3811896Y+126505D01*
X+3877936Y+126505D02*
X+3903336Y+126505D01*
X+4337676Y+126505D02*
X+4350376Y+126505D01*
X+4439276Y+126505D02*
X+4451976Y+126505D01*
X+4647556Y+126505D02*
X+4660256Y+126505D01*
X+2973696Y+129045D02*
X+2994016Y+129045D01*
X+3054976Y+129045D02*
X+3075296Y+129045D01*
X+3123556Y+129045D02*
X+3143876Y+129045D01*
X+3174356Y+129045D02*
X+3197216Y+129045D01*
X+3301356Y+129045D02*
X+3321676Y+129045D01*
X+3456296Y+129045D02*
X+3504556Y+129045D01*
X+3580756Y+129045D02*
X+3601076Y+129045D01*
X+3646796Y+129045D02*
X+3664576Y+129045D01*
X+3712836Y+129045D02*
X+3733156Y+129045D01*
X+3786496Y+129045D02*
X+3822056Y+129045D01*
X+3870316Y+129045D02*
X+3910956Y+129045D01*
X+3959216Y+129045D02*
X+3979536Y+129045D01*
X+4030336Y+129045D02*
X+4050656Y+129045D01*
X+4147176Y+129045D02*
X+4236076Y+129045D01*
X+4327516Y+129045D02*
X+4360536Y+129045D01*
X+4429116Y+129045D02*
X+4464676Y+129045D01*
X+4484996Y+129045D02*
X+4505316Y+129045D01*
X+4525636Y+129045D02*
X+4545956Y+129045D01*
X+4637396Y+129045D02*
X+4667876Y+129045D01*
X+4680576Y+129045D02*
X+4700896Y+129045D01*
X+4850756Y+129045D02*
X+4868536Y+129045D01*
X+4982836Y+129045D02*
X+5005696Y+129045D01*
X+2973696Y+131585D02*
X+2994016Y+131585D01*
X+3054976Y+131585D02*
X+3075296Y+131585D01*
X+3123556Y+131585D02*
X+3143876Y+131585D01*
X+3174356Y+131585D02*
X+3197216Y+131585D01*
X+3301356Y+131585D02*
X+3321676Y+131585D01*
X+3448676Y+131585D02*
X+3512176Y+131585D01*
X+3580756Y+131585D02*
X+3601076Y+131585D01*
X+3646796Y+131585D02*
X+3667116Y+131585D01*
X+3712836Y+131585D02*
X+3733156Y+131585D01*
X+3783956Y+131585D02*
X+3827136Y+131585D01*
X+3865236Y+131585D02*
X+3916036Y+131585D01*
X+3959216Y+131585D02*
X+3979536Y+131585D01*
X+4030336Y+131585D02*
X+4050656Y+131585D01*
X+4147176Y+131585D02*
X+4243696Y+131585D01*
X+4319896Y+131585D02*
X+4365616Y+131585D01*
X+4424036Y+131585D02*
X+4469756Y+131585D01*
X+4482456Y+131585D02*
X+4502776Y+131585D01*
X+4525636Y+131585D02*
X+4545956Y+131585D01*
X+4632316Y+131585D02*
X+4672956Y+131585D01*
X+4680576Y+131585D02*
X+4700896Y+131585D01*
X+4848216Y+131585D02*
X+4868536Y+131585D01*
X+4982836Y+131585D02*
X+5005696Y+131585D01*
X+2973696Y+134125D02*
X+2994016Y+134125D01*
X+3054976Y+134125D02*
X+3077836Y+134125D01*
X+3123556Y+134125D02*
X+3143876Y+134125D01*
X+3174356Y+134125D02*
X+3197216Y+134125D01*
X+3301356Y+134125D02*
X+3321676Y+134125D01*
X+3443596Y+134125D02*
X+3517256Y+134125D01*
X+3580756Y+134125D02*
X+3601076Y+134125D01*
X+3644256Y+134125D02*
X+3667116Y+134125D01*
X+3712836Y+134125D02*
X+3733156Y+134125D01*
X+3778876Y+134125D02*
X+3827136Y+134125D01*
X+3862696Y+134125D02*
X+3921116Y+134125D01*
X+3959216Y+134125D02*
X+3979536Y+134125D01*
X+4030336Y+134125D02*
X+4050656Y+134125D01*
X+4147176Y+134125D02*
X+4248776Y+134125D01*
X+4317356Y+134125D02*
X+4370696Y+134125D01*
X+4421496Y+134125D02*
X+4474836Y+134125D01*
X+4482456Y+134125D02*
X+4502776Y+134125D01*
X+4525636Y+134125D02*
X+4545956Y+134125D01*
X+4627236Y+134125D02*
X+4675496Y+134125D01*
X+4680576Y+134125D02*
X+4700896Y+134125D01*
X+4848216Y+134125D02*
X+4868536Y+134125D01*
X+4982836Y+134125D02*
X+5005696Y+134125D01*
X+2971156Y+136665D02*
X+2996556Y+136665D01*
X+3054976Y+136665D02*
X+3077836Y+136665D01*
X+3123556Y+136665D02*
X+3143876Y+136665D01*
X+3174356Y+136665D02*
X+3197216Y+136665D01*
X+3301356Y+136665D02*
X+3321676Y+136665D01*
X+3441056Y+136665D02*
X+3522336Y+136665D01*
X+3578216Y+136665D02*
X+3603616Y+136665D01*
X+3644256Y+136665D02*
X+3667116Y+136665D01*
X+3712836Y+136665D02*
X+3733156Y+136665D01*
X+3776336Y+136665D02*
X+3827136Y+136665D01*
X+3857616Y+136665D02*
X+3923656Y+136665D01*
X+3959216Y+136665D02*
X+3979536Y+136665D01*
X+4030336Y+136665D02*
X+4050656Y+136665D01*
X+4147176Y+136665D02*
X+4251316Y+136665D01*
X+4312276Y+136665D02*
X+4373236Y+136665D01*
X+4418956Y+136665D02*
X+4477376Y+136665D01*
X+4482456Y+136665D02*
X+4500236Y+136665D01*
X+4525636Y+136665D02*
X+4545956Y+136665D01*
X+4624696Y+136665D02*
X+4678036Y+136665D01*
X+4680576Y+136665D02*
X+4700896Y+136665D01*
X+4845676Y+136665D02*
X+4871076Y+136665D01*
X+4982836Y+136665D02*
X+5005696Y+136665D01*
X+2971156Y+139205D02*
X+2996556Y+139205D01*
X+3052436Y+139205D02*
X+3077836Y+139205D01*
X+3123556Y+139205D02*
X+3143876Y+139205D01*
X+3174356Y+139205D02*
X+3197216Y+139205D01*
X+3301356Y+139205D02*
X+3321676Y+139205D01*
X+3438516Y+139205D02*
X+3524876Y+139205D01*
X+3578216Y+139205D02*
X+3603616Y+139205D01*
X+3644256Y+139205D02*
X+3669656Y+139205D01*
X+3712836Y+139205D02*
X+3733156Y+139205D01*
X+3773796Y+139205D02*
X+3827136Y+139205D01*
X+3855076Y+139205D02*
X+3926196Y+139205D01*
X+3959216Y+139205D02*
X+3979536Y+139205D01*
X+4030336Y+139205D02*
X+4050656Y+139205D01*
X+4147176Y+139205D02*
X+4256396Y+139205D01*
X+4309736Y+139205D02*
X+4375776Y+139205D01*
X+4416416Y+139205D02*
X+4479916Y+139205D01*
X+4482456Y+139205D02*
X+4500236Y+139205D01*
X+4525636Y+139205D02*
X+4545956Y+139205D01*
X+4622156Y+139205D02*
X+4700896Y+139205D01*
X+4845676Y+139205D02*
X+4871076Y+139205D01*
X+4982836Y+139205D02*
X+5005696Y+139205D01*
X+2971156Y+141745D02*
X+2996556Y+141745D01*
X+3052436Y+141745D02*
X+3077836Y+141745D01*
X+3123556Y+141745D02*
X+3143876Y+141745D01*
X+3174356Y+141745D02*
X+3197216Y+141745D01*
X+3301356Y+141745D02*
X+3321676Y+141745D01*
X+3433436Y+141745D02*
X+3527416Y+141745D01*
X+3578216Y+141745D02*
X+3603616Y+141745D01*
X+3641716Y+141745D02*
X+3669656Y+141745D01*
X+3712836Y+141745D02*
X+3733156Y+141745D01*
X+3771256Y+141745D02*
X+3827136Y+141745D01*
X+3852536Y+141745D02*
X+3885556Y+141745D01*
X+3890636Y+141745D02*
X+3928736Y+141745D01*
X+3959216Y+141745D02*
X+3979536Y+141745D01*
X+4030336Y+141745D02*
X+4050656Y+141745D01*
X+4147176Y+141745D02*
X+4256396Y+141745D01*
X+4307196Y+141745D02*
X+4378316Y+141745D01*
X+4416416Y+141745D02*
X+4500236Y+141745D01*
X+4525636Y+141745D02*
X+4545956Y+141745D01*
X+4622156Y+141745D02*
X+4700896Y+141745D01*
X+4845676Y+141745D02*
X+4873616Y+141745D01*
X+4982836Y+141745D02*
X+5005696Y+141745D01*
X+2971156Y+144285D02*
X+2996556Y+144285D01*
X+3052436Y+144285D02*
X+3077836Y+144285D01*
X+3123556Y+144285D02*
X+3143876Y+144285D01*
X+3174356Y+144285D02*
X+3197216Y+144285D01*
X+3301356Y+144285D02*
X+3321676Y+144285D01*
X+3430896Y+144285D02*
X+3468996Y+144285D01*
X+3491856Y+144285D02*
X+3529956Y+144285D01*
X+3578216Y+144285D02*
X+3606156Y+144285D01*
X+3641716Y+144285D02*
X+3669656Y+144285D01*
X+3712836Y+144285D02*
X+3733156Y+144285D01*
X+3771256Y+144285D02*
X+3796656Y+144285D01*
X+3816976Y+144285D02*
X+3827136Y+144285D01*
X+3852536Y+144285D02*
X+3877936Y+144285D01*
X+3903336Y+144285D02*
X+3928736Y+144285D01*
X+3959216Y+144285D02*
X+3979536Y+144285D01*
X+4030336Y+144285D02*
X+4050656Y+144285D01*
X+4147176Y+144285D02*
X+4258936Y+144285D01*
X+4304656Y+144285D02*
X+4335136Y+144285D01*
X+4352916Y+144285D02*
X+4380856Y+144285D01*
X+4413876Y+144285D02*
X+4439276Y+144285D01*
X+4459596Y+144285D02*
X+4500236Y+144285D01*
X+4525636Y+144285D02*
X+4545956Y+144285D01*
X+4619616Y+144285D02*
X+4645016Y+144285D01*
X+4662796Y+144285D02*
X+4700896Y+144285D01*
X+4843136Y+144285D02*
X+4873616Y+144285D01*
X+4982836Y+144285D02*
X+5005696Y+144285D01*
X+2971156Y+146825D02*
X+2999096Y+146825D01*
X+3052436Y+146825D02*
X+3080376Y+146825D01*
X+3123556Y+146825D02*
X+3143876Y+146825D01*
X+3174356Y+146825D02*
X+3197216Y+146825D01*
X+3301356Y+146825D02*
X+3321676Y+146825D01*
X+3430896Y+146825D02*
X+3461376Y+146825D01*
X+3499476Y+146825D02*
X+3529956Y+146825D01*
X+3575676Y+146825D02*
X+3606156Y+146825D01*
X+3641716Y+146825D02*
X+3669656Y+146825D01*
X+3712836Y+146825D02*
X+3733156Y+146825D01*
X+3768716Y+146825D02*
X+3791576Y+146825D01*
X+3824596Y+146825D02*
X+3827136Y+146825D01*
X+3849996Y+146825D02*
X+3872856Y+146825D01*
X+3905876Y+146825D02*
X+3931276Y+146825D01*
X+3959216Y+146825D02*
X+3979536Y+146825D01*
X+4030336Y+146825D02*
X+4050656Y+146825D01*
X+4147176Y+146825D02*
X+4170036Y+146825D01*
X+4228456Y+146825D02*
X+4261476Y+146825D01*
X+4304656Y+146825D02*
X+4330056Y+146825D01*
X+4357996Y+146825D02*
X+4383396Y+146825D01*
X+4413876Y+146825D02*
X+4434196Y+146825D01*
X+4467216Y+146825D02*
X+4500236Y+146825D01*
X+4525636Y+146825D02*
X+4545956Y+146825D01*
X+4617076Y+146825D02*
X+4639936Y+146825D01*
X+4667876Y+146825D02*
X+4700896Y+146825D01*
X+4843136Y+146825D02*
X+4873616Y+146825D01*
X+4982836Y+146825D02*
X+5005696Y+146825D01*
X+2968616Y+149365D02*
X+2999096Y+149365D01*
X+3049896Y+149365D02*
X+3080376Y+149365D01*
X+3123556Y+149365D02*
X+3143876Y+149365D01*
X+3174356Y+149365D02*
X+3197216Y+149365D01*
X+3301356Y+149365D02*
X+3321676Y+149365D01*
X+3428356Y+149365D02*
X+3456296Y+149365D01*
X+3504556Y+149365D02*
X+3532496Y+149365D01*
X+3575676Y+149365D02*
X+3606156Y+149365D01*
X+3641716Y+149365D02*
X+3672196Y+149365D01*
X+3712836Y+149365D02*
X+3733156Y+149365D01*
X+3768716Y+149365D02*
X+3791576Y+149365D01*
X+3847456Y+149365D02*
X+3870316Y+149365D01*
X+3908416Y+149365D02*
X+3931276Y+149365D01*
X+3959216Y+149365D02*
X+3979536Y+149365D01*
X+4030336Y+149365D02*
X+4050656Y+149365D01*
X+4147176Y+149365D02*
X+4170036Y+149365D01*
X+4233536Y+149365D02*
X+4264016Y+149365D01*
X+4302116Y+149365D02*
X+4324976Y+149365D01*
X+4360536Y+149365D02*
X+4385936Y+149365D01*
X+4411336Y+149365D02*
X+4434196Y+149365D01*
X+4469756Y+149365D02*
X+4500236Y+149365D01*
X+4525636Y+149365D02*
X+4545956Y+149365D01*
X+4614536Y+149365D02*
X+4637396Y+149365D01*
X+4672956Y+149365D02*
X+4700896Y+149365D01*
X+4840596Y+149365D02*
X+4876156Y+149365D01*
X+4982836Y+149365D02*
X+5005696Y+149365D01*
X+2968616Y+151905D02*
X+2999096Y+151905D01*
X+3049896Y+151905D02*
X+3080376Y+151905D01*
X+3123556Y+151905D02*
X+3143876Y+151905D01*
X+3174356Y+151905D02*
X+3197216Y+151905D01*
X+3301356Y+151905D02*
X+3321676Y+151905D01*
X+3425816Y+151905D02*
X+3451216Y+151905D01*
X+3509636Y+151905D02*
X+3532496Y+151905D01*
X+3575676Y+151905D02*
X+3606156Y+151905D01*
X+3639176Y+151905D02*
X+3672196Y+151905D01*
X+3712836Y+151905D02*
X+3733156Y+151905D01*
X+3768716Y+151905D02*
X+3789036Y+151905D01*
X+3847456Y+151905D02*
X+3867776Y+151905D01*
X+3910956Y+151905D02*
X+3933816Y+151905D01*
X+3959216Y+151905D02*
X+3979536Y+151905D01*
X+4030336Y+151905D02*
X+4050656Y+151905D01*
X+4147176Y+151905D02*
X+4170036Y+151905D01*
X+4238616Y+151905D02*
X+4264016Y+151905D01*
X+4299576Y+151905D02*
X+4322436Y+151905D01*
X+4363076Y+151905D02*
X+4385936Y+151905D01*
X+4411336Y+151905D02*
X+4431656Y+151905D01*
X+4472296Y+151905D02*
X+4500236Y+151905D01*
X+4525636Y+151905D02*
X+4545956Y+151905D01*
X+4614536Y+151905D02*
X+4637396Y+151905D01*
X+4675496Y+151905D02*
X+4700896Y+151905D01*
X+4840596Y+151905D02*
X+4876156Y+151905D01*
X+4982836Y+151905D02*
X+5005696Y+151905D01*
X+2968616Y+154445D02*
X+2999096Y+154445D01*
X+3049896Y+154445D02*
X+3080376Y+154445D01*
X+3123556Y+154445D02*
X+3143876Y+154445D01*
X+3174356Y+154445D02*
X+3197216Y+154445D01*
X+3301356Y+154445D02*
X+3321676Y+154445D01*
X+3425816Y+154445D02*
X+3448676Y+154445D01*
X+3512176Y+154445D02*
X+3535036Y+154445D01*
X+3573136Y+154445D02*
X+3608696Y+154445D01*
X+3639176Y+154445D02*
X+3654416Y+154445D01*
X+3656956Y+154445D02*
X+3672196Y+154445D01*
X+3712836Y+154445D02*
X+3733156Y+154445D01*
X+3768716Y+154445D02*
X+3789036Y+154445D01*
X+3844916Y+154445D02*
X+3865236Y+154445D01*
X+3913496Y+154445D02*
X+3933816Y+154445D01*
X+3959216Y+154445D02*
X+3979536Y+154445D01*
X+4030336Y+154445D02*
X+4050656Y+154445D01*
X+4147176Y+154445D02*
X+4170036Y+154445D01*
X+4241156Y+154445D02*
X+4266556Y+154445D01*
X+4299576Y+154445D02*
X+4322436Y+154445D01*
X+4365616Y+154445D02*
X+4388476Y+154445D01*
X+4411336Y+154445D02*
X+4431656Y+154445D01*
X+4474836Y+154445D02*
X+4500236Y+154445D01*
X+4525636Y+154445D02*
X+4545956Y+154445D01*
X+4614536Y+154445D02*
X+4634856Y+154445D01*
X+4675496Y+154445D02*
X+4700896Y+154445D01*
X+4840596Y+154445D02*
X+4878696Y+154445D01*
X+4982836Y+154445D02*
X+5005696Y+154445D01*
X+2968616Y+156985D02*
X+3001636Y+156985D01*
X+3049896Y+156985D02*
X+3082916Y+156985D01*
X+3123556Y+156985D02*
X+3143876Y+156985D01*
X+3174356Y+156985D02*
X+3197216Y+156985D01*
X+3301356Y+156985D02*
X+3321676Y+156985D01*
X+3425816Y+156985D02*
X+3446136Y+156985D01*
X+3512176Y+156985D02*
X+3535036Y+156985D01*
X+3573136Y+156985D02*
X+3590916Y+156985D01*
X+3593456Y+156985D02*
X+3608696Y+156985D01*
X+3639176Y+156985D02*
X+3654416Y+156985D01*
X+3656956Y+156985D02*
X+3674736Y+156985D01*
X+3712836Y+156985D02*
X+3733156Y+156985D01*
X+3768716Y+156985D02*
X+3789036Y+156985D01*
X+3844916Y+156985D02*
X+3865236Y+156985D01*
X+3913496Y+156985D02*
X+3933816Y+156985D01*
X+3959216Y+156985D02*
X+3979536Y+156985D01*
X+4030336Y+156985D02*
X+4050656Y+156985D01*
X+4147176Y+156985D02*
X+4170036Y+156985D01*
X+4241156Y+156985D02*
X+4266556Y+156985D01*
X+4299576Y+156985D02*
X+4319896Y+156985D01*
X+4368156Y+156985D02*
X+4388476Y+156985D01*
X+4411336Y+156985D02*
X+4431656Y+156985D01*
X+4477376Y+156985D02*
X+4500236Y+156985D01*
X+4525636Y+156985D02*
X+4545956Y+156985D01*
X+4611996Y+156985D02*
X+4632316Y+156985D01*
X+4678036Y+156985D02*
X+4700896Y+156985D01*
X+4838056Y+156985D02*
X+4878696Y+156985D01*
X+4982836Y+156985D02*
X+5005696Y+156985D01*
X+2966076Y+159525D02*
X+3001636Y+159525D01*
X+3047356Y+159525D02*
X+3082916Y+159525D01*
X+3123556Y+159525D02*
X+3143876Y+159525D01*
X+3174356Y+159525D02*
X+3197216Y+159525D01*
X+3301356Y+159525D02*
X+3321676Y+159525D01*
X+3423276Y+159525D02*
X+3446136Y+159525D01*
X+3514716Y+159525D02*
X+3535036Y+159525D01*
X+3573136Y+159525D02*
X+3590916Y+159525D01*
X+3593456Y+159525D02*
X+3608696Y+159525D01*
X+3636636Y+159525D02*
X+3654416Y+159525D01*
X+3656956Y+159525D02*
X+3674736Y+159525D01*
X+3712836Y+159525D02*
X+3733156Y+159525D01*
X+3768716Y+159525D02*
X+3789036Y+159525D01*
X+3842376Y+159525D02*
X+3862696Y+159525D01*
X+3916036Y+159525D02*
X+3936356Y+159525D01*
X+3959216Y+159525D02*
X+3979536Y+159525D01*
X+4030336Y+159525D02*
X+4050656Y+159525D01*
X+4147176Y+159525D02*
X+4170036Y+159525D01*
X+4243696Y+159525D02*
X+4266556Y+159525D01*
X+4297036Y+159525D02*
X+4317356Y+159525D01*
X+4368156Y+159525D02*
X+4391016Y+159525D01*
X+4411336Y+159525D02*
X+4431656Y+159525D01*
X+4477376Y+159525D02*
X+4500236Y+159525D01*
X+4525636Y+159525D02*
X+4545956Y+159525D01*
X+4611996Y+159525D02*
X+4632316Y+159525D01*
X+4678036Y+159525D02*
X+4700896Y+159525D01*
X+4838056Y+159525D02*
X+4878696Y+159525D01*
X+4982836Y+159525D02*
X+5005696Y+159525D01*
X+2966076Y+162065D02*
X+3001636Y+162065D01*
X+3047356Y+162065D02*
X+3082916Y+162065D01*
X+3123556Y+162065D02*
X+3143876Y+162065D01*
X+3174356Y+162065D02*
X+3197216Y+162065D01*
X+3301356Y+162065D02*
X+3321676Y+162065D01*
X+3423276Y+162065D02*
X+3446136Y+162065D01*
X+3514716Y+162065D02*
X+3537576Y+162065D01*
X+3570596Y+162065D02*
X+3588376Y+162065D01*
X+3593456Y+162065D02*
X+3611236Y+162065D01*
X+3636636Y+162065D02*
X+3651876Y+162065D01*
X+3656956Y+162065D02*
X+3674736Y+162065D01*
X+3712836Y+162065D02*
X+3733156Y+162065D01*
X+3768716Y+162065D02*
X+3789036Y+162065D01*
X+3842376Y+162065D02*
X+3862696Y+162065D01*
X+3916036Y+162065D02*
X+3936356Y+162065D01*
X+3959216Y+162065D02*
X+3979536Y+162065D01*
X+4030336Y+162065D02*
X+4050656Y+162065D01*
X+4147176Y+162065D02*
X+4170036Y+162065D01*
X+4243696Y+162065D02*
X+4266556Y+162065D01*
X+4297036Y+162065D02*
X+4317356Y+162065D01*
X+4370696Y+162065D02*
X+4391016Y+162065D01*
X+4413876Y+162065D02*
X+4434196Y+162065D01*
X+4479916Y+162065D02*
X+4500236Y+162065D01*
X+4525636Y+162065D02*
X+4545956Y+162065D01*
X+4611996Y+162065D02*
X+4629776Y+162065D01*
X+4680576Y+162065D02*
X+4700896Y+162065D01*
X+4835516Y+162065D02*
X+4858376Y+162065D01*
X+4860916Y+162065D02*
X+4881236Y+162065D01*
X+4982836Y+162065D02*
X+5005696Y+162065D01*
X+2966076Y+164605D02*
X+3001636Y+164605D01*
X+3047356Y+164605D02*
X+3082916Y+164605D01*
X+3123556Y+164605D02*
X+3143876Y+164605D01*
X+3174356Y+164605D02*
X+3197216Y+164605D01*
X+3301356Y+164605D02*
X+3321676Y+164605D01*
X+3423276Y+164605D02*
X+3443596Y+164605D01*
X+3517256Y+164605D02*
X+3537576Y+164605D01*
X+3570596Y+164605D02*
X+3588376Y+164605D01*
X+3593456Y+164605D02*
X+3611236Y+164605D01*
X+3636636Y+164605D02*
X+3651876Y+164605D01*
X+3659496Y+164605D02*
X+3677276Y+164605D01*
X+3712836Y+164605D02*
X+3733156Y+164605D01*
X+3768716Y+164605D02*
X+3789036Y+164605D01*
X+3842376Y+164605D02*
X+3862696Y+164605D01*
X+3916036Y+164605D02*
X+3936356Y+164605D01*
X+3959216Y+164605D02*
X+3979536Y+164605D01*
X+4030336Y+164605D02*
X+4050656Y+164605D01*
X+4147176Y+164605D02*
X+4170036Y+164605D01*
X+4246236Y+164605D02*
X+4269096Y+164605D01*
X+4297036Y+164605D02*
X+4317356Y+164605D01*
X+4370696Y+164605D02*
X+4391016Y+164605D01*
X+4413876Y+164605D02*
X+4434196Y+164605D01*
X+4479916Y+164605D02*
X+4500236Y+164605D01*
X+4525636Y+164605D02*
X+4545956Y+164605D01*
X+4609456Y+164605D02*
X+4629776Y+164605D01*
X+4680576Y+164605D02*
X+4700896Y+164605D01*
X+4835516Y+164605D02*
X+4855836Y+164605D01*
X+4860916Y+164605D02*
X+4881236Y+164605D01*
X+4982836Y+164605D02*
X+5005696Y+164605D01*
X+2966076Y+167145D02*
X+3004176Y+167145D01*
X+3047356Y+167145D02*
X+3082916Y+167145D01*
X+3123556Y+167145D02*
X+3143876Y+167145D01*
X+3174356Y+167145D02*
X+3197216Y+167145D01*
X+3301356Y+167145D02*
X+3321676Y+167145D01*
X+3423276Y+167145D02*
X+3443596Y+167145D01*
X+3517256Y+167145D02*
X+3537576Y+167145D01*
X+3570596Y+167145D02*
X+3588376Y+167145D01*
X+3595996Y+167145D02*
X+3611236Y+167145D01*
X+3636636Y+167145D02*
X+3651876Y+167145D01*
X+3659496Y+167145D02*
X+3677276Y+167145D01*
X+3712836Y+167145D02*
X+3733156Y+167145D01*
X+3768716Y+167145D02*
X+3789036Y+167145D01*
X+3842376Y+167145D02*
X+3862696Y+167145D01*
X+3916036Y+167145D02*
X+3936356Y+167145D01*
X+3959216Y+167145D02*
X+3979536Y+167145D01*
X+4030336Y+167145D02*
X+4050656Y+167145D01*
X+4147176Y+167145D02*
X+4170036Y+167145D01*
X+4246236Y+167145D02*
X+4269096Y+167145D01*
X+4294496Y+167145D02*
X+4314816Y+167145D01*
X+4370696Y+167145D02*
X+4391016Y+167145D01*
X+4413876Y+167145D02*
X+4436736Y+167145D01*
X+4479916Y+167145D02*
X+4500236Y+167145D01*
X+4525636Y+167145D02*
X+4545956Y+167145D01*
X+4609456Y+167145D02*
X+4629776Y+167145D01*
X+4680576Y+167145D02*
X+4700896Y+167145D01*
X+4835516Y+167145D02*
X+4855836Y+167145D01*
X+4860916Y+167145D02*
X+4883776Y+167145D01*
X+4982836Y+167145D02*
X+5005696Y+167145D01*
X+2966076Y+169685D02*
X+3004176Y+169685D01*
X+3044816Y+169685D02*
X+3085456Y+169685D01*
X+3123556Y+169685D02*
X+3143876Y+169685D01*
X+3174356Y+169685D02*
X+3197216Y+169685D01*
X+3301356Y+169685D02*
X+3321676Y+169685D01*
X+3423276Y+169685D02*
X+3443596Y+169685D01*
X+3517256Y+169685D02*
X+3537576Y+169685D01*
X+3570596Y+169685D02*
X+3588376Y+169685D01*
X+3595996Y+169685D02*
X+3611236Y+169685D01*
X+3634096Y+169685D02*
X+3651876Y+169685D01*
X+3659496Y+169685D02*
X+3677276Y+169685D01*
X+3712836Y+169685D02*
X+3733156Y+169685D01*
X+3768716Y+169685D02*
X+3789036Y+169685D01*
X+3842376Y+169685D02*
X+3860156Y+169685D01*
X+3959216Y+169685D02*
X+3979536Y+169685D01*
X+4030336Y+169685D02*
X+4050656Y+169685D01*
X+4147176Y+169685D02*
X+4170036Y+169685D01*
X+4246236Y+169685D02*
X+4269096Y+169685D01*
X+4294496Y+169685D02*
X+4314816Y+169685D01*
X+4373236Y+169685D02*
X+4393556Y+169685D01*
X+4416416Y+169685D02*
X+4441816Y+169685D01*
X+4479916Y+169685D02*
X+4500236Y+169685D01*
X+4525636Y+169685D02*
X+4545956Y+169685D01*
X+4609456Y+169685D02*
X+4629776Y+169685D01*
X+4683116Y+169685D02*
X+4700896Y+169685D01*
X+4832976Y+169685D02*
X+4853296Y+169685D01*
X+4863456Y+169685D02*
X+4883776Y+169685D01*
X+4982836Y+169685D02*
X+5005696Y+169685D01*
X+2963536Y+172225D02*
X+2983856Y+172225D01*
X+2986396Y+172225D02*
X+3004176Y+172225D01*
X+3044816Y+172225D02*
X+3085456Y+172225D01*
X+3123556Y+172225D02*
X+3143876Y+172225D01*
X+3174356Y+172225D02*
X+3197216Y+172225D01*
X+3301356Y+172225D02*
X+3321676Y+172225D01*
X+3420736Y+172225D02*
X+3443596Y+172225D01*
X+3517256Y+172225D02*
X+3537576Y+172225D01*
X+3568056Y+172225D02*
X+3585836Y+172225D01*
X+3595996Y+172225D02*
X+3613776Y+172225D01*
X+3634096Y+172225D02*
X+3649336Y+172225D01*
X+3659496Y+172225D02*
X+3677276Y+172225D01*
X+3712836Y+172225D02*
X+3733156Y+172225D01*
X+3768716Y+172225D02*
X+3789036Y+172225D01*
X+3839836Y+172225D02*
X+3860156Y+172225D01*
X+3959216Y+172225D02*
X+3979536Y+172225D01*
X+4030336Y+172225D02*
X+4050656Y+172225D01*
X+4147176Y+172225D02*
X+4170036Y+172225D01*
X+4246236Y+172225D02*
X+4269096Y+172225D01*
X+4294496Y+172225D02*
X+4314816Y+172225D01*
X+4373236Y+172225D02*
X+4393556Y+172225D01*
X+4416416Y+172225D02*
X+4449436Y+172225D01*
X+4479916Y+172225D02*
X+4500236Y+172225D01*
X+4525636Y+172225D02*
X+4545956Y+172225D01*
X+4609456Y+172225D02*
X+4629776Y+172225D01*
X+4683116Y+172225D02*
X+4700896Y+172225D01*
X+4832976Y+172225D02*
X+4853296Y+172225D01*
X+4863456Y+172225D02*
X+4883776Y+172225D01*
X+4982836Y+172225D02*
X+5005696Y+172225D01*
X+2963536Y+174765D02*
X+2983856Y+174765D01*
X+2986396Y+174765D02*
X+3004176Y+174765D01*
X+3044816Y+174765D02*
X+3062596Y+174765D01*
X+3067676Y+174765D02*
X+3085456Y+174765D01*
X+3123556Y+174765D02*
X+3143876Y+174765D01*
X+3174356Y+174765D02*
X+3197216Y+174765D01*
X+3301356Y+174765D02*
X+3321676Y+174765D01*
X+3420736Y+174765D02*
X+3443596Y+174765D01*
X+3514716Y+174765D02*
X+3537576Y+174765D01*
X+3568056Y+174765D02*
X+3585836Y+174765D01*
X+3598536Y+174765D02*
X+3613776Y+174765D01*
X+3634096Y+174765D02*
X+3649336Y+174765D01*
X+3662036Y+174765D02*
X+3679816Y+174765D01*
X+3712836Y+174765D02*
X+3733156Y+174765D01*
X+3768716Y+174765D02*
X+3789036Y+174765D01*
X+3839836Y+174765D02*
X+3860156Y+174765D01*
X+3959216Y+174765D02*
X+3979536Y+174765D01*
X+4030336Y+174765D02*
X+4050656Y+174765D01*
X+4147176Y+174765D02*
X+4170036Y+174765D01*
X+4246236Y+174765D02*
X+4269096Y+174765D01*
X+4294496Y+174765D02*
X+4314816Y+174765D01*
X+4373236Y+174765D02*
X+4393556Y+174765D01*
X+4418956Y+174765D02*
X+4459596Y+174765D01*
X+4479916Y+174765D02*
X+4500236Y+174765D01*
X+4525636Y+174765D02*
X+4545956Y+174765D01*
X+4609456Y+174765D02*
X+4629776Y+174765D01*
X+4683116Y+174765D02*
X+4700896Y+174765D01*
X+4830436Y+174765D02*
X+4853296Y+174765D01*
X+4865996Y+174765D02*
X+4886316Y+174765D01*
X+4982836Y+174765D02*
X+5005696Y+174765D01*
X+2963536Y+177305D02*
X+2983856Y+177305D01*
X+2986396Y+177305D02*
X+3006716Y+177305D01*
X+3044816Y+177305D02*
X+3062596Y+177305D01*
X+3067676Y+177305D02*
X+3085456Y+177305D01*
X+3123556Y+177305D02*
X+3143876Y+177305D01*
X+3174356Y+177305D02*
X+3197216Y+177305D01*
X+3301356Y+177305D02*
X+3321676Y+177305D01*
X+3514716Y+177305D02*
X+3537576Y+177305D01*
X+3568056Y+177305D02*
X+3585836Y+177305D01*
X+3598536Y+177305D02*
X+3613776Y+177305D01*
X+3631556Y+177305D02*
X+3649336Y+177305D01*
X+3662036Y+177305D02*
X+3679816Y+177305D01*
X+3712836Y+177305D02*
X+3733156Y+177305D01*
X+3768716Y+177305D02*
X+3789036Y+177305D01*
X+3839836Y+177305D02*
X+3860156Y+177305D01*
X+3959216Y+177305D02*
X+3979536Y+177305D01*
X+4030336Y+177305D02*
X+4050656Y+177305D01*
X+4147176Y+177305D02*
X+4170036Y+177305D01*
X+4246236Y+177305D02*
X+4269096Y+177305D01*
X+4294496Y+177305D02*
X+4314816Y+177305D01*
X+4373236Y+177305D02*
X+4393556Y+177305D01*
X+4421496Y+177305D02*
X+4472296Y+177305D01*
X+4479916Y+177305D02*
X+4500236Y+177305D01*
X+4525636Y+177305D02*
X+4545956Y+177305D01*
X+4609456Y+177305D02*
X+4629776Y+177305D01*
X+4683116Y+177305D02*
X+4700896Y+177305D01*
X+4830436Y+177305D02*
X+4850756Y+177305D01*
X+4865996Y+177305D02*
X+4886316Y+177305D01*
X+4982836Y+177305D02*
X+5005696Y+177305D01*
X+2963536Y+179845D02*
X+2981316Y+179845D01*
X+2988936Y+179845D02*
X+3006716Y+179845D01*
X+3042276Y+179845D02*
X+3062596Y+179845D01*
X+3067676Y+179845D02*
X+3087996Y+179845D01*
X+3123556Y+179845D02*
X+3143876Y+179845D01*
X+3174356Y+179845D02*
X+3197216Y+179845D01*
X+3301356Y+179845D02*
X+3321676Y+179845D01*
X+3512176Y+179845D02*
X+3537576Y+179845D01*
X+3565516Y+179845D02*
X+3583296Y+179845D01*
X+3598536Y+179845D02*
X+3616316Y+179845D01*
X+3631556Y+179845D02*
X+3646796Y+179845D01*
X+3662036Y+179845D02*
X+3679816Y+179845D01*
X+3712836Y+179845D02*
X+3733156Y+179845D01*
X+3768716Y+179845D02*
X+3789036Y+179845D01*
X+3839836Y+179845D02*
X+3860156Y+179845D01*
X+3959216Y+179845D02*
X+3979536Y+179845D01*
X+4030336Y+179845D02*
X+4050656Y+179845D01*
X+4147176Y+179845D02*
X+4170036Y+179845D01*
X+4246236Y+179845D02*
X+4269096Y+179845D01*
X+4294496Y+179845D02*
X+4314816Y+179845D01*
X+4373236Y+179845D02*
X+4393556Y+179845D01*
X+4426576Y+179845D02*
X+4500236Y+179845D01*
X+4525636Y+179845D02*
X+4545956Y+179845D01*
X+4609456Y+179845D02*
X+4629776Y+179845D01*
X+4683116Y+179845D02*
X+4700896Y+179845D01*
X+4830436Y+179845D02*
X+4850756Y+179845D01*
X+4865996Y+179845D02*
X+4888856Y+179845D01*
X+4982836Y+179845D02*
X+5005696Y+179845D01*
X+2963536Y+182385D02*
X+2981316Y+182385D01*
X+2988936Y+182385D02*
X+3006716Y+182385D01*
X+3042276Y+182385D02*
X+3060056Y+182385D01*
X+3067676Y+182385D02*
X+3087996Y+182385D01*
X+3123556Y+182385D02*
X+3143876Y+182385D01*
X+3174356Y+182385D02*
X+3197216Y+182385D01*
X+3301356Y+182385D02*
X+3321676Y+182385D01*
X+3509636Y+182385D02*
X+3535036Y+182385D01*
X+3565516Y+182385D02*
X+3583296Y+182385D01*
X+3598536Y+182385D02*
X+3616316Y+182385D01*
X+3631556Y+182385D02*
X+3646796Y+182385D01*
X+3664576Y+182385D02*
X+3682356Y+182385D01*
X+3712836Y+182385D02*
X+3733156Y+182385D01*
X+3768716Y+182385D02*
X+3789036Y+182385D01*
X+3839836Y+182385D02*
X+3860156Y+182385D01*
X+3959216Y+182385D02*
X+3979536Y+182385D01*
X+4030336Y+182385D02*
X+4050656Y+182385D01*
X+4147176Y+182385D02*
X+4170036Y+182385D01*
X+4246236Y+182385D02*
X+4266556Y+182385D01*
X+4294496Y+182385D02*
X+4314816Y+182385D01*
X+4373236Y+182385D02*
X+4393556Y+182385D01*
X+4429116Y+182385D02*
X+4500236Y+182385D01*
X+4525636Y+182385D02*
X+4548496Y+182385D01*
X+4609456Y+182385D02*
X+4629776Y+182385D01*
X+4683116Y+182385D02*
X+4700896Y+182385D01*
X+4827896Y+182385D02*
X+4848216Y+182385D01*
X+4868536Y+182385D02*
X+4888856Y+182385D01*
X+4982836Y+182385D02*
X+5005696Y+182385D01*
X+2960996Y+184925D02*
X+2981316Y+184925D01*
X+2988936Y+184925D02*
X+3006716Y+184925D01*
X+3042276Y+184925D02*
X+3060056Y+184925D01*
X+3067676Y+184925D02*
X+3087996Y+184925D01*
X+3123556Y+184925D02*
X+3143876Y+184925D01*
X+3174356Y+184925D02*
X+3197216Y+184925D01*
X+3301356Y+184925D02*
X+3321676Y+184925D01*
X+3507096Y+184925D02*
X+3535036Y+184925D01*
X+3565516Y+184925D02*
X+3583296Y+184925D01*
X+3601076Y+184925D02*
X+3616316Y+184925D01*
X+3631556Y+184925D02*
X+3646796Y+184925D01*
X+3664576Y+184925D02*
X+3682356Y+184925D01*
X+3712836Y+184925D02*
X+3733156Y+184925D01*
X+3768716Y+184925D02*
X+3789036Y+184925D01*
X+3839836Y+184925D02*
X+3860156Y+184925D01*
X+3959216Y+184925D02*
X+3979536Y+184925D01*
X+4030336Y+184925D02*
X+4050656Y+184925D01*
X+4147176Y+184925D02*
X+4170036Y+184925D01*
X+4243696Y+184925D02*
X+4266556Y+184925D01*
X+4294496Y+184925D02*
X+4314816Y+184925D01*
X+4373236Y+184925D02*
X+4393556Y+184925D01*
X+4436736Y+184925D02*
X+4500236Y+184925D01*
X+4525636Y+184925D02*
X+4548496Y+184925D01*
X+4609456Y+184925D02*
X+4629776Y+184925D01*
X+4683116Y+184925D02*
X+4700896Y+184925D01*
X+4827896Y+184925D02*
X+4848216Y+184925D01*
X+4868536Y+184925D02*
X+4888856Y+184925D01*
X+4982836Y+184925D02*
X+5005696Y+184925D01*
X+2960996Y+187465D02*
X+2981316Y+187465D01*
X+2988936Y+187465D02*
X+3009256Y+187465D01*
X+3042276Y+187465D02*
X+3060056Y+187465D01*
X+3070216Y+187465D02*
X+3087996Y+187465D01*
X+3123556Y+187465D02*
X+3143876Y+187465D01*
X+3174356Y+187465D02*
X+3197216Y+187465D01*
X+3301356Y+187465D02*
X+3321676Y+187465D01*
X+3502016Y+187465D02*
X+3532496Y+187465D01*
X+3562976Y+187465D02*
X+3583296Y+187465D01*
X+3601076Y+187465D02*
X+3616316Y+187465D01*
X+3629016Y+187465D02*
X+3646796Y+187465D01*
X+3664576Y+187465D02*
X+3682356Y+187465D01*
X+3712836Y+187465D02*
X+3733156Y+187465D01*
X+3768716Y+187465D02*
X+3789036Y+187465D01*
X+3842376Y+187465D02*
X+3862696Y+187465D01*
X+3959216Y+187465D02*
X+3979536Y+187465D01*
X+4030336Y+187465D02*
X+4050656Y+187465D01*
X+4147176Y+187465D02*
X+4170036Y+187465D01*
X+4243696Y+187465D02*
X+4266556Y+187465D01*
X+4294496Y+187465D02*
X+4314816Y+187465D01*
X+4373236Y+187465D02*
X+4393556Y+187465D01*
X+4446896Y+187465D02*
X+4500236Y+187465D01*
X+4525636Y+187465D02*
X+4551036Y+187465D01*
X+4609456Y+187465D02*
X+4629776Y+187465D01*
X+4683116Y+187465D02*
X+4700896Y+187465D01*
X+4827896Y+187465D02*
X+4848216Y+187465D01*
X+4871076Y+187465D02*
X+4891396Y+187465D01*
X+4982836Y+187465D02*
X+5005696Y+187465D01*
X+2960996Y+190005D02*
X+2978776Y+190005D01*
X+2991476Y+190005D02*
X+3009256Y+190005D01*
X+3039736Y+190005D02*
X+3060056Y+190005D01*
X+3070216Y+190005D02*
X+3087996Y+190005D01*
X+3123556Y+190005D02*
X+3143876Y+190005D01*
X+3174356Y+190005D02*
X+3197216Y+190005D01*
X+3301356Y+190005D02*
X+3321676Y+190005D01*
X+3496936Y+190005D02*
X+3532496Y+190005D01*
X+3562976Y+190005D02*
X+3580756Y+190005D01*
X+3601076Y+190005D02*
X+3618856Y+190005D01*
X+3629016Y+190005D02*
X+3644256Y+190005D01*
X+3664576Y+190005D02*
X+3682356Y+190005D01*
X+3712836Y+190005D02*
X+3733156Y+190005D01*
X+3768716Y+190005D02*
X+3789036Y+190005D01*
X+3842376Y+190005D02*
X+3862696Y+190005D01*
X+3959216Y+190005D02*
X+3982076Y+190005D01*
X+4030336Y+190005D02*
X+4050656Y+190005D01*
X+4147176Y+190005D02*
X+4170036Y+190005D01*
X+4241156Y+190005D02*
X+4264016Y+190005D01*
X+4294496Y+190005D02*
X+4314816Y+190005D01*
X+4370696Y+190005D02*
X+4391016Y+190005D01*
X+4459596Y+190005D02*
X+4500236Y+190005D01*
X+4525636Y+190005D02*
X+4551036Y+190005D01*
X+4609456Y+190005D02*
X+4629776Y+190005D01*
X+4680576Y+190005D02*
X+4700896Y+190005D01*
X+4825356Y+190005D02*
X+4845676Y+190005D01*
X+4871076Y+190005D02*
X+4891396Y+190005D01*
X+4982836Y+190005D02*
X+5005696Y+190005D01*
X+2960996Y+192545D02*
X+2978776Y+192545D01*
X+2991476Y+192545D02*
X+3009256Y+192545D01*
X+3039736Y+192545D02*
X+3057516Y+192545D01*
X+3070216Y+192545D02*
X+3090536Y+192545D01*
X+3123556Y+192545D02*
X+3143876Y+192545D01*
X+3174356Y+192545D02*
X+3197216Y+192545D01*
X+3301356Y+192545D02*
X+3321676Y+192545D01*
X+3491856Y+192545D02*
X+3529956Y+192545D01*
X+3562976Y+192545D02*
X+3580756Y+192545D01*
X+3603616Y+192545D02*
X+3618856Y+192545D01*
X+3629016Y+192545D02*
X+3644256Y+192545D01*
X+3667116Y+192545D02*
X+3684896Y+192545D01*
X+3712836Y+192545D02*
X+3733156Y+192545D01*
X+3768716Y+192545D02*
X+3789036Y+192545D01*
X+3842376Y+192545D02*
X+3862696Y+192545D01*
X+3959216Y+192545D02*
X+3982076Y+192545D01*
X+4030336Y+192545D02*
X+4050656Y+192545D01*
X+4147176Y+192545D02*
X+4170036Y+192545D01*
X+4238616Y+192545D02*
X+4264016Y+192545D01*
X+4294496Y+192545D02*
X+4317356Y+192545D01*
X+4370696Y+192545D02*
X+4391016Y+192545D01*
X+4467216Y+192545D02*
X+4500236Y+192545D01*
X+4525636Y+192545D02*
X+4553576Y+192545D01*
X+4609456Y+192545D02*
X+4629776Y+192545D01*
X+4680576Y+192545D02*
X+4700896Y+192545D01*
X+4825356Y+192545D02*
X+4845676Y+192545D01*
X+4871076Y+192545D02*
X+4891396Y+192545D01*
X+4982836Y+192545D02*
X+5005696Y+192545D01*
X+2958456Y+195085D02*
X+2978776Y+195085D01*
X+2991476Y+195085D02*
X+3009256Y+195085D01*
X+3039736Y+195085D02*
X+3057516Y+195085D01*
X+3070216Y+195085D02*
X+3090536Y+195085D01*
X+3123556Y+195085D02*
X+3143876Y+195085D01*
X+3174356Y+195085D02*
X+3197216Y+195085D01*
X+3301356Y+195085D02*
X+3321676Y+195085D01*
X+3486776Y+195085D02*
X+3527416Y+195085D01*
X+3562976Y+195085D02*
X+3580756Y+195085D01*
X+3603616Y+195085D02*
X+3618856Y+195085D01*
X+3626476Y+195085D02*
X+3644256Y+195085D01*
X+3667116Y+195085D02*
X+3684896Y+195085D01*
X+3712836Y+195085D02*
X+3733156Y+195085D01*
X+3768716Y+195085D02*
X+3789036Y+195085D01*
X+3842376Y+195085D02*
X+3862696Y+195085D01*
X+3959216Y+195085D02*
X+3984616Y+195085D01*
X+4030336Y+195085D02*
X+4050656Y+195085D01*
X+4147176Y+195085D02*
X+4170036Y+195085D01*
X+4236076Y+195085D02*
X+4261476Y+195085D01*
X+4297036Y+195085D02*
X+4317356Y+195085D01*
X+4370696Y+195085D02*
X+4391016Y+195085D01*
X+4477376Y+195085D02*
X+4500236Y+195085D01*
X+4525636Y+195085D02*
X+4556116Y+195085D01*
X+4609456Y+195085D02*
X+4629776Y+195085D01*
X+4680576Y+195085D02*
X+4700896Y+195085D01*
X+4822816Y+195085D02*
X+4845676Y+195085D01*
X+4873616Y+195085D02*
X+4893936Y+195085D01*
X+4982836Y+195085D02*
X+5005696Y+195085D01*
X+2958456Y+197625D02*
X+2978776Y+197625D01*
X+2991476Y+197625D02*
X+3011796Y+197625D01*
X+3039736Y+197625D02*
X+3057516Y+197625D01*
X+3070216Y+197625D02*
X+3090536Y+197625D01*
X+3123556Y+197625D02*
X+3143876Y+197625D01*
X+3174356Y+197625D02*
X+3197216Y+197625D01*
X+3301356Y+197625D02*
X+3321676Y+197625D01*
X+3481696Y+197625D02*
X+3524876Y+197625D01*
X+3560436Y+197625D02*
X+3578216Y+197625D01*
X+3603616Y+197625D02*
X+3621396Y+197625D01*
X+3626476Y+197625D02*
X+3641716Y+197625D01*
X+3667116Y+197625D02*
X+3684896Y+197625D01*
X+3712836Y+197625D02*
X+3733156Y+197625D01*
X+3768716Y+197625D02*
X+3789036Y+197625D01*
X+3842376Y+197625D02*
X+3865236Y+197625D01*
X+3913496Y+197625D02*
X+3933816Y+197625D01*
X+3959216Y+197625D02*
X+3984616Y+197625D01*
X+4030336Y+197625D02*
X+4050656Y+197625D01*
X+4147176Y+197625D02*
X+4170036Y+197625D01*
X+4233536Y+197625D02*
X+4258936Y+197625D01*
X+4297036Y+197625D02*
X+4317356Y+197625D01*
X+4368156Y+197625D02*
X+4391016Y+197625D01*
X+4482456Y+197625D02*
X+4500236Y+197625D01*
X+4525636Y+197625D02*
X+4556116Y+197625D01*
X+4609456Y+197625D02*
X+4632316Y+197625D01*
X+4678036Y+197625D02*
X+4700896Y+197625D01*
X+4822816Y+197625D02*
X+4843136Y+197625D01*
X+4873616Y+197625D02*
X+4893936Y+197625D01*
X+4982836Y+197625D02*
X+5005696Y+197625D01*
X+2958456Y+200165D02*
X+2978776Y+200165D01*
X+2994016Y+200165D02*
X+3011796Y+200165D01*
X+3037196Y+200165D02*
X+3057516Y+200165D01*
X+3072756Y+200165D02*
X+3090536Y+200165D01*
X+3123556Y+200165D02*
X+3143876Y+200165D01*
X+3174356Y+200165D02*
X+3263256Y+200165D01*
X+3301356Y+200165D02*
X+3321676Y+200165D01*
X+3474076Y+200165D02*
X+3519796Y+200165D01*
X+3560436Y+200165D02*
X+3578216Y+200165D01*
X+3603616Y+200165D02*
X+3621396Y+200165D01*
X+3626476Y+200165D02*
X+3641716Y+200165D01*
X+3667116Y+200165D02*
X+3687436Y+200165D01*
X+3712836Y+200165D02*
X+3733156Y+200165D01*
X+3768716Y+200165D02*
X+3789036Y+200165D01*
X+3844916Y+200165D02*
X+3865236Y+200165D01*
X+3913496Y+200165D02*
X+3933816Y+200165D01*
X+3959216Y+200165D02*
X+3987156Y+200165D01*
X+4030336Y+200165D02*
X+4050656Y+200165D01*
X+4147176Y+200165D02*
X+4170036Y+200165D01*
X+4223376Y+200165D02*
X+4256396Y+200165D01*
X+4297036Y+200165D02*
X+4319896Y+200165D01*
X+4368156Y+200165D02*
X+4388476Y+200165D01*
X+4416416Y+200165D02*
X+4436736Y+200165D01*
X+4479916Y+200165D02*
X+4500236Y+200165D01*
X+4525636Y+200165D02*
X+4558656Y+200165D01*
X+4611996Y+200165D02*
X+4632316Y+200165D01*
X+4678036Y+200165D02*
X+4700896Y+200165D01*
X+4822816Y+200165D02*
X+4843136Y+200165D01*
X+4873616Y+200165D02*
X+4896476Y+200165D01*
X+4982836Y+200165D02*
X+5005696Y+200165D01*
X+2958456Y+202705D02*
X+2976236Y+202705D01*
X+2994016Y+202705D02*
X+3011796Y+202705D01*
X+3037196Y+202705D02*
X+3054976Y+202705D01*
X+3072756Y+202705D02*
X+3093076Y+202705D01*
X+3123556Y+202705D02*
X+3143876Y+202705D01*
X+3174356Y+202705D02*
X+3263256Y+202705D01*
X+3301356Y+202705D02*
X+3321676Y+202705D01*
X+3468996Y+202705D02*
X+3517256Y+202705D01*
X+3560436Y+202705D02*
X+3578216Y+202705D01*
X+3606156Y+202705D02*
X+3621396Y+202705D01*
X+3626476Y+202705D02*
X+3641716Y+202705D01*
X+3669656Y+202705D02*
X+3687436Y+202705D01*
X+3712836Y+202705D02*
X+3733156Y+202705D01*
X+3768716Y+202705D02*
X+3789036Y+202705D01*
X+3844916Y+202705D02*
X+3867776Y+202705D01*
X+3910956Y+202705D02*
X+3931276Y+202705D01*
X+3959216Y+202705D02*
X+3989696Y+202705D01*
X+4027796Y+202705D02*
X+4050656Y+202705D01*
X+4147176Y+202705D02*
X+4253856Y+202705D01*
X+4299576Y+202705D02*
X+4319896Y+202705D01*
X+4365616Y+202705D02*
X+4388476Y+202705D01*
X+4416416Y+202705D02*
X+4436736Y+202705D01*
X+4479916Y+202705D02*
X+4500236Y+202705D01*
X+4525636Y+202705D02*
X+4561196Y+202705D01*
X+4611996Y+202705D02*
X+4632316Y+202705D01*
X+4675496Y+202705D02*
X+4700896Y+202705D01*
X+4820276Y+202705D02*
X+4840596Y+202705D01*
X+4876156Y+202705D02*
X+4896476Y+202705D01*
X+4982836Y+202705D02*
X+5005696Y+202705D01*
X+2958456Y+205245D02*
X+2976236Y+205245D01*
X+2994016Y+205245D02*
X+3011796Y+205245D01*
X+3037196Y+205245D02*
X+3054976Y+205245D01*
X+3072756Y+205245D02*
X+3093076Y+205245D01*
X+3123556Y+205245D02*
X+3143876Y+205245D01*
X+3174356Y+205245D02*
X+3263256Y+205245D01*
X+3301356Y+205245D02*
X+3321676Y+205245D01*
X+3463916Y+205245D02*
X+3509636Y+205245D01*
X+3557896Y+205245D02*
X+3578216Y+205245D01*
X+3606156Y+205245D02*
X+3621396Y+205245D01*
X+3623936Y+205245D02*
X+3641716Y+205245D01*
X+3669656Y+205245D02*
X+3687436Y+205245D01*
X+3712836Y+205245D02*
X+3733156Y+205245D01*
X+3768716Y+205245D02*
X+3789036Y+205245D01*
X+3847456Y+205245D02*
X+3870316Y+205245D01*
X+3910956Y+205245D02*
X+3931276Y+205245D01*
X+3959216Y+205245D02*
X+3989696Y+205245D01*
X+4027796Y+205245D02*
X+4050656Y+205245D01*
X+4147176Y+205245D02*
X+4251316Y+205245D01*
X+4299576Y+205245D02*
X+4322436Y+205245D01*
X+4365616Y+205245D02*
X+4385936Y+205245D01*
X+4418956Y+205245D02*
X+4439276Y+205245D01*
X+4479916Y+205245D02*
X+4500236Y+205245D01*
X+4525636Y+205245D02*
X+4563736Y+205245D01*
X+4611996Y+205245D02*
X+4634856Y+205245D01*
X+4675496Y+205245D02*
X+4700896Y+205245D01*
X+4820276Y+205245D02*
X+4840596Y+205245D01*
X+4876156Y+205245D02*
X+4896476Y+205245D01*
X+4982836Y+205245D02*
X+5005696Y+205245D01*
X+2955916Y+207785D02*
X+2976236Y+207785D01*
X+2994016Y+207785D02*
X+3014336Y+207785D01*
X+3037196Y+207785D02*
X+3054976Y+207785D01*
X+3072756Y+207785D02*
X+3093076Y+207785D01*
X+3123556Y+207785D02*
X+3143876Y+207785D01*
X+3174356Y+207785D02*
X+3263256Y+207785D01*
X+3301356Y+207785D02*
X+3321676Y+207785D01*
X+3458836Y+207785D02*
X+3504556Y+207785D01*
X+3557896Y+207785D02*
X+3575676Y+207785D01*
X+3606156Y+207785D02*
X+3639176Y+207785D01*
X+3669656Y+207785D02*
X+3689976Y+207785D01*
X+3712836Y+207785D02*
X+3733156Y+207785D01*
X+3768716Y+207785D02*
X+3789036Y+207785D01*
X+3847456Y+207785D02*
X+3872856Y+207785D01*
X+3908416Y+207785D02*
X+3931276Y+207785D01*
X+3959216Y+207785D02*
X+3992236Y+207785D01*
X+4027796Y+207785D02*
X+4048116Y+207785D01*
X+4147176Y+207785D02*
X+4246236Y+207785D01*
X+4302116Y+207785D02*
X+4324976Y+207785D01*
X+4363076Y+207785D02*
X+4385936Y+207785D01*
X+4418956Y+207785D02*
X+4439276Y+207785D01*
X+4477376Y+207785D02*
X+4497696Y+207785D01*
X+4525636Y+207785D02*
X+4545956Y+207785D01*
X+4548496Y+207785D02*
X+4568816Y+207785D01*
X+4614536Y+207785D02*
X+4637396Y+207785D01*
X+4672956Y+207785D02*
X+4700896Y+207785D01*
X+4817736Y+207785D02*
X+4840596Y+207785D01*
X+4878696Y+207785D02*
X+4899016Y+207785D01*
X+4982836Y+207785D02*
X+5005696Y+207785D01*
X+2955916Y+210325D02*
X+2976236Y+210325D01*
X+2996556Y+210325D02*
X+3014336Y+210325D01*
X+3034656Y+210325D02*
X+3054976Y+210325D01*
X+3072756Y+210325D02*
X+3093076Y+210325D01*
X+3123556Y+210325D02*
X+3143876Y+210325D01*
X+3174356Y+210325D02*
X+3263256Y+210325D01*
X+3301356Y+210325D02*
X+3321676Y+210325D01*
X+3451216Y+210325D02*
X+3499476Y+210325D01*
X+3557896Y+210325D02*
X+3575676Y+210325D01*
X+3608696Y+210325D02*
X+3639176Y+210325D01*
X+3672196Y+210325D02*
X+3689976Y+210325D01*
X+3712836Y+210325D02*
X+3733156Y+210325D01*
X+3768716Y+210325D02*
X+3789036Y+210325D01*
X+3849996Y+210325D02*
X+3875396Y+210325D01*
X+3905876Y+210325D02*
X+3928736Y+210325D01*
X+3959216Y+210325D02*
X+3994776Y+210325D01*
X+4025256Y+210325D02*
X+4048116Y+210325D01*
X+4147176Y+210325D02*
X+4241156Y+210325D01*
X+4302116Y+210325D02*
X+4327516Y+210325D01*
X+4360536Y+210325D02*
X+4383396Y+210325D01*
X+4418956Y+210325D02*
X+4441816Y+210325D01*
X+4474836Y+210325D02*
X+4497696Y+210325D01*
X+4525636Y+210325D02*
X+4545956Y+210325D01*
X+4551036Y+210325D02*
X+4573896Y+210325D01*
X+4614536Y+210325D02*
X+4639936Y+210325D01*
X+4670416Y+210325D02*
X+4700896Y+210325D01*
X+4817736Y+210325D02*
X+4838056Y+210325D01*
X+4878696Y+210325D02*
X+4899016Y+210325D01*
X+4982836Y+210325D02*
X+5005696Y+210325D01*
X+2955916Y+212865D02*
X+2976236Y+212865D01*
X+2996556Y+212865D02*
X+3014336Y+212865D01*
X+3034656Y+212865D02*
X+3052436Y+212865D01*
X+3075296Y+212865D02*
X+3093076Y+212865D01*
X+3123556Y+212865D02*
X+3143876Y+212865D01*
X+3174356Y+212865D02*
X+3263256Y+212865D01*
X+3301356Y+212865D02*
X+3321676Y+212865D01*
X+3446136Y+212865D02*
X+3494396Y+212865D01*
X+3555356Y+212865D02*
X+3575676Y+212865D01*
X+3608696Y+212865D02*
X+3639176Y+212865D01*
X+3672196Y+212865D02*
X+3689976Y+212865D01*
X+3712836Y+212865D02*
X+3733156Y+212865D01*
X+3768716Y+212865D02*
X+3789036Y+212865D01*
X+3849996Y+212865D02*
X+3880476Y+212865D01*
X+3900796Y+212865D02*
X+3928736Y+212865D01*
X+3959216Y+212865D02*
X+3997316Y+212865D01*
X+4025256Y+212865D02*
X+4048116Y+212865D01*
X+4147176Y+212865D02*
X+4246236Y+212865D01*
X+4304656Y+212865D02*
X+4332596Y+212865D01*
X+4355456Y+212865D02*
X+4383396Y+212865D01*
X+4421496Y+212865D02*
X+4446896Y+212865D01*
X+4472296Y+212865D02*
X+4497696Y+212865D01*
X+4525636Y+212865D02*
X+4545956Y+212865D01*
X+4553576Y+212865D02*
X+4596756Y+212865D01*
X+4617076Y+212865D02*
X+4642476Y+212865D01*
X+4667876Y+212865D02*
X+4700896Y+212865D01*
X+4817736Y+212865D02*
X+4838056Y+212865D01*
X+4878696Y+212865D02*
X+4901556Y+212865D01*
X+4982836Y+212865D02*
X+5005696Y+212865D01*
X+2955916Y+215405D02*
X+2973696Y+215405D01*
X+2996556Y+215405D02*
X+3014336Y+215405D01*
X+3034656Y+215405D02*
X+3052436Y+215405D01*
X+3075296Y+215405D02*
X+3095616Y+215405D01*
X+3123556Y+215405D02*
X+3143876Y+215405D01*
X+3174356Y+215405D02*
X+3263256Y+215405D01*
X+3301356Y+215405D02*
X+3321676Y+215405D01*
X+3441056Y+215405D02*
X+3486776Y+215405D01*
X+3555356Y+215405D02*
X+3575676Y+215405D01*
X+3608696Y+215405D02*
X+3636636Y+215405D01*
X+3672196Y+215405D02*
X+3689976Y+215405D01*
X+3712836Y+215405D02*
X+3733156Y+215405D01*
X+3748396Y+215405D02*
X+3819516Y+215405D01*
X+3852536Y+215405D02*
X+3926196Y+215405D01*
X+3959216Y+215405D02*
X+3979536Y+215405D01*
X+3982076Y+215405D02*
X+4002396Y+215405D01*
X+4022716Y+215405D02*
X+4045576Y+215405D01*
X+4147176Y+215405D02*
X+4251316Y+215405D01*
X+4307196Y+215405D02*
X+4340216Y+215405D01*
X+4347836Y+215405D02*
X+4380856Y+215405D01*
X+4424036Y+215405D02*
X+4454516Y+215405D01*
X+4464676Y+215405D02*
X+4495156Y+215405D01*
X+4525636Y+215405D02*
X+4545956Y+215405D01*
X+4553576Y+215405D02*
X+4596756Y+215405D01*
X+4619616Y+215405D02*
X+4647556Y+215405D01*
X+4662796Y+215405D02*
X+4700896Y+215405D01*
X+4815196Y+215405D02*
X+4838056Y+215405D01*
X+4881236Y+215405D02*
X+4901556Y+215405D01*
X+4982836Y+215405D02*
X+5005696Y+215405D01*
X+2953376Y+217945D02*
X+2973696Y+217945D01*
X+2996556Y+217945D02*
X+3016876Y+217945D01*
X+3034656Y+217945D02*
X+3052436Y+217945D01*
X+3075296Y+217945D02*
X+3095616Y+217945D01*
X+3123556Y+217945D02*
X+3143876Y+217945D01*
X+3174356Y+217945D02*
X+3197216Y+217945D01*
X+3301356Y+217945D02*
X+3321676Y+217945D01*
X+3435976Y+217945D02*
X+3481696Y+217945D01*
X+3555356Y+217945D02*
X+3573136Y+217945D01*
X+3608696Y+217945D02*
X+3636636Y+217945D01*
X+3672196Y+217945D02*
X+3692516Y+217945D01*
X+3712836Y+217945D02*
X+3733156Y+217945D01*
X+3748396Y+217945D02*
X+3819516Y+217945D01*
X+3855076Y+217945D02*
X+3923656Y+217945D01*
X+3959216Y+217945D02*
X+3979536Y+217945D01*
X+3984616Y+217945D02*
X+4045576Y+217945D01*
X+4147176Y+217945D02*
X+4253856Y+217945D01*
X+4309736Y+217945D02*
X+4378316Y+217945D01*
X+4424036Y+217945D02*
X+4495156Y+217945D01*
X+4525636Y+217945D02*
X+4545956Y+217945D01*
X+4556116Y+217945D02*
X+4596756Y+217945D01*
X+4619616Y+217945D02*
X+4700896Y+217945D01*
X+4815196Y+217945D02*
X+4835516Y+217945D01*
X+4881236Y+217945D02*
X+4901556Y+217945D01*
X+4982836Y+217945D02*
X+5005696Y+217945D01*
X+2953376Y+220485D02*
X+2973696Y+220485D01*
X+2999096Y+220485D02*
X+3016876Y+220485D01*
X+3032116Y+220485D02*
X+3052436Y+220485D01*
X+3075296Y+220485D02*
X+3095616Y+220485D01*
X+3123556Y+220485D02*
X+3143876Y+220485D01*
X+3174356Y+220485D02*
X+3197216Y+220485D01*
X+3301356Y+220485D02*
X+3321676Y+220485D01*
X+3433436Y+220485D02*
X+3476616Y+220485D01*
X+3555356Y+220485D02*
X+3573136Y+220485D01*
X+3611236Y+220485D02*
X+3636636Y+220485D01*
X+3674736Y+220485D02*
X+3692516Y+220485D01*
X+3712836Y+220485D02*
X+3733156Y+220485D01*
X+3748396Y+220485D02*
X+3819516Y+220485D01*
X+3857616Y+220485D02*
X+3921116Y+220485D01*
X+3959216Y+220485D02*
X+3979536Y+220485D01*
X+3987156Y+220485D02*
X+4043036Y+220485D01*
X+4147176Y+220485D02*
X+4170036Y+220485D01*
X+4230996Y+220485D02*
X+4256396Y+220485D01*
X+4312276Y+220485D02*
X+4375776Y+220485D01*
X+4426576Y+220485D02*
X+4492616Y+220485D01*
X+4525636Y+220485D02*
X+4545956Y+220485D01*
X+4558656Y+220485D02*
X+4596756Y+220485D01*
X+4622156Y+220485D02*
X+4678036Y+220485D01*
X+4680576Y+220485D02*
X+4700896Y+220485D01*
X+4812656Y+220485D02*
X+4835516Y+220485D01*
X+4881236Y+220485D02*
X+4904096Y+220485D01*
X+4982836Y+220485D02*
X+5005696Y+220485D01*
X+2953376Y+223025D02*
X+2973696Y+223025D01*
X+2999096Y+223025D02*
X+3016876Y+223025D01*
X+3032116Y+223025D02*
X+3049896Y+223025D01*
X+3077836Y+223025D02*
X+3095616Y+223025D01*
X+3123556Y+223025D02*
X+3143876Y+223025D01*
X+3174356Y+223025D02*
X+3197216Y+223025D01*
X+3301356Y+223025D02*
X+3321676Y+223025D01*
X+3430896Y+223025D02*
X+3471536Y+223025D01*
X+3552816Y+223025D02*
X+3573136Y+223025D01*
X+3611236Y+223025D02*
X+3636636Y+223025D01*
X+3674736Y+223025D02*
X+3692516Y+223025D01*
X+3712836Y+223025D02*
X+3733156Y+223025D01*
X+3748396Y+223025D02*
X+3819516Y+223025D01*
X+3862696Y+223025D02*
X+3918576Y+223025D01*
X+3959216Y+223025D02*
X+3979536Y+223025D01*
X+3989696Y+223025D02*
X+4040496Y+223025D01*
X+4147176Y+223025D02*
X+4170036Y+223025D01*
X+4233536Y+223025D02*
X+4258936Y+223025D01*
X+4314816Y+223025D02*
X+4373236Y+223025D01*
X+4429116Y+223025D02*
X+4490076Y+223025D01*
X+4525636Y+223025D02*
X+4545956Y+223025D01*
X+4563736Y+223025D02*
X+4596756Y+223025D01*
X+4624696Y+223025D02*
X+4675496Y+223025D01*
X+4680576Y+223025D02*
X+4700896Y+223025D01*
X+4812656Y+223025D02*
X+4832976Y+223025D01*
X+4883776Y+223025D02*
X+4904096Y+223025D01*
X+4982836Y+223025D02*
X+5005696Y+223025D01*
X+2953376Y+225565D02*
X+2973696Y+225565D01*
X+2999096Y+225565D02*
X+3016876Y+225565D01*
X+3032116Y+225565D02*
X+3049896Y+225565D01*
X+3077836Y+225565D02*
X+3098156Y+225565D01*
X+3123556Y+225565D02*
X+3143876Y+225565D01*
X+3174356Y+225565D02*
X+3197216Y+225565D01*
X+3301356Y+225565D02*
X+3321676Y+225565D01*
X+3430896Y+225565D02*
X+3463916Y+225565D01*
X+3552816Y+225565D02*
X+3570596Y+225565D01*
X+3611236Y+225565D02*
X+3634096Y+225565D01*
X+3674736Y+225565D02*
X+3695056Y+225565D01*
X+3712836Y+225565D02*
X+3733156Y+225565D01*
X+3748396Y+225565D02*
X+3819516Y+225565D01*
X+3865236Y+225565D02*
X+3913496Y+225565D01*
X+3959216Y+225565D02*
X+3979536Y+225565D01*
X+3992236Y+225565D02*
X+4037956Y+225565D01*
X+4147176Y+225565D02*
X+4170036Y+225565D01*
X+4236076Y+225565D02*
X+4258936Y+225565D01*
X+4319896Y+225565D02*
X+4368156Y+225565D01*
X+4431656Y+225565D02*
X+4484996Y+225565D01*
X+4525636Y+225565D02*
X+4545956Y+225565D01*
X+4566276Y+225565D02*
X+4596756Y+225565D01*
X+4627236Y+225565D02*
X+4672956Y+225565D01*
X+4680576Y+225565D02*
X+4700896Y+225565D01*
X+4812656Y+225565D02*
X+4832976Y+225565D01*
X+4883776Y+225565D02*
X+4906636Y+225565D01*
X+4982836Y+225565D02*
X+5005696Y+225565D01*
X+2953376Y+228105D02*
X+2971156Y+228105D01*
X+2999096Y+228105D02*
X+3019416Y+228105D01*
X+3032116Y+228105D02*
X+3049896Y+228105D01*
X+3077836Y+228105D02*
X+3098156Y+228105D01*
X+3123556Y+228105D02*
X+3143876Y+228105D01*
X+3174356Y+228105D02*
X+3197216Y+228105D01*
X+3301356Y+228105D02*
X+3321676Y+228105D01*
X+3428356Y+228105D02*
X+3458836Y+228105D01*
X+3552816Y+228105D02*
X+3570596Y+228105D01*
X+3613776Y+228105D02*
X+3634096Y+228105D01*
X+3674736Y+228105D02*
X+3695056Y+228105D01*
X+3712836Y+228105D02*
X+3733156Y+228105D01*
X+3748396Y+228105D02*
X+3819516Y+228105D01*
X+3870316Y+228105D02*
X+3908416Y+228105D01*
X+3959216Y+228105D02*
X+3979536Y+228105D01*
X+3997316Y+228105D02*
X+4032876Y+228105D01*
X+4147176Y+228105D02*
X+4170036Y+228105D01*
X+4238616Y+228105D02*
X+4261476Y+228105D01*
X+4324976Y+228105D02*
X+4363076Y+228105D01*
X+4436736Y+228105D02*
X+4479916Y+228105D01*
X+4525636Y+228105D02*
X+4545956Y+228105D01*
X+4573896Y+228105D02*
X+4596756Y+228105D01*
X+4632316Y+228105D02*
X+4670416Y+228105D01*
X+4680576Y+228105D02*
X+4700896Y+228105D01*
X+4810116Y+228105D02*
X+4832976Y+228105D01*
X+4886316Y+228105D02*
X+4906636Y+228105D01*
X+4982836Y+228105D02*
X+5005696Y+228105D01*
X+2950836Y+230645D02*
X+2971156Y+230645D01*
X+3001636Y+230645D02*
X+3019416Y+230645D01*
X+3029576Y+230645D02*
X+3049896Y+230645D01*
X+3077836Y+230645D02*
X+3098156Y+230645D01*
X+3174356Y+230645D02*
X+3197216Y+230645D01*
X+3428356Y+230645D02*
X+3453756Y+230645D01*
X+3768716Y+230645D02*
X+3789036Y+230645D01*
X+3880476Y+230645D02*
X+3898256Y+230645D01*
X+3959216Y+230645D02*
X+3979536Y+230645D01*
X+4002396Y+230645D02*
X+4025256Y+230645D01*
X+4147176Y+230645D02*
X+4170036Y+230645D01*
X+4241156Y+230645D02*
X+4261476Y+230645D01*
X+4332596Y+230645D02*
X+4355456Y+230645D01*
X+4444356Y+230645D02*
X+4472296Y+230645D01*
X+4581516Y+230645D02*
X+4596756Y+230645D01*
X+4637396Y+230645D02*
X+4665336Y+230645D01*
X+4680576Y+230645D02*
X+4700896Y+230645D01*
X+4810116Y+230645D02*
X+4830436Y+230645D01*
X+4886316Y+230645D02*
X+4906636Y+230645D01*
X+4982836Y+230645D02*
X+5005696Y+230645D01*
X+2950836Y+233185D02*
X+2971156Y+233185D01*
X+3001636Y+233185D02*
X+3019416Y+233185D01*
X+3029576Y+233185D02*
X+3047356Y+233185D01*
X+3077836Y+233185D02*
X+3098156Y+233185D01*
X+3174356Y+233185D02*
X+3197216Y+233185D01*
X+3425816Y+233185D02*
X+3451216Y+233185D01*
X+3768716Y+233185D02*
X+3789036Y+233185D01*
X+3959216Y+233185D02*
X+3979536Y+233185D01*
X+4147176Y+233185D02*
X+4170036Y+233185D01*
X+4241156Y+233185D02*
X+4264016Y+233185D01*
X+4680576Y+233185D02*
X+4700896Y+233185D01*
X+4807576Y+233185D02*
X+4830436Y+233185D01*
X+4886316Y+233185D02*
X+4909176Y+233185D01*
X+4982836Y+233185D02*
X+5005696Y+233185D01*
X+2950836Y+235725D02*
X+2971156Y+235725D01*
X+3001636Y+235725D02*
X+3019416Y+235725D01*
X+3029576Y+235725D02*
X+3047356Y+235725D01*
X+3080376Y+235725D02*
X+3098156Y+235725D01*
X+3174356Y+235725D02*
X+3197216Y+235725D01*
X+3425816Y+235725D02*
X+3448676Y+235725D01*
X+3768716Y+235725D02*
X+3789036Y+235725D01*
X+3959216Y+235725D02*
X+3979536Y+235725D01*
X+4147176Y+235725D02*
X+4170036Y+235725D01*
X+4241156Y+235725D02*
X+4264016Y+235725D01*
X+4680576Y+235725D02*
X+4700896Y+235725D01*
X+4807576Y+235725D02*
X+4827896Y+235725D01*
X+4888856Y+235725D02*
X+4909176Y+235725D01*
X+4982836Y+235725D02*
X+5005696Y+235725D01*
X+2950836Y+238265D02*
X+2968616Y+238265D01*
X+3004176Y+238265D02*
X+3021956Y+238265D01*
X+3029576Y+238265D02*
X+3047356Y+238265D01*
X+3080376Y+238265D02*
X+3100696Y+238265D01*
X+3174356Y+238265D02*
X+3197216Y+238265D01*
X+3425816Y+238265D02*
X+3448676Y+238265D01*
X+3768716Y+238265D02*
X+3789036Y+238265D01*
X+3959216Y+238265D02*
X+3979536Y+238265D01*
X+4147176Y+238265D02*
X+4170036Y+238265D01*
X+4243696Y+238265D02*
X+4264016Y+238265D01*
X+4680576Y+238265D02*
X+4700896Y+238265D01*
X+4807576Y+238265D02*
X+4827896Y+238265D01*
X+4888856Y+238265D02*
X+4911716Y+238265D01*
X+4982836Y+238265D02*
X+5005696Y+238265D01*
X+2948296Y+240805D02*
X+2968616Y+240805D01*
X+3004176Y+240805D02*
X+3021956Y+240805D01*
X+3027036Y+240805D02*
X+3047356Y+240805D01*
X+3080376Y+240805D02*
X+3100696Y+240805D01*
X+3174356Y+240805D02*
X+3197216Y+240805D01*
X+3425816Y+240805D02*
X+3446136Y+240805D01*
X+3768716Y+240805D02*
X+3789036Y+240805D01*
X+3959216Y+240805D02*
X+3979536Y+240805D01*
X+4147176Y+240805D02*
X+4170036Y+240805D01*
X+4243696Y+240805D02*
X+4264016Y+240805D01*
X+4680576Y+240805D02*
X+4700896Y+240805D01*
X+4805036Y+240805D02*
X+4827896Y+240805D01*
X+4891396Y+240805D02*
X+4911716Y+240805D01*
X+4982836Y+240805D02*
X+5005696Y+240805D01*
X+2948296Y+243345D02*
X+2968616Y+243345D01*
X+3004176Y+243345D02*
X+3021956Y+243345D01*
X+3027036Y+243345D02*
X+3044816Y+243345D01*
X+3080376Y+243345D02*
X+3100696Y+243345D01*
X+3174356Y+243345D02*
X+3197216Y+243345D01*
X+3425816Y+243345D02*
X+3446136Y+243345D01*
X+3512176Y+243345D02*
X+3532496Y+243345D01*
X+3768716Y+243345D02*
X+3789036Y+243345D01*
X+3959216Y+243345D02*
X+3979536Y+243345D01*
X+4147176Y+243345D02*
X+4170036Y+243345D01*
X+4243696Y+243345D02*
X+4264016Y+243345D01*
X+4680576Y+243345D02*
X+4700896Y+243345D01*
X+4805036Y+243345D02*
X+4825356Y+243345D01*
X+4891396Y+243345D02*
X+4911716Y+243345D01*
X+4982836Y+243345D02*
X+5005696Y+243345D01*
X+2948296Y+245885D02*
X+2968616Y+245885D01*
X+3004176Y+245885D02*
X+3021956Y+245885D01*
X+3027036Y+245885D02*
X+3044816Y+245885D01*
X+3080376Y+245885D02*
X+3100696Y+245885D01*
X+3174356Y+245885D02*
X+3197216Y+245885D01*
X+3425816Y+245885D02*
X+3446136Y+245885D01*
X+3512176Y+245885D02*
X+3532496Y+245885D01*
X+3768716Y+245885D02*
X+3789036Y+245885D01*
X+3959216Y+245885D02*
X+3979536Y+245885D01*
X+4147176Y+245885D02*
X+4170036Y+245885D01*
X+4243696Y+245885D02*
X+4264016Y+245885D01*
X+4680576Y+245885D02*
X+4700896Y+245885D01*
X+4802496Y+245885D02*
X+4825356Y+245885D01*
X+4891396Y+245885D02*
X+4914256Y+245885D01*
X+4982836Y+245885D02*
X+5005696Y+245885D01*
X+2948296Y+248425D02*
X+2968616Y+248425D01*
X+3006716Y+248425D02*
X+3024496Y+248425D01*
X+3027036Y+248425D02*
X+3044816Y+248425D01*
X+3082916Y+248425D02*
X+3100696Y+248425D01*
X+3174356Y+248425D02*
X+3197216Y+248425D01*
X+3425816Y+248425D02*
X+3446136Y+248425D01*
X+3512176Y+248425D02*
X+3532496Y+248425D01*
X+3768716Y+248425D02*
X+3789036Y+248425D01*
X+3959216Y+248425D02*
X+3979536Y+248425D01*
X+4147176Y+248425D02*
X+4170036Y+248425D01*
X+4243696Y+248425D02*
X+4264016Y+248425D01*
X+4680576Y+248425D02*
X+4700896Y+248425D01*
X+4802496Y+248425D02*
X+4825356Y+248425D01*
X+4893936Y+248425D02*
X+4914256Y+248425D01*
X+4982836Y+248425D02*
X+5005696Y+248425D01*
X+2948296Y+250965D02*
X+2966076Y+250965D01*
X+3006716Y+250965D02*
X+3042276Y+250965D01*
X+3082916Y+250965D02*
X+3103236Y+250965D01*
X+3174356Y+250965D02*
X+3197216Y+250965D01*
X+3425816Y+250965D02*
X+3446136Y+250965D01*
X+3509636Y+250965D02*
X+3532496Y+250965D01*
X+3768716Y+250965D02*
X+3789036Y+250965D01*
X+3959216Y+250965D02*
X+3979536Y+250965D01*
X+4147176Y+250965D02*
X+4170036Y+250965D01*
X+4241156Y+250965D02*
X+4264016Y+250965D01*
X+4680576Y+250965D02*
X+4700896Y+250965D01*
X+4802496Y+250965D02*
X+4822816Y+250965D01*
X+4893936Y+250965D02*
X+4916796Y+250965D01*
X+4957436Y+250965D02*
X+5005696Y+250965D01*
X+2945756Y+253505D02*
X+2966076Y+253505D01*
X+3006716Y+253505D02*
X+3042276Y+253505D01*
X+3082916Y+253505D02*
X+3103236Y+253505D01*
X+3174356Y+253505D02*
X+3197216Y+253505D01*
X+3425816Y+253505D02*
X+3448676Y+253505D01*
X+3509636Y+253505D02*
X+3532496Y+253505D01*
X+3768716Y+253505D02*
X+3789036Y+253505D01*
X+3959216Y+253505D02*
X+3979536Y+253505D01*
X+4147176Y+253505D02*
X+4170036Y+253505D01*
X+4241156Y+253505D02*
X+4264016Y+253505D01*
X+4680576Y+253505D02*
X+4700896Y+253505D01*
X+4799956Y+253505D02*
X+4822816Y+253505D01*
X+4893936Y+253505D02*
X+4916796Y+253505D01*
X+4957436Y+253505D02*
X+5005696Y+253505D01*
X+2945756Y+256045D02*
X+2966076Y+256045D01*
X+3006716Y+256045D02*
X+3042276Y+256045D01*
X+3082916Y+256045D02*
X+3103236Y+256045D01*
X+3174356Y+256045D02*
X+3197216Y+256045D01*
X+3428356Y+256045D02*
X+3448676Y+256045D01*
X+3507096Y+256045D02*
X+3529956Y+256045D01*
X+3768716Y+256045D02*
X+3789036Y+256045D01*
X+3959216Y+256045D02*
X+3979536Y+256045D01*
X+4147176Y+256045D02*
X+4170036Y+256045D01*
X+4238616Y+256045D02*
X+4261476Y+256045D01*
X+4680576Y+256045D02*
X+4700896Y+256045D01*
X+4799956Y+256045D02*
X+4820276Y+256045D01*
X+4896476Y+256045D02*
X+4916796Y+256045D01*
X+4957436Y+256045D02*
X+5005696Y+256045D01*
X+2945756Y+258585D02*
X+2966076Y+258585D01*
X+3009256Y+258585D02*
X+3042276Y+258585D01*
X+3085456Y+258585D02*
X+3103236Y+258585D01*
X+3174356Y+258585D02*
X+3197216Y+258585D01*
X+3428356Y+258585D02*
X+3451216Y+258585D01*
X+3504556Y+258585D02*
X+3529956Y+258585D01*
X+3768716Y+258585D02*
X+3789036Y+258585D01*
X+3959216Y+258585D02*
X+3979536Y+258585D01*
X+4147176Y+258585D02*
X+4170036Y+258585D01*
X+4238616Y+258585D02*
X+4261476Y+258585D01*
X+4680576Y+258585D02*
X+4700896Y+258585D01*
X+4799956Y+258585D02*
X+4820276Y+258585D01*
X+4896476Y+258585D02*
X+4919336Y+258585D01*
X+4957436Y+258585D02*
X+5005696Y+258585D01*
X+2945756Y+261125D02*
X+2966076Y+261125D01*
X+3009256Y+261125D02*
X+3039736Y+261125D01*
X+3085456Y+261125D02*
X+3105776Y+261125D01*
X+3123556Y+261125D02*
X+3143876Y+261125D01*
X+3174356Y+261125D02*
X+3197216Y+261125D01*
X+3301356Y+261125D02*
X+3321676Y+261125D01*
X+3428356Y+261125D02*
X+3453756Y+261125D01*
X+3502016Y+261125D02*
X+3527416Y+261125D01*
X+3712836Y+261125D02*
X+3733156Y+261125D01*
X+3768716Y+261125D02*
X+3789036Y+261125D01*
X+3959216Y+261125D02*
X+3979536Y+261125D01*
X+4147176Y+261125D02*
X+4170036Y+261125D01*
X+4236076Y+261125D02*
X+4261476Y+261125D01*
X+4680576Y+261125D02*
X+4700896Y+261125D01*
X+4797416Y+261125D02*
X+4820276Y+261125D01*
X+4899016Y+261125D02*
X+4919336Y+261125D01*
X+4957436Y+261125D02*
X+5005696Y+261125D01*
X+2943216Y+263665D02*
X+2963536Y+263665D01*
X+3009256Y+263665D02*
X+3039736Y+263665D01*
X+3085456Y+263665D02*
X+3105776Y+263665D01*
X+3123556Y+263665D02*
X+3143876Y+263665D01*
X+3174356Y+263665D02*
X+3197216Y+263665D01*
X+3301356Y+263665D02*
X+3321676Y+263665D01*
X+3430896Y+263665D02*
X+3456296Y+263665D01*
X+3499476Y+263665D02*
X+3527416Y+263665D01*
X+3712836Y+263665D02*
X+3733156Y+263665D01*
X+3768716Y+263665D02*
X+3789036Y+263665D01*
X+3959216Y+263665D02*
X+3979536Y+263665D01*
X+4147176Y+263665D02*
X+4170036Y+263665D01*
X+4233536Y+263665D02*
X+4258936Y+263665D01*
X+4680576Y+263665D02*
X+4700896Y+263665D01*
X+4797416Y+263665D02*
X+4817736Y+263665D01*
X+4899016Y+263665D02*
X+4919336Y+263665D01*
X+4977756Y+263665D02*
X+5005696Y+263665D01*
X+2943216Y+266205D02*
X+2963536Y+266205D01*
X+3009256Y+266205D02*
X+3039736Y+266205D01*
X+3085456Y+266205D02*
X+3105776Y+266205D01*
X+3123556Y+266205D02*
X+3143876Y+266205D01*
X+3174356Y+266205D02*
X+3197216Y+266205D01*
X+3301356Y+266205D02*
X+3321676Y+266205D01*
X+3433436Y+266205D02*
X+3463916Y+266205D01*
X+3491856Y+266205D02*
X+3524876Y+266205D01*
X+3712836Y+266205D02*
X+3733156Y+266205D01*
X+3959216Y+266205D02*
X+3979536Y+266205D01*
X+4147176Y+266205D02*
X+4170036Y+266205D01*
X+4223376Y+266205D02*
X+4258936Y+266205D01*
X+4680576Y+266205D02*
X+4700896Y+266205D01*
X+4794876Y+266205D02*
X+4817736Y+266205D01*
X+4899016Y+266205D02*
X+4921876Y+266205D01*
X+4982836Y+266205D02*
X+5005696Y+266205D01*
X+2943216Y+268745D02*
X+2963536Y+268745D01*
X+3011796Y+268745D02*
X+3039736Y+268745D01*
X+3085456Y+268745D02*
X+3105776Y+268745D01*
X+3123556Y+268745D02*
X+3143876Y+268745D01*
X+3174356Y+268745D02*
X+3283576Y+268745D01*
X+3301356Y+268745D02*
X+3321676Y+268745D01*
X+3433436Y+268745D02*
X+3522336Y+268745D01*
X+3712836Y+268745D02*
X+3733156Y+268745D01*
X+3959216Y+268745D02*
X+3979536Y+268745D01*
X+4147176Y+268745D02*
X+4256396Y+268745D01*
X+4680576Y+268745D02*
X+4700896Y+268745D01*
X+4794876Y+268745D02*
X+4815196Y+268745D01*
X+4901556Y+268745D02*
X+4921876Y+268745D01*
X+4985376Y+268745D02*
X+5005696Y+268745D01*
X+2943216Y+271285D02*
X+2963536Y+271285D01*
X+3011796Y+271285D02*
X+3037196Y+271285D01*
X+3087996Y+271285D02*
X+3105776Y+271285D01*
X+3123556Y+271285D02*
X+3143876Y+271285D01*
X+3174356Y+271285D02*
X+3283576Y+271285D01*
X+3301356Y+271285D02*
X+3321676Y+271285D01*
X+3435976Y+271285D02*
X+3519796Y+271285D01*
X+3712836Y+271285D02*
X+3733156Y+271285D01*
X+3959216Y+271285D02*
X+3979536Y+271285D01*
X+4147176Y+271285D02*
X+4253856Y+271285D01*
X+4680576Y+271285D02*
X+4700896Y+271285D01*
X+4794876Y+271285D02*
X+4815196Y+271285D01*
X+4901556Y+271285D02*
X+4924416Y+271285D01*
X+4987916Y+271285D02*
X+5005696Y+271285D01*
X+2943216Y+273825D02*
X+2960996Y+273825D01*
X+3011796Y+273825D02*
X+3037196Y+273825D01*
X+3087996Y+273825D02*
X+3108316Y+273825D01*
X+3123556Y+273825D02*
X+3143876Y+273825D01*
X+3174356Y+273825D02*
X+3283576Y+273825D01*
X+3301356Y+273825D02*
X+3321676Y+273825D01*
X+3438516Y+273825D02*
X+3517256Y+273825D01*
X+3712836Y+273825D02*
X+3733156Y+273825D01*
X+3959216Y+273825D02*
X+3979536Y+273825D01*
X+4147176Y+273825D02*
X+4251316Y+273825D01*
X+4680576Y+273825D02*
X+4700896Y+273825D01*
X+4792336Y+273825D02*
X+4815196Y+273825D01*
X+4901556Y+273825D02*
X+4924416Y+273825D01*
X+4990456Y+273825D02*
X+5005696Y+273825D01*
X+2940676Y+276365D02*
X+2960996Y+276365D01*
X+3011796Y+276365D02*
X+3037196Y+276365D01*
X+3087996Y+276365D02*
X+3108316Y+276365D01*
X+3123556Y+276365D02*
X+3143876Y+276365D01*
X+3174356Y+276365D02*
X+3283576Y+276365D01*
X+3301356Y+276365D02*
X+3321676Y+276365D01*
X+3441056Y+276365D02*
X+3514716Y+276365D01*
X+3712836Y+276365D02*
X+3733156Y+276365D01*
X+3959216Y+276365D02*
X+3979536Y+276365D01*
X+4147176Y+276365D02*
X+4248776Y+276365D01*
X+4680576Y+276365D02*
X+4700896Y+276365D01*
X+4792336Y+276365D02*
X+4812656Y+276365D01*
X+4904096Y+276365D02*
X+4924416Y+276365D01*
X+4990456Y+276365D02*
X+5005696Y+276365D01*
X+2940676Y+278905D02*
X+2960996Y+278905D01*
X+3014336Y+278905D02*
X+3037196Y+278905D01*
X+3087996Y+278905D02*
X+3108316Y+278905D01*
X+3123556Y+278905D02*
X+3143876Y+278905D01*
X+3174356Y+278905D02*
X+3283576Y+278905D01*
X+3301356Y+278905D02*
X+3321676Y+278905D01*
X+3446136Y+278905D02*
X+3509636Y+278905D01*
X+3712836Y+278905D02*
X+3733156Y+278905D01*
X+3959216Y+278905D02*
X+3979536Y+278905D01*
X+4147176Y+278905D02*
X+4243696Y+278905D01*
X+4680576Y+278905D02*
X+4700896Y+278905D01*
X+4789796Y+278905D02*
X+4812656Y+278905D01*
X+4904096Y+278905D02*
X+4926956Y+278905D01*
X+4992996Y+278905D02*
X+5005696Y+278905D01*
X+2940676Y+281445D02*
X+2960996Y+281445D01*
X+3014336Y+281445D02*
X+3034656Y+281445D01*
X+3087996Y+281445D02*
X+3108316Y+281445D01*
X+3123556Y+281445D02*
X+3143876Y+281445D01*
X+3174356Y+281445D02*
X+3283576Y+281445D01*
X+3301356Y+281445D02*
X+3321676Y+281445D01*
X+3451216Y+281445D02*
X+3504556Y+281445D01*
X+3712836Y+281445D02*
X+3733156Y+281445D01*
X+3959216Y+281445D02*
X+3979536Y+281445D01*
X+4147176Y+281445D02*
X+4238616Y+281445D01*
X+4680576Y+281445D02*
X+4700896Y+281445D01*
X+4789796Y+281445D02*
X+4812656Y+281445D01*
X+4906636Y+281445D02*
X+4926956Y+281445D01*
X+4992996Y+281445D02*
X+5005696Y+281445D01*
X+2940676Y+283985D02*
X+2960996Y+283985D01*
X+3014336Y+283985D02*
X+3034656Y+283985D01*
X+3090536Y+283985D02*
X+3110856Y+283985D01*
X+3174356Y+283985D02*
X+3283576Y+283985D01*
X+3458836Y+283985D02*
X+3496936Y+283985D01*
X+3959216Y+283985D02*
X+3979536Y+283985D01*
X+4147176Y+283985D02*
X+4225916Y+283985D01*
X+4680576Y+283985D02*
X+4700896Y+283985D01*
X+4789796Y+283985D02*
X+4810116Y+283985D01*
X+4906636Y+283985D02*
X+4929496Y+283985D01*
X+4992996Y+283985D02*
X+5005696Y+283985D01*
X+4992996Y+286525D02*
X+5005696Y+286525D01*
D25*
X+2312699Y+723000D02*
X+2566699Y+723000D01*
X+2566699Y+2247000D01*
X+2312699Y+2247000D01*
X+2312699Y+723000D01*
X+2222059Y+681000D02*
X+2130619Y+681000D01*
X+2130619Y+760375D01*
X+2145859Y+776250D01*
X+2161099Y+776250D01*
X+2176339Y+760375D01*
X+2176339Y+681000D01*
X+2222059Y+808000D02*
X+2130619Y+808000D01*
X+2130619Y+887375D01*
X+2145859Y+903250D01*
X+2161099Y+903250D01*
X+2176339Y+887375D01*
X+2176339Y+808000D01*
X+2176339Y+887375D02*
X+2191579Y+903250D01*
X+2222059Y+903250D01*
X+2161099Y+935000D02*
X+2130619Y+966750D01*
X+2130619Y+998500D01*
X+2161099Y+1030250D01*
X+2191579Y+1030250D01*
X+2222059Y+998500D01*
X+2222059Y+966750D01*
X+2191579Y+935000D01*
X+2161099Y+935000D01*
X+2191579Y+1125500D02*
X+2191579Y+1157250D01*
X+2222059Y+1157250D01*
X+2222059Y+1093750D01*
X+2191579Y+1062000D01*
X+2161099Y+1062000D01*
X+2130619Y+1093750D01*
X+2130619Y+1141375D01*
X+2145859Y+1157250D01*
X+5073000Y+473000D02*
X+5327000Y+473000D01*
X+5327000Y+981000D01*
X+5073000Y+981000D01*
X+5073000Y+473000D01*
X+5032360Y+409500D02*
X+4940920Y+409500D01*
X+4940920Y+488875D01*
X+4956160Y+504750D01*
X+4971400Y+504750D01*
X+4986640Y+488875D01*
X+4986640Y+409500D01*
X+4986640Y+488875D02*
X+5001880Y+504750D01*
X+5032360Y+504750D01*
X+5032360Y+631750D02*
X+5032360Y+536500D01*
X+4940920Y+536500D01*
X+4940920Y+631750D01*
X+4986640Y+536500D02*
X+4986640Y+600000D01*
X+5017120Y+663500D02*
X+5032360Y+679375D01*
X+5032360Y+742875D01*
X+5017120Y+758750D01*
X+5001880Y+758750D01*
X+4986640Y+742875D01*
X+4986640Y+679375D01*
X+4971400Y+663500D01*
X+4956160Y+663500D01*
X+4940920Y+679375D01*
X+4940920Y+742875D01*
X+4956160Y+758750D01*
X+5032360Y+885750D02*
X+5032360Y+790500D01*
X+4940920Y+790500D01*
X+4940920Y+885750D01*
X+4986640Y+790500D02*
X+4986640Y+854000D01*
X+4940920Y+917500D02*
X+4940920Y+1012750D01*
X+4940920Y+965125D02*
X+5032360Y+965125D01*
M02*
