G04 PROTEUS GERBER X2 FILE*
%TF.GenerationSoftware,Labcenter,Proteus,8.13-SP0-Build31525*%
%TF.CreationDate,2022-07-11T20:54:32+00:00*%
%TF.FileFunction,Paste,Top*%
%TF.FilePolarity,Positive*%
%TF.Part,Single*%
%TF.SameCoordinates,{67e9d6b1-9973-4f3b-b57f-a68231676cbc}*%
%FSLAX45Y45*%
%MOMM*%
G01*
%TA.AperFunction,Material*%
%ADD43R,3.000000X1.000000*%
%ADD44R,1.000000X3.000000*%
%TA.AperFunction,Material*%
%ADD45R,2.692400X1.193800*%
%ADD46R,1.193800X2.692400*%
%ADD47R,1.600000X1.800000*%
%TA.AperFunction,Profile*%
%ADD24C,0.203200*%
%TD.AperFunction*%
D43*
X+2900000Y+2200000D03*
X+2900000Y+2000000D03*
X+2900000Y+1800000D03*
X+2900000Y+1600000D03*
X+2900000Y+1400000D03*
X+2900000Y+1200000D03*
X+2900000Y+1000000D03*
X+2900000Y+800000D03*
D44*
X+3300000Y+500000D03*
X+3500000Y+500000D03*
X+3700000Y+500000D03*
X+3900000Y+500000D03*
X+4100000Y+500000D03*
X+4300000Y+500000D03*
D43*
X+4700000Y+800000D03*
X+4700000Y+1000000D03*
X+4700000Y+1200000D03*
X+4700000Y+1400000D03*
X+4700000Y+1600000D03*
X+4700000Y+1800000D03*
X+4700000Y+2000000D03*
X+4700000Y+2200000D03*
D45*
X+1650000Y+1450000D03*
X+1650000Y+1920000D03*
D46*
X+5450000Y+2300000D03*
X+5920000Y+2300000D03*
X+5450000Y+1900000D03*
X+5920000Y+1900000D03*
X+5450000Y+1500000D03*
X+5920000Y+1500000D03*
D45*
X+2050000Y+1450000D03*
X+2050000Y+1920000D03*
D46*
X+5450000Y+1100000D03*
X+5920000Y+1100000D03*
X+5450000Y+700000D03*
X+5920000Y+700000D03*
X+5450000Y+300000D03*
X+5920000Y+300000D03*
D47*
X+2260000Y+3350000D03*
X+2540000Y+3350000D03*
X+2360000Y+2950000D03*
X+2640000Y+2950000D03*
X+2360000Y+2500000D03*
X+2640000Y+2500000D03*
X+5660000Y+2850000D03*
X+5940000Y+2850000D03*
D24*
X+0Y+0D02*
X+7050000Y+0D01*
X+7050000Y+7200000D01*
X+0Y+7200000D01*
X+0Y+0D01*
M02*
