G04 PROTEUS GERBER X2 FILE*
%TF.GenerationSoftware,Labcenter,Proteus,8.13-SP0-Build31525*%
%TF.CreationDate,2022-07-11T20:54:32+00:00*%
%TF.FileFunction,Copper,L1,Top*%
%TF.FilePolarity,Positive*%
%TF.Part,Single*%
%TF.SameCoordinates,{67e9d6b1-9973-4f3b-b57f-a68231676cbc}*%
%FSLAX45Y45*%
%MOMM*%
G01*
%TA.AperFunction,Conductor*%
%ADD10C,0.254000*%
%TA.AperFunction,ViaPad*%
%ADD11C,0.762000*%
%TA.AperFunction,ComponentPad*%
%ADD12C,3.048000*%
%TA.AperFunction,SMDPad,CuDef*%
%ADD13R,3.000000X1.000000*%
%ADD14R,1.000000X3.000000*%
%TA.AperFunction,SMDPad,CuDef*%
%ADD15R,2.692400X1.193800*%
%ADD16R,1.193800X2.692400*%
%TA.AperFunction,ComponentPad*%
%ADD17R,1.270000X1.270000*%
%ADD18C,1.270000*%
%TA.AperFunction,ComponentPad*%
%ADD19C,2.540000*%
%TA.AperFunction,ComponentPad*%
%ADD70R,2.032000X2.032000*%
%TA.AperFunction,ComponentPad*%
%ADD71C,4.600000*%
%ADD20C,5.360000*%
%AMPPAD013*
4,1,34,
0.000010,1.040000,
0.106330,1.029650,
0.204650,0.999880,
0.293070,0.952590,
0.369690,0.889690,
0.432590,0.813070,
0.479880,0.724650,
0.509650,0.626330,
0.520000,0.520010,
0.520000,-0.520010,
0.509650,-0.626330,
0.479880,-0.724650,
0.432590,-0.813070,
0.369690,-0.889690,
0.293070,-0.952590,
0.204650,-0.999880,
0.106330,-1.029650,
-0.000010,-1.040000,
-0.106330,-1.029650,
-0.204650,-0.999880,
-0.293070,-0.952590,
-0.369690,-0.889690,
-0.432590,-0.813070,
-0.479880,-0.724650,
-0.509650,-0.626330,
-0.520000,-0.520010,
-0.520000,0.520010,
-0.509650,0.626330,
-0.479880,0.724650,
-0.432590,0.813070,
-0.369690,0.889690,
-0.293070,0.952590,
-0.204650,0.999880,
-0.106330,1.029650,
0.000010,1.040000,
0*%
%ADD21PPAD013*%
%TA.AperFunction,SMDPad,CuDef*%
%ADD22R,1.600000X1.800000*%
%TA.AperFunction,OtherPad,Unknown*%
%ADD23C,4.500000*%
%TA.AperFunction,Profile*%
%ADD24C,0.203200*%
%TD.AperFunction*%
G36*
X+6989040Y+4376800D02*
X+6541041Y+4824799D01*
X+3852959Y+4824799D01*
X+3430822Y+4402662D01*
X+3418386Y+4415099D01*
X+3281614Y+4415099D01*
X+3184901Y+4318386D01*
X+3184901Y+4181614D01*
X+3265716Y+4100799D01*
X+2915099Y+4100799D01*
X+2915099Y+4118386D01*
X+2818386Y+4215099D01*
X+2681614Y+4215099D01*
X+2584901Y+4118386D01*
X+2584901Y+4100799D01*
X+2234284Y+4100799D01*
X+2315099Y+4181614D01*
X+2315099Y+4318386D01*
X+2218386Y+4415099D01*
X+2081614Y+4415099D01*
X+2069178Y+4402662D01*
X+1901041Y+4570799D01*
X+698959Y+4570799D01*
X+530822Y+4402662D01*
X+518386Y+4415099D01*
X+381614Y+4415099D01*
X+284901Y+4318386D01*
X+284901Y+4181614D01*
X+381614Y+4084901D01*
X+518386Y+4084901D01*
X+615099Y+4181614D01*
X+615099Y+4318386D01*
X+602662Y+4330822D01*
X+741041Y+4469201D01*
X+1858959Y+4469201D01*
X+1997338Y+4330822D01*
X+1984901Y+4318386D01*
X+1984901Y+4181614D01*
X+2065716Y+4100799D01*
X+1734284Y+4100799D01*
X+1815099Y+4181614D01*
X+1815099Y+4318386D01*
X+1718386Y+4415099D01*
X+1581614Y+4415099D01*
X+1484901Y+4318386D01*
X+1484901Y+4181614D01*
X+1565716Y+4100799D01*
X+1215099Y+4100799D01*
X+1215099Y+4118386D01*
X+1118386Y+4215099D01*
X+981614Y+4215099D01*
X+884901Y+4118386D01*
X+884901Y+3981614D01*
X+897338Y+3969178D01*
X+627201Y+3699041D01*
X+627201Y+1850959D01*
X+729377Y+1748783D01*
X+709501Y+1728907D01*
X+709501Y+1571093D01*
X+821093Y+1459501D01*
X+978907Y+1459501D01*
X+1090499Y+1571093D01*
X+1090499Y+1728907D01*
X+978907Y+1840499D01*
X+821093Y+1840499D01*
X+801217Y+1820623D01*
X+728799Y+1893041D01*
X+728799Y+2059795D01*
X+821093Y+1967501D01*
X+978907Y+1967501D01*
X+1090499Y+2079093D01*
X+1090499Y+2236907D01*
X+978907Y+2348499D01*
X+821093Y+2348499D01*
X+728799Y+2256205D01*
X+728799Y+2701795D01*
X+821093Y+2609501D01*
X+978907Y+2609501D01*
X+1090499Y+2721093D01*
X+1090499Y+2749201D01*
X+1375361Y+2749201D01*
X+1135201Y+2509041D01*
X+1135201Y+1958959D01*
X+1418959Y+1675201D01*
X+1999201Y+1675201D01*
X+1999201Y+1547789D01*
X+1877281Y+1547789D01*
X+1877281Y+1352211D01*
X+2222719Y+1352211D01*
X+2222719Y+1547789D01*
X+2100799Y+1547789D01*
X+2100799Y+1747041D01*
X+2071041Y+1776799D01*
X+1461041Y+1776799D01*
X+1236799Y+2001041D01*
X+1236799Y+2466959D01*
X+1461041Y+2691201D01*
X+1891037Y+2691201D01*
X+1916437Y+2665801D01*
X+1979563Y+2665801D01*
X+2024199Y+2710437D01*
X+2024199Y+2773563D01*
X+1987361Y+2810401D01*
X+1996084Y+2810401D01*
X+2055599Y+2869916D01*
X+2055599Y+2954084D01*
X+1996084Y+3013599D01*
X+1911916Y+3013599D01*
X+1852401Y+2954084D01*
X+1852401Y+2869916D01*
X+1910278Y+2812040D01*
X+1891037Y+2792799D01*
X+1652639Y+2792799D01*
X+1670241Y+2810401D01*
X+1742084Y+2810401D01*
X+1801599Y+2869916D01*
X+1801599Y+2954084D01*
X+1742084Y+3013599D01*
X+1657916Y+3013599D01*
X+1598401Y+2954084D01*
X+1598401Y+2882241D01*
X+1566959Y+2850799D01*
X+1090499Y+2850799D01*
X+1090499Y+2878907D01*
X+978907Y+2990499D01*
X+821093Y+2990499D01*
X+728799Y+2898205D01*
X+728799Y+3209795D01*
X+821093Y+3117501D01*
X+978907Y+3117501D01*
X+1090499Y+3229093D01*
X+1090499Y+3386907D01*
X+978907Y+3498499D01*
X+821093Y+3498499D01*
X+728799Y+3406205D01*
X+728799Y+3656959D01*
X+969178Y+3897338D01*
X+981614Y+3884901D01*
X+1118386Y+3884901D01*
X+1215099Y+3981614D01*
X+1215099Y+3999201D01*
X+2584901Y+3999201D01*
X+2584901Y+3981614D01*
X+2681614Y+3884901D01*
X+2818386Y+3884901D01*
X+2915099Y+3981614D01*
X+2915099Y+3999201D01*
X+4284901Y+3999201D01*
X+4284901Y+3981614D01*
X+4381614Y+3884901D01*
X+4518386Y+3884901D01*
X+4615099Y+3981614D01*
X+4615099Y+3999201D01*
X+5984901Y+3999201D01*
X+5984901Y+3981614D01*
X+6081614Y+3884901D01*
X+6218386Y+3884901D01*
X+6315099Y+3981614D01*
X+6315099Y+4118386D01*
X+6218386Y+4215099D01*
X+6081614Y+4215099D01*
X+5984901Y+4118386D01*
X+5984901Y+4100799D01*
X+5634284Y+4100799D01*
X+5715099Y+4181614D01*
X+5715099Y+4318386D01*
X+5618386Y+4415099D01*
X+5481614Y+4415099D01*
X+5469178Y+4402662D01*
X+5301041Y+4570799D01*
X+4098959Y+4570799D01*
X+3930822Y+4402662D01*
X+3918386Y+4415099D01*
X+3781614Y+4415099D01*
X+3684901Y+4318386D01*
X+3684901Y+4181614D01*
X+3765716Y+4100799D01*
X+3434284Y+4100799D01*
X+3515099Y+4181614D01*
X+3515099Y+4318386D01*
X+3502662Y+4330822D01*
X+3895041Y+4723201D01*
X+6498959Y+4723201D01*
X+6807061Y+4415099D01*
X+6681614Y+4415099D01*
X+6584901Y+4318386D01*
X+6584901Y+4181614D01*
X+6597338Y+4169178D01*
X+6236959Y+3808799D01*
X+3959959Y+3808799D01*
X+3676201Y+3525041D01*
X+3676201Y+3492099D01*
X+3382901Y+3492099D01*
X+3382901Y+3207901D01*
X+3549201Y+3207901D01*
X+3549201Y+2720959D01*
X+3746151Y+2524009D01*
X+3746151Y+2250798D01*
X+3362088Y+2250798D01*
X+3389349Y+2278059D01*
X+3389349Y+3096191D01*
X+3359591Y+3125949D01*
X+3050799Y+3125949D01*
X+3050799Y+3207901D01*
X+3217099Y+3207901D01*
X+3217099Y+3492099D01*
X+2782901Y+3492099D01*
X+2782901Y+3207901D01*
X+2949201Y+3207901D01*
X+2949201Y+3054109D01*
X+2978959Y+3024351D01*
X+3141801Y+3024351D01*
X+3141801Y+2964437D01*
X+3167201Y+2939037D01*
X+3167201Y+2411699D01*
X+2758099Y+2411699D01*
X+2758099Y+2449201D01*
X+2895037Y+2449201D01*
X+2932437Y+2411801D01*
X+2995563Y+2411801D01*
X+3040199Y+2456437D01*
X+3040199Y+2519563D01*
X+3014799Y+2544963D01*
X+3014799Y+2971041D01*
X+2985041Y+3000799D01*
X+2758099Y+3000799D01*
X+2758099Y+3078099D01*
X+2690799Y+3078099D01*
X+2690799Y+3135942D01*
X+2604840Y+3221901D01*
X+2658099Y+3221901D01*
X+2658099Y+3478099D01*
X+2421901Y+3478099D01*
X+2421901Y+3221901D01*
X+2489201Y+3221901D01*
X+2489201Y+3193860D01*
X+2589201Y+3093860D01*
X+2589201Y+3078099D01*
X+2521901Y+3078099D01*
X+2521901Y+2821901D01*
X+2758099Y+2821901D01*
X+2758099Y+2899201D01*
X+2913201Y+2899201D01*
X+2913201Y+2550799D01*
X+2758099Y+2550799D01*
X+2758099Y+2628099D01*
X+2521901Y+2628099D01*
X+2521901Y+2411699D01*
X+2478099Y+2411699D01*
X+2478099Y+2628099D01*
X+2252799Y+2628099D01*
X+2252799Y+2821901D01*
X+2309202Y+2821901D01*
X+2309202Y+2720959D01*
X+2338960Y+2691201D01*
X+2653037Y+2691201D01*
X+2678437Y+2665801D01*
X+2741563Y+2665801D01*
X+2786199Y+2710437D01*
X+2786199Y+2773563D01*
X+2741563Y+2818199D01*
X+2678437Y+2818199D01*
X+2653037Y+2792799D01*
X+2410798Y+2792799D01*
X+2410798Y+2821901D01*
X+2478099Y+2821901D01*
X+2478099Y+3078099D01*
X+2241901Y+3078099D01*
X+2241901Y+3063861D01*
X+2233563Y+3072199D01*
X+2170437Y+3072199D01*
X+2125801Y+3027563D01*
X+2125801Y+2964437D01*
X+2151201Y+2939037D01*
X+2151201Y+2263860D01*
X+2180959Y+2234102D01*
X+2300000Y+2234102D01*
X+2300000Y+760799D01*
X+2223041Y+760799D01*
X+1715041Y+1268799D01*
X+1490799Y+1268799D01*
X+1490799Y+1352211D01*
X+1822719Y+1352211D01*
X+1822719Y+1547789D01*
X+1477281Y+1547789D01*
X+1477281Y+1500798D01*
X+1418959Y+1500798D01*
X+1389201Y+1471040D01*
X+1389201Y+1196959D01*
X+1418959Y+1167201D01*
X+1672959Y+1167201D01*
X+1734061Y+1106099D01*
X+1548210Y+1106099D01*
X+1368901Y+926790D01*
X+1368901Y+673210D01*
X+1454012Y+588099D01*
X+1263950Y+588099D01*
X+1106901Y+431050D01*
X+1106901Y+208950D01*
X+1254891Y+60960D01*
X+60960Y+60960D01*
X+60960Y+7139040D01*
X+6989040Y+7139040D01*
X+6989040Y+4376800D01*
G37*
%LPC*%
G36*
X+959501Y+6521093D02*
X+959501Y+6678907D01*
X+1071093Y+6790499D01*
X+1228907Y+6790499D01*
X+1340499Y+6678907D01*
X+1340499Y+6521093D01*
X+1228907Y+6409501D01*
X+1071093Y+6409501D01*
X+959501Y+6521093D01*
G37*
G36*
X+1459881Y+6521093D02*
X+1459881Y+6678907D01*
X+1571473Y+6790499D01*
X+1729287Y+6790499D01*
X+1840879Y+6678907D01*
X+1840879Y+6521093D01*
X+1729287Y+6409501D01*
X+1571473Y+6409501D01*
X+1459881Y+6521093D01*
G37*
G36*
X+1960261Y+6521093D02*
X+1960261Y+6678907D01*
X+2071853Y+6790499D01*
X+2229667Y+6790499D01*
X+2341259Y+6678907D01*
X+2341259Y+6521093D01*
X+2229667Y+6409501D01*
X+2071853Y+6409501D01*
X+1960261Y+6521093D01*
G37*
G36*
X+2841639Y+6678907D02*
X+2841639Y+6521093D01*
X+2821763Y+6501217D01*
X+3482181Y+5840799D01*
X+4751041Y+5840799D01*
X+4969178Y+5622662D01*
X+4981614Y+5635099D01*
X+5118386Y+5635099D01*
X+5215099Y+5538386D01*
X+5215099Y+5401614D01*
X+5118386Y+5304901D01*
X+4981614Y+5304901D01*
X+4884901Y+5401614D01*
X+4884901Y+5538386D01*
X+4897338Y+5550822D01*
X+4708959Y+5739201D01*
X+3440099Y+5739201D01*
X+2749923Y+6429377D01*
X+2730047Y+6409501D01*
X+2572233Y+6409501D01*
X+2460641Y+6521093D01*
X+2460641Y+6678907D01*
X+2572233Y+6790499D01*
X+2730047Y+6790499D01*
X+2841639Y+6678907D01*
G37*
G36*
X+3339479Y+6678907D02*
X+3339479Y+6521093D01*
X+3319603Y+6501217D01*
X+3726021Y+6094799D01*
X+6197041Y+6094799D01*
X+6669178Y+5622662D01*
X+6681614Y+5635099D01*
X+6818386Y+5635099D01*
X+6915099Y+5538386D01*
X+6915099Y+5401614D01*
X+6818386Y+5304901D01*
X+6681614Y+5304901D01*
X+6584901Y+5401614D01*
X+6584901Y+5538386D01*
X+6597338Y+5550822D01*
X+6154959Y+5993201D01*
X+3683939Y+5993201D01*
X+3247763Y+6429377D01*
X+3227887Y+6409501D01*
X+3070073Y+6409501D01*
X+2958481Y+6521093D01*
X+2958481Y+6678907D01*
X+3070073Y+6790499D01*
X+3227887Y+6790499D01*
X+3339479Y+6678907D01*
G37*
G36*
X+3458861Y+6521093D02*
X+3458861Y+6678907D01*
X+3570453Y+6790499D01*
X+3728267Y+6790499D01*
X+3839859Y+6678907D01*
X+3839859Y+6521093D01*
X+3728267Y+6409501D01*
X+3570453Y+6409501D01*
X+3458861Y+6521093D01*
G37*
G36*
X+3959241Y+6521093D02*
X+3959241Y+6678907D01*
X+4070833Y+6790499D01*
X+4228647Y+6790499D01*
X+4340239Y+6678907D01*
X+4340239Y+6521093D01*
X+4228647Y+6409501D01*
X+4070833Y+6409501D01*
X+3959241Y+6521093D01*
G37*
G36*
X+4459621Y+6521093D02*
X+4459621Y+6678907D01*
X+4571213Y+6790499D01*
X+4729027Y+6790499D01*
X+4840619Y+6678907D01*
X+4840619Y+6521093D01*
X+4729027Y+6409501D01*
X+4571213Y+6409501D01*
X+4459621Y+6521093D01*
G37*
G36*
X+4960001Y+6521093D02*
X+4960001Y+6678907D01*
X+5071593Y+6790499D01*
X+5229407Y+6790499D01*
X+5340999Y+6678907D01*
X+5340999Y+6521093D01*
X+5229407Y+6409501D01*
X+5071593Y+6409501D01*
X+4960001Y+6521093D01*
G37*
G36*
X+5460381Y+6521093D02*
X+5460381Y+6678907D01*
X+5571973Y+6790499D01*
X+5729787Y+6790499D01*
X+5841379Y+6678907D01*
X+5841379Y+6521093D01*
X+5729787Y+6409501D01*
X+5571973Y+6409501D01*
X+5460381Y+6521093D01*
G37*
G36*
X+5960761Y+6521093D02*
X+5960761Y+6678907D01*
X+6072353Y+6790499D01*
X+6230167Y+6790499D01*
X+6341759Y+6678907D01*
X+6341759Y+6521093D01*
X+6230167Y+6409501D01*
X+6072353Y+6409501D01*
X+5960761Y+6521093D01*
G37*
G36*
X+6458601Y+6521093D02*
X+6458601Y+6678907D01*
X+6570193Y+6790499D01*
X+6728007Y+6790499D01*
X+6839599Y+6678907D01*
X+6839599Y+6521093D01*
X+6728007Y+6409501D01*
X+6570193Y+6409501D01*
X+6458601Y+6521093D01*
G37*
G36*
X+2024199Y+2519563D02*
X+2024199Y+2456437D01*
X+1979563Y+2411801D01*
X+1916437Y+2411801D01*
X+1891037Y+2437201D01*
X+1888359Y+2437201D01*
X+1888359Y+2228042D01*
X+1911916Y+2251599D01*
X+1996084Y+2251599D01*
X+2055599Y+2192084D01*
X+2055599Y+2107916D01*
X+1996084Y+2048401D01*
X+1911916Y+2048401D01*
X+1888359Y+2071958D01*
X+1888359Y+2017790D01*
X+2071041Y+2017790D01*
X+2071042Y+2017789D01*
X+2222719Y+2017789D01*
X+2222719Y+1822211D01*
X+1877281Y+1822211D01*
X+1877281Y+1916192D01*
X+1822719Y+1916192D01*
X+1822719Y+1822211D01*
X+1477281Y+1822211D01*
X+1477281Y+1869202D01*
X+1418959Y+1869202D01*
X+1389201Y+1898960D01*
X+1389201Y+2171041D01*
X+1418959Y+2200799D01*
X+1598401Y+2200799D01*
X+1598401Y+2251599D01*
X+1786761Y+2251599D01*
X+1786761Y+2509041D01*
X+1816519Y+2538799D01*
X+1891037Y+2538799D01*
X+1916437Y+2564199D01*
X+1979563Y+2564199D01*
X+2024199Y+2519563D01*
G37*
G36*
X+2218386Y+5304901D02*
X+2081614Y+5304901D01*
X+1984901Y+5401614D01*
X+1984901Y+5538386D01*
X+2081614Y+5635099D01*
X+2218386Y+5635099D01*
X+2315099Y+5538386D01*
X+2315099Y+5401614D01*
X+2218386Y+5304901D01*
G37*
G36*
X+3418386Y+5304901D02*
X+3281614Y+5304901D01*
X+3184901Y+5401614D01*
X+3184901Y+5538386D01*
X+3281614Y+5635099D01*
X+3418386Y+5635099D01*
X+3515099Y+5538386D01*
X+3515099Y+5401614D01*
X+3418386Y+5304901D01*
G37*
G36*
X+518386Y+5304901D02*
X+381614Y+5304901D01*
X+284901Y+5401614D01*
X+284901Y+5538386D01*
X+381614Y+5635099D01*
X+518386Y+5635099D01*
X+615099Y+5538386D01*
X+615099Y+5401614D01*
X+518386Y+5304901D01*
G37*
G36*
X+1718386Y+5304901D02*
X+1581614Y+5304901D01*
X+1484901Y+5401614D01*
X+1484901Y+5538386D01*
X+1581614Y+5635099D01*
X+1718386Y+5635099D01*
X+1815099Y+5538386D01*
X+1815099Y+5401614D01*
X+1718386Y+5304901D01*
G37*
G36*
X+3918386Y+5304901D02*
X+3781614Y+5304901D01*
X+3684901Y+5401614D01*
X+3684901Y+5538386D01*
X+3781614Y+5635099D01*
X+3918386Y+5635099D01*
X+4015099Y+5538386D01*
X+4015099Y+5401614D01*
X+3918386Y+5304901D01*
G37*
G36*
X+5618386Y+5304901D02*
X+5481614Y+5304901D01*
X+5384901Y+5401614D01*
X+5384901Y+5538386D01*
X+5481614Y+5635099D01*
X+5618386Y+5635099D01*
X+5715099Y+5538386D01*
X+5715099Y+5401614D01*
X+5618386Y+5304901D01*
G37*
G36*
X+938950Y+1068099D02*
X+1161050Y+1068099D01*
X+1318099Y+911050D01*
X+1318099Y+688950D01*
X+1161050Y+531901D01*
X+938950Y+531901D01*
X+781901Y+688950D01*
X+781901Y+911050D01*
X+938950Y+1068099D01*
G37*
G36*
X+2067099Y+3400798D02*
X+2141901Y+3400798D01*
X+2141901Y+3478099D01*
X+2378099Y+3478099D01*
X+2378099Y+3221901D01*
X+2141901Y+3221901D01*
X+2141901Y+3299200D01*
X+2067099Y+3299200D01*
X+2067099Y+3207901D01*
X+1632901Y+3207901D01*
X+1632901Y+3492099D01*
X+2067099Y+3492099D01*
X+2067099Y+3400798D01*
G37*
G36*
X+186901Y+6541021D02*
X+186901Y+6758979D01*
X+341021Y+6913099D01*
X+558979Y+6913099D01*
X+713099Y+6758979D01*
X+713099Y+6541021D01*
X+558979Y+6386901D01*
X+341021Y+6386901D01*
X+186901Y+6541021D01*
G37*
%LPD*%
G36*
X+6989040Y+60960D02*
X+6304679Y+60960D01*
X+6316799Y+73080D01*
X+6316799Y+434959D01*
X+6398401Y+516561D01*
X+6398401Y+348401D01*
X+6601599Y+348401D01*
X+6601599Y+551599D01*
X+6433439Y+551599D01*
X+6515641Y+633801D01*
X+6551563Y+633801D01*
X+6596199Y+678437D01*
X+6596199Y+741563D01*
X+6551563Y+786199D01*
X+6488437Y+786199D01*
X+6443801Y+741563D01*
X+6443801Y+705641D01*
X+6215201Y+477041D01*
X+6215201Y+144918D01*
X+6017789Y+144918D01*
X+6017789Y+472719D01*
X+5970799Y+472719D01*
X+5970799Y+521041D01*
X+5964559Y+527281D01*
X+6017789Y+527281D01*
X+6017789Y+872719D01*
X+5970799Y+872719D01*
X+5970799Y+921041D01*
X+5964559Y+927281D01*
X+6017789Y+927281D01*
X+6017789Y+1049201D01*
X+6899476Y+1049202D01*
X+6929234Y+1078960D01*
X+6929234Y+3525041D01*
X+6899476Y+3554799D01*
X+4228959Y+3554799D01*
X+4199201Y+3525041D01*
X+4199201Y+3492099D01*
X+4032901Y+3492099D01*
X+4032901Y+3207901D01*
X+4467099Y+3207901D01*
X+4467099Y+3453201D01*
X+6827636Y+3453201D01*
X+6827636Y+3232047D01*
X+6796084Y+3263599D01*
X+6711916Y+3263599D01*
X+6652401Y+3204084D01*
X+6652401Y+3132241D01*
X+6058959Y+2538799D01*
X+5736959Y+2538799D01*
X+5707201Y+2509041D01*
X+5707201Y+1776799D01*
X+5547789Y+1776799D01*
X+5547789Y+2072719D01*
X+5500799Y+2072719D01*
X+5500799Y+2121041D01*
X+5494559Y+2127281D01*
X+5547789Y+2127281D01*
X+5547789Y+2472719D01*
X+5500799Y+2472719D01*
X+5500799Y+2509041D01*
X+5471041Y+2538799D01*
X+4974959Y+2538799D01*
X+4950799Y+2514639D01*
X+4950799Y+2610301D01*
X+5293699Y+2610301D01*
X+5293699Y+2801911D01*
X+5296409Y+2799201D01*
X+5541901Y+2799201D01*
X+5541901Y+2721901D01*
X+5778099Y+2721901D01*
X+5778099Y+2945201D01*
X+5821901Y+2945201D01*
X+5821901Y+2721901D01*
X+6058099Y+2721901D01*
X+6058099Y+2799201D01*
X+6209041Y+2799201D01*
X+6470241Y+3060401D01*
X+6542084Y+3060401D01*
X+6601599Y+3119916D01*
X+6601599Y+3204084D01*
X+6542084Y+3263599D01*
X+6457916Y+3263599D01*
X+6398401Y+3204084D01*
X+6398401Y+3132241D01*
X+6166959Y+2900799D01*
X+6058099Y+2900799D01*
X+6058099Y+2978099D01*
X+5990799Y+2978099D01*
X+5990799Y+3017041D01*
X+5961041Y+3046799D01*
X+5300799Y+3046799D01*
X+5300799Y+3110301D01*
X+6151699Y+3110301D01*
X+6151699Y+3389699D01*
X+5110301Y+3389699D01*
X+5110301Y+3110301D01*
X+5199201Y+3110301D01*
X+5199201Y+2974959D01*
X+5205911Y+2968249D01*
X+4030799Y+2968249D01*
X+4030799Y+3580201D01*
X+6592111Y+3580201D01*
X+6989040Y+3977130D01*
X+6989040Y+60960D01*
G37*
%LPC*%
G36*
X+6652401Y+407916D02*
X+6652401Y+492084D01*
X+6711916Y+551599D01*
X+6796084Y+551599D01*
X+6855599Y+492084D01*
X+6855599Y+407916D01*
X+6796084Y+348401D01*
X+6711916Y+348401D01*
X+6652401Y+407916D01*
G37*
%LPD*%
G36*
X+2166080Y+674080D02*
X+2180959Y+659201D01*
X+3211901Y+659201D01*
X+3211901Y+311901D01*
X+3349201Y+311901D01*
X+3349201Y+180959D01*
X+3378959Y+151201D01*
X+5352211Y+151201D01*
X+5352211Y+127281D01*
X+5399201Y+127281D01*
X+5399201Y+73080D01*
X+5411321Y+60960D01*
X+1495109Y+60960D01*
X+1643099Y+208950D01*
X+1643099Y+431050D01*
X+1580248Y+493901D01*
X+1801790Y+493901D01*
X+1981099Y+673210D01*
X+1981099Y+859061D01*
X+2166080Y+674080D01*
G37*
%LPC*%
G36*
X+2236901Y+241021D02*
X+2236901Y+458979D01*
X+2391021Y+613099D01*
X+2608979Y+613099D01*
X+2763099Y+458979D01*
X+2763099Y+241021D01*
X+2608979Y+86901D01*
X+2391021Y+86901D01*
X+2236901Y+241021D01*
G37*
%LPD*%
G36*
X+6827636Y+2470047D02*
X+6796084Y+2501599D01*
X+6711916Y+2501599D01*
X+6652401Y+2442084D01*
X+6652401Y+2357916D01*
X+6704317Y+2306000D01*
X+6652401Y+2254084D01*
X+6652401Y+2169916D01*
X+6711916Y+2110401D01*
X+6796084Y+2110401D01*
X+6827636Y+2141953D01*
X+6827636Y+1520047D01*
X+6796084Y+1551599D01*
X+6711916Y+1551599D01*
X+6677799Y+1517482D01*
X+6677799Y+2106041D01*
X+6601599Y+2182241D01*
X+6601599Y+2254084D01*
X+6557282Y+2298401D01*
X+6601599Y+2298401D01*
X+6601599Y+2501599D01*
X+6398401Y+2501599D01*
X+6398401Y+2450799D01*
X+6336559Y+2450799D01*
X+6236559Y+2350799D01*
X+6017789Y+2350799D01*
X+6017789Y+2437201D01*
X+6101041Y+2437201D01*
X+6724241Y+3060401D01*
X+6796084Y+3060401D01*
X+6827636Y+3091953D01*
X+6827636Y+2470047D01*
G37*
G36*
X+6711916Y+1348401D02*
X+6796084Y+1348401D01*
X+6827636Y+1379953D01*
X+6827636Y+1282047D01*
X+6796084Y+1313599D01*
X+6711916Y+1313599D01*
X+6652401Y+1254084D01*
X+6652401Y+1169916D01*
X+6671519Y+1150798D01*
X+6582481Y+1150798D01*
X+6601599Y+1169916D01*
X+6601599Y+1241759D01*
X+6677799Y+1317959D01*
X+6677799Y+1382518D01*
X+6711916Y+1348401D01*
G37*
G36*
X+5295156Y+993699D02*
X+5072199Y+993699D01*
X+5072199Y+995563D01*
X+5027563Y+1040199D01*
X+4991641Y+1040199D01*
X+4982638Y+1049202D01*
X+5295156Y+1049202D01*
X+5295156Y+993699D01*
G37*
G36*
X+3167201Y+760799D02*
X+3088099Y+760799D01*
X+3088099Y+888099D01*
X+2711901Y+888099D01*
X+2711901Y+760799D01*
X+2579398Y+760799D01*
X+2579398Y+968063D01*
X+2598259Y+949202D01*
X+2711901Y+949202D01*
X+2711901Y+911901D01*
X+3088099Y+911901D01*
X+3088099Y+1049201D01*
X+3167201Y+1049201D01*
X+3167201Y+760799D01*
G37*
G36*
X+4133030Y+1064080D02*
X+4147908Y+1049202D01*
X+4511901Y+1049202D01*
X+4511901Y+911901D01*
X+4888099Y+911901D01*
X+4888099Y+949201D01*
X+4919801Y+949201D01*
X+4919801Y+932437D01*
X+4964437Y+887801D01*
X+5027563Y+887801D01*
X+5060301Y+920539D01*
X+5060301Y+650799D01*
X+4509041Y+650799D01*
X+4145041Y+1014799D01*
X+4001041Y+1014799D01*
X+3776799Y+1239041D01*
X+3776799Y+1420311D01*
X+4133030Y+1064080D01*
G37*
%LPC*%
G36*
X+4511901Y+888099D02*
X+4888099Y+888099D01*
X+4888099Y+711901D01*
X+4511901Y+711901D01*
X+4511901Y+888099D01*
G37*
%LPD*%
D10*
X+1050000Y+4050000D02*
X+678000Y+3678000D01*
X+678000Y+1872000D01*
X+900000Y+1650000D01*
X+2750000Y+4050000D02*
X+1050000Y+4050000D01*
X+4450000Y+4050000D02*
X+6150000Y+4050000D01*
X+2750000Y+4050000D02*
X+4450000Y+4050000D01*
X+2651140Y+6600000D02*
X+3461140Y+5790000D01*
X+4730000Y+5790000D01*
X+5050000Y+5470000D01*
X+3148980Y+6600000D02*
X+3704980Y+6044000D01*
X+6176000Y+6044000D01*
X+6750000Y+5470000D01*
X+2202000Y+2996000D02*
X+2202000Y+2284900D01*
X+2619300Y+2284900D01*
X+2619300Y+1000000D01*
X+2900000Y+1000000D01*
X+3218000Y+1218000D02*
X+3200000Y+1200000D01*
X+2900000Y+1200000D01*
X+3218000Y+1980000D02*
X+3218000Y+1400000D01*
X+2900000Y+1400000D01*
X+2900000Y+1600000D02*
X+2710000Y+1600000D01*
X+2710000Y+1100000D01*
X+3218000Y+1100000D01*
X+3218000Y+710000D01*
X+2202000Y+710000D01*
X+1694000Y+1218000D01*
X+1440000Y+1218000D01*
X+1440000Y+1450000D01*
X+1650000Y+1450000D01*
X+1700000Y+2150000D02*
X+1440000Y+2150000D01*
X+1440000Y+1920000D01*
X+1650000Y+1920000D01*
X+1948000Y+2742000D02*
X+1440000Y+2742000D01*
X+1186000Y+2488000D01*
X+1186000Y+1980000D01*
X+1440000Y+1726000D01*
X+2050000Y+1726000D01*
X+2050000Y+1450000D01*
X+1948000Y+2488000D02*
X+1837560Y+2488000D01*
X+1837560Y+1966991D01*
X+2050000Y+1966991D01*
X+2050000Y+1920000D01*
X+1977000Y+3350000D02*
X+1977000Y+3349999D01*
X+2260000Y+3349999D01*
X+2260000Y+3350000D01*
X+4700000Y+1400000D02*
X+4996000Y+1400000D01*
X+4996000Y+2488000D01*
X+5450000Y+2488000D01*
X+5450000Y+2300000D01*
X+4700000Y+1400000D02*
X+4416000Y+1400000D01*
X+4234000Y+1218000D01*
X+6500000Y+2400000D02*
X+6357600Y+2400000D01*
X+6257600Y+2300000D01*
X+5920000Y+2300000D01*
X+6754000Y+3162000D02*
X+6080000Y+2488000D01*
X+5758000Y+2488000D01*
X+5758000Y+1726000D01*
X+5326505Y+1726000D01*
X+5326505Y+1300000D01*
X+5450000Y+1300000D01*
X+5450000Y+1100000D01*
X+4250000Y+3350000D02*
X+4250000Y+3504000D01*
X+6878435Y+3504000D01*
X+6878435Y+1100000D01*
X+5920000Y+1100000D01*
X+2710000Y+2742000D02*
X+2360000Y+2742000D01*
X+2360000Y+2950000D01*
X+4700000Y+1200000D02*
X+4996000Y+1200000D01*
X+5250000Y+1454000D01*
X+5250000Y+2100000D01*
X+5450000Y+2100000D01*
X+5450000Y+1900000D01*
X+6500000Y+1450000D02*
X+6500000Y+1900000D01*
X+5920000Y+1900000D01*
X+5758000Y+710000D02*
X+5748000Y+700000D01*
X+5450000Y+700000D01*
X+3600000Y+3350000D02*
X+3600000Y+2742000D01*
X+3796950Y+2545050D01*
X+3796950Y+1472000D01*
X+4168950Y+1100000D01*
X+5345955Y+1100000D01*
X+5345955Y+900000D01*
X+5920000Y+900000D01*
X+5920000Y+700000D01*
X+3727000Y+3350000D02*
X+3727000Y+3504000D01*
X+3981000Y+3758000D01*
X+6258000Y+3758000D01*
X+6750000Y+4250000D01*
X+3218000Y+2996000D02*
X+3218000Y+2360900D01*
X+2360000Y+2360900D01*
X+2360000Y+2500000D01*
X+5758000Y+1472000D02*
X+5730000Y+1500000D01*
X+5450000Y+1500000D01*
X+4996000Y+964000D02*
X+4960000Y+1000000D01*
X+4700000Y+1000000D01*
X+6266000Y+1472000D02*
X+6266000Y+1726000D01*
X+5920000Y+1726000D01*
X+5920000Y+1500000D01*
X+6520000Y+710000D02*
X+6266000Y+456000D01*
X+6266000Y+94120D01*
X+5450000Y+94120D01*
X+5450000Y+300000D01*
X+3000000Y+3350000D02*
X+3000000Y+3075150D01*
X+3338550Y+3075150D01*
X+3338550Y+2299100D01*
X+2710000Y+2299100D01*
X+2710000Y+2100000D01*
X+3400000Y+2100000D01*
X+3400000Y+202000D01*
X+5345955Y+202000D01*
X+5345955Y+500000D01*
X+5920000Y+500000D01*
X+5920000Y+300000D01*
X+3350000Y+4250000D02*
X+3874000Y+4774000D01*
X+6520000Y+4774000D01*
X+6952070Y+4341930D01*
X+6952070Y+4012000D01*
X+6571070Y+3631000D01*
X+3980000Y+3631000D01*
X+3980000Y+2917450D01*
X+5250000Y+2917450D01*
X+5317450Y+2850000D01*
X+5660000Y+2850000D01*
X+4900000Y+2750000D02*
X+4900000Y+2000000D01*
X+4700000Y+2000000D01*
X+5200000Y+600000D02*
X+4488000Y+600000D01*
X+4124000Y+964000D01*
X+3980000Y+964000D01*
X+3726000Y+1218000D01*
X+3726000Y+2200000D01*
X+2900000Y+2200000D01*
X+4234000Y+1726000D02*
X+4360000Y+1600000D01*
X+4700000Y+1600000D01*
X+4234000Y+1980000D02*
X+4488000Y+1980000D01*
X+4488000Y+1800000D01*
X+4700000Y+1800000D01*
X+3980000Y+1980000D02*
X+4200000Y+2200000D01*
X+4700000Y+2200000D01*
X+1723000Y+3350000D02*
X+1723000Y+3504000D01*
X+2710000Y+3504000D01*
X+3473000Y+3350000D02*
X+3473000Y+3504000D01*
X+2710000Y+3504000D01*
X+2710000Y+3350000D02*
X+2710000Y+3504000D01*
X+5504000Y+3250000D02*
X+5504000Y+3421450D01*
X+4742000Y+3421450D01*
X+4316550Y+2996000D01*
X+4123000Y+2996000D01*
X+4123000Y+3350000D01*
X+900000Y+3308000D02*
X+1723000Y+3308000D01*
X+1723000Y+3350000D01*
X+1954000Y+2150000D02*
X+2202000Y+2150000D01*
X+2232000Y+2120000D01*
X+2439699Y+2120000D01*
X+2710000Y+3350000D02*
X+2873000Y+3350000D01*
X+5250000Y+3250000D02*
X+5250000Y+2996000D01*
X+5940000Y+2996000D01*
X+5940000Y+2850000D01*
X+6500000Y+3162000D02*
X+6188000Y+2850000D01*
X+5940000Y+2850000D01*
X+2640000Y+2950000D02*
X+2964000Y+2950000D01*
X+2964000Y+2488000D01*
X+1700000Y+2912000D02*
X+1588000Y+2800000D01*
X+900000Y+2800000D01*
X+2640000Y+2950000D02*
X+2640000Y+3114901D01*
X+2540000Y+3214901D01*
X+2540000Y+3350000D01*
X+2964000Y+2488000D02*
X+2952000Y+2500000D01*
X+2640000Y+2500000D01*
X+2150000Y+4250000D02*
X+1880000Y+4520000D01*
X+720000Y+4520000D01*
X+450000Y+4250000D01*
X+3850000Y+4250000D02*
X+4120000Y+4520000D01*
X+5280000Y+4520000D01*
X+5550000Y+4250000D01*
X+6500000Y+2212000D02*
X+6627000Y+2085000D01*
X+6627000Y+1339000D01*
X+6500000Y+1212000D01*
D11*
X+2202000Y+2996000D03*
X+3218000Y+1218000D03*
X+3218000Y+1980000D03*
X+1948000Y+2742000D03*
X+1948000Y+2488000D03*
X+4234000Y+1218000D03*
X+2710000Y+2742000D03*
X+5758000Y+710000D03*
X+3218000Y+2996000D03*
X+5758000Y+1472000D03*
X+4996000Y+964000D03*
X+6266000Y+1472000D03*
X+6520000Y+710000D03*
X+4234000Y+1726000D03*
X+4234000Y+1980000D03*
X+3980000Y+1980000D03*
X+2964000Y+2488000D03*
D10*
X+6989040Y+4376800D02*
X+6541041Y+4824799D01*
X+3852959Y+4824799D01*
X+3430822Y+4402662D01*
X+3418386Y+4415099D01*
X+3281614Y+4415099D01*
X+3184901Y+4318386D01*
X+3184901Y+4181614D01*
X+3265716Y+4100799D01*
X+2915099Y+4100799D01*
X+2915099Y+4118386D01*
X+2818386Y+4215099D01*
X+2681614Y+4215099D01*
X+2584901Y+4118386D01*
X+2584901Y+4100799D01*
X+2234284Y+4100799D01*
X+2315099Y+4181614D01*
X+2315099Y+4318386D01*
X+2218386Y+4415099D01*
X+2081614Y+4415099D01*
X+2069178Y+4402662D01*
X+1901041Y+4570799D01*
X+698959Y+4570799D01*
X+530822Y+4402662D01*
X+518386Y+4415099D01*
X+381614Y+4415099D01*
X+284901Y+4318386D01*
X+284901Y+4181614D01*
X+381614Y+4084901D01*
X+518386Y+4084901D01*
X+615099Y+4181614D01*
X+615099Y+4318386D01*
X+602662Y+4330822D01*
X+741041Y+4469201D01*
X+1858959Y+4469201D01*
X+1997338Y+4330822D01*
X+1984901Y+4318386D01*
X+1984901Y+4181614D01*
X+2065716Y+4100799D01*
X+1734284Y+4100799D01*
X+1815099Y+4181614D01*
X+1815099Y+4318386D01*
X+1718386Y+4415099D01*
X+1581614Y+4415099D01*
X+1484901Y+4318386D01*
X+1484901Y+4181614D01*
X+1565716Y+4100799D01*
X+1215099Y+4100799D01*
X+1215099Y+4118386D01*
X+1118386Y+4215099D01*
X+981614Y+4215099D01*
X+884901Y+4118386D01*
X+884901Y+3981614D01*
X+897338Y+3969178D01*
X+627201Y+3699041D01*
X+627201Y+1850959D01*
X+729377Y+1748783D01*
X+709501Y+1728907D01*
X+709501Y+1571093D01*
X+821093Y+1459501D01*
X+978907Y+1459501D01*
X+1090499Y+1571093D01*
X+1090499Y+1728907D01*
X+978907Y+1840499D01*
X+821093Y+1840499D01*
X+801217Y+1820623D01*
X+728799Y+1893041D01*
X+728799Y+2059795D01*
X+821093Y+1967501D01*
X+978907Y+1967501D01*
X+1090499Y+2079093D01*
X+1090499Y+2236907D01*
X+978907Y+2348499D01*
X+821093Y+2348499D01*
X+728799Y+2256205D01*
X+728799Y+2701795D01*
X+821093Y+2609501D01*
X+978907Y+2609501D01*
X+1090499Y+2721093D01*
X+1090499Y+2749201D01*
X+1375361Y+2749201D01*
X+1135201Y+2509041D01*
X+1135201Y+1958959D01*
X+1418959Y+1675201D01*
X+1999201Y+1675201D01*
X+1999201Y+1547789D01*
X+1877281Y+1547789D01*
X+1877281Y+1352211D01*
X+2222719Y+1352211D01*
X+2222719Y+1547789D01*
X+2100799Y+1547789D01*
X+2100799Y+1747041D01*
X+2071041Y+1776799D01*
X+1461041Y+1776799D01*
X+1236799Y+2001041D01*
X+1236799Y+2466959D01*
X+1461041Y+2691201D01*
X+1891037Y+2691201D01*
X+1916437Y+2665801D01*
X+1979563Y+2665801D01*
X+2024199Y+2710437D01*
X+2024199Y+2773563D01*
X+1987361Y+2810401D01*
X+1996084Y+2810401D01*
X+2055599Y+2869916D01*
X+2055599Y+2954084D01*
X+1996084Y+3013599D01*
X+1911916Y+3013599D01*
X+1852401Y+2954084D01*
X+1852401Y+2869916D01*
X+1910278Y+2812040D01*
X+1891037Y+2792799D01*
X+1652639Y+2792799D01*
X+1670241Y+2810401D01*
X+1742084Y+2810401D01*
X+1801599Y+2869916D01*
X+1801599Y+2954084D01*
X+1742084Y+3013599D01*
X+1657916Y+3013599D01*
X+1598401Y+2954084D01*
X+1598401Y+2882241D01*
X+1566959Y+2850799D01*
X+1090499Y+2850799D01*
X+1090499Y+2878907D01*
X+978907Y+2990499D01*
X+821093Y+2990499D01*
X+728799Y+2898205D01*
X+728799Y+3209795D01*
X+821093Y+3117501D01*
X+978907Y+3117501D01*
X+1090499Y+3229093D01*
X+1090499Y+3386907D01*
X+978907Y+3498499D01*
X+821093Y+3498499D01*
X+728799Y+3406205D01*
X+728799Y+3656959D01*
X+969178Y+3897338D01*
X+981614Y+3884901D01*
X+1118386Y+3884901D01*
X+1215099Y+3981614D01*
X+1215099Y+3999201D01*
X+2584901Y+3999201D01*
X+2584901Y+3981614D01*
X+2681614Y+3884901D01*
X+2818386Y+3884901D01*
X+2915099Y+3981614D01*
X+2915099Y+3999201D01*
X+4284901Y+3999201D01*
X+4284901Y+3981614D01*
X+4381614Y+3884901D01*
X+4518386Y+3884901D01*
X+4615099Y+3981614D01*
X+4615099Y+3999201D01*
X+5984901Y+3999201D01*
X+5984901Y+3981614D01*
X+6081614Y+3884901D01*
X+6218386Y+3884901D01*
X+6315099Y+3981614D01*
X+6315099Y+4118386D01*
X+6218386Y+4215099D01*
X+6081614Y+4215099D01*
X+5984901Y+4118386D01*
X+5984901Y+4100799D01*
X+5634284Y+4100799D01*
X+5715099Y+4181614D01*
X+5715099Y+4318386D01*
X+5618386Y+4415099D01*
X+5481614Y+4415099D01*
X+5469178Y+4402662D01*
X+5301041Y+4570799D01*
X+4098959Y+4570799D01*
X+3930822Y+4402662D01*
X+3918386Y+4415099D01*
X+3781614Y+4415099D01*
X+3684901Y+4318386D01*
X+3684901Y+4181614D01*
X+3765716Y+4100799D01*
X+3434284Y+4100799D01*
X+3515099Y+4181614D01*
X+3515099Y+4318386D01*
X+3502662Y+4330822D01*
X+3895041Y+4723201D01*
X+6498959Y+4723201D01*
X+6807061Y+4415099D01*
X+6681614Y+4415099D01*
X+6584901Y+4318386D01*
X+6584901Y+4181614D01*
X+6597338Y+4169178D01*
X+6236959Y+3808799D01*
X+3959959Y+3808799D01*
X+3676201Y+3525041D01*
X+3676201Y+3492099D01*
X+3382901Y+3492099D01*
X+3382901Y+3207901D01*
X+3549201Y+3207901D01*
X+3549201Y+2720959D01*
X+3746151Y+2524009D01*
X+3746151Y+2250798D01*
X+3362088Y+2250798D01*
X+3389349Y+2278059D01*
X+3389349Y+3096191D01*
X+3359591Y+3125949D01*
X+3050799Y+3125949D01*
X+3050799Y+3207901D01*
X+3217099Y+3207901D01*
X+3217099Y+3492099D01*
X+2782901Y+3492099D01*
X+2782901Y+3207901D01*
X+2949201Y+3207901D01*
X+2949201Y+3054109D01*
X+2978959Y+3024351D01*
X+3141801Y+3024351D01*
X+3141801Y+2964437D01*
X+3167201Y+2939037D01*
X+3167201Y+2411699D01*
X+2758099Y+2411699D01*
X+2758099Y+2449201D01*
X+2895037Y+2449201D01*
X+2932437Y+2411801D01*
X+2995563Y+2411801D01*
X+3040199Y+2456437D01*
X+3040199Y+2519563D01*
X+3014799Y+2544963D01*
X+3014799Y+2971041D01*
X+2985041Y+3000799D01*
X+2758099Y+3000799D01*
X+2758099Y+3078099D01*
X+2690799Y+3078099D01*
X+2690799Y+3135942D01*
X+2604840Y+3221901D01*
X+2658099Y+3221901D01*
X+2658099Y+3478099D01*
X+2421901Y+3478099D01*
X+2421901Y+3221901D01*
X+2489201Y+3221901D01*
X+2489201Y+3193860D01*
X+2589201Y+3093860D01*
X+2589201Y+3078099D01*
X+2521901Y+3078099D01*
X+2521901Y+2821901D01*
X+2758099Y+2821901D01*
X+2758099Y+2899201D01*
X+2913201Y+2899201D01*
X+2913201Y+2550799D01*
X+2758099Y+2550799D01*
X+2758099Y+2628099D01*
X+2521901Y+2628099D01*
X+2521901Y+2411699D01*
X+2478099Y+2411699D01*
X+2478099Y+2628099D01*
X+2252799Y+2628099D01*
X+2252799Y+2821901D01*
X+2309202Y+2821901D01*
X+2309202Y+2720959D01*
X+2338960Y+2691201D01*
X+2653037Y+2691201D01*
X+2678437Y+2665801D01*
X+2741563Y+2665801D01*
X+2786199Y+2710437D01*
X+2786199Y+2773563D01*
X+2741563Y+2818199D01*
X+2678437Y+2818199D01*
X+2653037Y+2792799D01*
X+2410798Y+2792799D01*
X+2410798Y+2821901D01*
X+2478099Y+2821901D01*
X+2478099Y+3078099D01*
X+2241901Y+3078099D01*
X+2241901Y+3063861D01*
X+2233563Y+3072199D01*
X+2170437Y+3072199D01*
X+2125801Y+3027563D01*
X+2125801Y+2964437D01*
X+2151201Y+2939037D01*
X+2151201Y+2263860D01*
X+2180959Y+2234102D01*
X+2300000Y+2234102D01*
X+2300000Y+760799D01*
X+2223041Y+760799D01*
X+1715041Y+1268799D01*
X+1490799Y+1268799D01*
X+1490799Y+1352211D01*
X+1822719Y+1352211D01*
X+1822719Y+1547789D01*
X+1477281Y+1547789D01*
X+1477281Y+1500798D01*
X+1418959Y+1500798D01*
X+1389201Y+1471040D01*
X+1389201Y+1196959D01*
X+1418959Y+1167201D01*
X+1672959Y+1167201D01*
X+1734061Y+1106099D01*
X+1548210Y+1106099D01*
X+1368901Y+926790D01*
X+1368901Y+673210D01*
X+1454012Y+588099D01*
X+1263950Y+588099D01*
X+1106901Y+431050D01*
X+1106901Y+208950D01*
X+1254891Y+60960D01*
X+60960Y+60960D01*
X+60960Y+7139040D01*
X+6989040Y+7139040D01*
X+6989040Y+4376800D01*
X+959501Y+6521093D02*
X+959501Y+6678907D01*
X+1071093Y+6790499D01*
X+1228907Y+6790499D01*
X+1340499Y+6678907D01*
X+1340499Y+6521093D01*
X+1228907Y+6409501D01*
X+1071093Y+6409501D01*
X+959501Y+6521093D01*
X+1459881Y+6521093D02*
X+1459881Y+6678907D01*
X+1571473Y+6790499D01*
X+1729287Y+6790499D01*
X+1840879Y+6678907D01*
X+1840879Y+6521093D01*
X+1729287Y+6409501D01*
X+1571473Y+6409501D01*
X+1459881Y+6521093D01*
X+1960261Y+6521093D02*
X+1960261Y+6678907D01*
X+2071853Y+6790499D01*
X+2229667Y+6790499D01*
X+2341259Y+6678907D01*
X+2341259Y+6521093D01*
X+2229667Y+6409501D01*
X+2071853Y+6409501D01*
X+1960261Y+6521093D01*
X+2841639Y+6678907D02*
X+2841639Y+6521093D01*
X+2821763Y+6501217D01*
X+3482181Y+5840799D01*
X+4751041Y+5840799D01*
X+4969178Y+5622662D01*
X+4981614Y+5635099D01*
X+5118386Y+5635099D01*
X+5215099Y+5538386D01*
X+5215099Y+5401614D01*
X+5118386Y+5304901D01*
X+4981614Y+5304901D01*
X+4884901Y+5401614D01*
X+4884901Y+5538386D01*
X+4897338Y+5550822D01*
X+4708959Y+5739201D01*
X+3440099Y+5739201D01*
X+2749923Y+6429377D01*
X+2730047Y+6409501D01*
X+2572233Y+6409501D01*
X+2460641Y+6521093D01*
X+2460641Y+6678907D01*
X+2572233Y+6790499D01*
X+2730047Y+6790499D01*
X+2841639Y+6678907D01*
X+3339479Y+6678907D02*
X+3339479Y+6521093D01*
X+3319603Y+6501217D01*
X+3726021Y+6094799D01*
X+6197041Y+6094799D01*
X+6669178Y+5622662D01*
X+6681614Y+5635099D01*
X+6818386Y+5635099D01*
X+6915099Y+5538386D01*
X+6915099Y+5401614D01*
X+6818386Y+5304901D01*
X+6681614Y+5304901D01*
X+6584901Y+5401614D01*
X+6584901Y+5538386D01*
X+6597338Y+5550822D01*
X+6154959Y+5993201D01*
X+3683939Y+5993201D01*
X+3247763Y+6429377D01*
X+3227887Y+6409501D01*
X+3070073Y+6409501D01*
X+2958481Y+6521093D01*
X+2958481Y+6678907D01*
X+3070073Y+6790499D01*
X+3227887Y+6790499D01*
X+3339479Y+6678907D01*
X+3458861Y+6521093D02*
X+3458861Y+6678907D01*
X+3570453Y+6790499D01*
X+3728267Y+6790499D01*
X+3839859Y+6678907D01*
X+3839859Y+6521093D01*
X+3728267Y+6409501D01*
X+3570453Y+6409501D01*
X+3458861Y+6521093D01*
X+3959241Y+6521093D02*
X+3959241Y+6678907D01*
X+4070833Y+6790499D01*
X+4228647Y+6790499D01*
X+4340239Y+6678907D01*
X+4340239Y+6521093D01*
X+4228647Y+6409501D01*
X+4070833Y+6409501D01*
X+3959241Y+6521093D01*
X+4459621Y+6521093D02*
X+4459621Y+6678907D01*
X+4571213Y+6790499D01*
X+4729027Y+6790499D01*
X+4840619Y+6678907D01*
X+4840619Y+6521093D01*
X+4729027Y+6409501D01*
X+4571213Y+6409501D01*
X+4459621Y+6521093D01*
X+4960001Y+6521093D02*
X+4960001Y+6678907D01*
X+5071593Y+6790499D01*
X+5229407Y+6790499D01*
X+5340999Y+6678907D01*
X+5340999Y+6521093D01*
X+5229407Y+6409501D01*
X+5071593Y+6409501D01*
X+4960001Y+6521093D01*
X+5460381Y+6521093D02*
X+5460381Y+6678907D01*
X+5571973Y+6790499D01*
X+5729787Y+6790499D01*
X+5841379Y+6678907D01*
X+5841379Y+6521093D01*
X+5729787Y+6409501D01*
X+5571973Y+6409501D01*
X+5460381Y+6521093D01*
X+5960761Y+6521093D02*
X+5960761Y+6678907D01*
X+6072353Y+6790499D01*
X+6230167Y+6790499D01*
X+6341759Y+6678907D01*
X+6341759Y+6521093D01*
X+6230167Y+6409501D01*
X+6072353Y+6409501D01*
X+5960761Y+6521093D01*
X+6458601Y+6521093D02*
X+6458601Y+6678907D01*
X+6570193Y+6790499D01*
X+6728007Y+6790499D01*
X+6839599Y+6678907D01*
X+6839599Y+6521093D01*
X+6728007Y+6409501D01*
X+6570193Y+6409501D01*
X+6458601Y+6521093D01*
X+2024199Y+2519563D02*
X+2024199Y+2456437D01*
X+1979563Y+2411801D01*
X+1916437Y+2411801D01*
X+1891037Y+2437201D01*
X+1888359Y+2437201D01*
X+1888359Y+2228042D01*
X+1911916Y+2251599D01*
X+1996084Y+2251599D01*
X+2055599Y+2192084D01*
X+2055599Y+2107916D01*
X+1996084Y+2048401D01*
X+1911916Y+2048401D01*
X+1888359Y+2071958D01*
X+1888359Y+2017790D01*
X+2071041Y+2017790D01*
X+2071042Y+2017789D01*
X+2222719Y+2017789D01*
X+2222719Y+1822211D01*
X+1877281Y+1822211D01*
X+1877281Y+1916192D01*
X+1822719Y+1916192D01*
X+1822719Y+1822211D01*
X+1477281Y+1822211D01*
X+1477281Y+1869202D01*
X+1418959Y+1869202D01*
X+1389201Y+1898960D01*
X+1389201Y+2171041D01*
X+1418959Y+2200799D01*
X+1598401Y+2200799D01*
X+1598401Y+2251599D01*
X+1786761Y+2251599D01*
X+1786761Y+2509041D01*
X+1816519Y+2538799D01*
X+1891037Y+2538799D01*
X+1916437Y+2564199D01*
X+1979563Y+2564199D01*
X+2024199Y+2519563D01*
X+2218386Y+5304901D02*
X+2081614Y+5304901D01*
X+1984901Y+5401614D01*
X+1984901Y+5538386D01*
X+2081614Y+5635099D01*
X+2218386Y+5635099D01*
X+2315099Y+5538386D01*
X+2315099Y+5401614D01*
X+2218386Y+5304901D01*
X+3418386Y+5304901D02*
X+3281614Y+5304901D01*
X+3184901Y+5401614D01*
X+3184901Y+5538386D01*
X+3281614Y+5635099D01*
X+3418386Y+5635099D01*
X+3515099Y+5538386D01*
X+3515099Y+5401614D01*
X+3418386Y+5304901D01*
X+518386Y+5304901D02*
X+381614Y+5304901D01*
X+284901Y+5401614D01*
X+284901Y+5538386D01*
X+381614Y+5635099D01*
X+518386Y+5635099D01*
X+615099Y+5538386D01*
X+615099Y+5401614D01*
X+518386Y+5304901D01*
X+1718386Y+5304901D02*
X+1581614Y+5304901D01*
X+1484901Y+5401614D01*
X+1484901Y+5538386D01*
X+1581614Y+5635099D01*
X+1718386Y+5635099D01*
X+1815099Y+5538386D01*
X+1815099Y+5401614D01*
X+1718386Y+5304901D01*
X+3918386Y+5304901D02*
X+3781614Y+5304901D01*
X+3684901Y+5401614D01*
X+3684901Y+5538386D01*
X+3781614Y+5635099D01*
X+3918386Y+5635099D01*
X+4015099Y+5538386D01*
X+4015099Y+5401614D01*
X+3918386Y+5304901D01*
X+5618386Y+5304901D02*
X+5481614Y+5304901D01*
X+5384901Y+5401614D01*
X+5384901Y+5538386D01*
X+5481614Y+5635099D01*
X+5618386Y+5635099D01*
X+5715099Y+5538386D01*
X+5715099Y+5401614D01*
X+5618386Y+5304901D01*
X+938950Y+1068099D02*
X+1161050Y+1068099D01*
X+1318099Y+911050D01*
X+1318099Y+688950D01*
X+1161050Y+531901D01*
X+938950Y+531901D01*
X+781901Y+688950D01*
X+781901Y+911050D01*
X+938950Y+1068099D01*
X+2067099Y+3400798D02*
X+2141901Y+3400798D01*
X+2141901Y+3478099D01*
X+2378099Y+3478099D01*
X+2378099Y+3221901D01*
X+2141901Y+3221901D01*
X+2141901Y+3299200D01*
X+2067099Y+3299200D01*
X+2067099Y+3207901D01*
X+1632901Y+3207901D01*
X+1632901Y+3492099D01*
X+2067099Y+3492099D01*
X+2067099Y+3400798D01*
X+186901Y+6541021D02*
X+186901Y+6758979D01*
X+341021Y+6913099D01*
X+558979Y+6913099D01*
X+713099Y+6758979D01*
X+713099Y+6541021D01*
X+558979Y+6386901D01*
X+341021Y+6386901D01*
X+186901Y+6541021D01*
X+6989040Y+60960D02*
X+6304679Y+60960D01*
X+6316799Y+73080D01*
X+6316799Y+434959D01*
X+6398401Y+516561D01*
X+6398401Y+348401D01*
X+6601599Y+348401D01*
X+6601599Y+551599D01*
X+6433439Y+551599D01*
X+6515641Y+633801D01*
X+6551563Y+633801D01*
X+6596199Y+678437D01*
X+6596199Y+741563D01*
X+6551563Y+786199D01*
X+6488437Y+786199D01*
X+6443801Y+741563D01*
X+6443801Y+705641D01*
X+6215201Y+477041D01*
X+6215201Y+144918D01*
X+6017789Y+144918D01*
X+6017789Y+472719D01*
X+5970799Y+472719D01*
X+5970799Y+521041D01*
X+5964559Y+527281D01*
X+6017789Y+527281D01*
X+6017789Y+872719D01*
X+5970799Y+872719D01*
X+5970799Y+921041D01*
X+5964559Y+927281D01*
X+6017789Y+927281D01*
X+6017789Y+1049201D01*
X+6899476Y+1049202D01*
X+6929234Y+1078960D01*
X+6929234Y+3525041D01*
X+6899476Y+3554799D01*
X+4228959Y+3554799D01*
X+4199201Y+3525041D01*
X+4199201Y+3492099D01*
X+4032901Y+3492099D01*
X+4032901Y+3207901D01*
X+4467099Y+3207901D01*
X+4467099Y+3453201D01*
X+6827636Y+3453201D01*
X+6827636Y+3232047D01*
X+6796084Y+3263599D01*
X+6711916Y+3263599D01*
X+6652401Y+3204084D01*
X+6652401Y+3132241D01*
X+6058959Y+2538799D01*
X+5736959Y+2538799D01*
X+5707201Y+2509041D01*
X+5707201Y+1776799D01*
X+5547789Y+1776799D01*
X+5547789Y+2072719D01*
X+5500799Y+2072719D01*
X+5500799Y+2121041D01*
X+5494559Y+2127281D01*
X+5547789Y+2127281D01*
X+5547789Y+2472719D01*
X+5500799Y+2472719D01*
X+5500799Y+2509041D01*
X+5471041Y+2538799D01*
X+4974959Y+2538799D01*
X+4950799Y+2514639D01*
X+4950799Y+2610301D01*
X+5293699Y+2610301D01*
X+5293699Y+2801911D01*
X+5296409Y+2799201D01*
X+5541901Y+2799201D01*
X+5541901Y+2721901D01*
X+5778099Y+2721901D01*
X+5778099Y+2945201D01*
X+5821901Y+2945201D01*
X+5821901Y+2721901D01*
X+6058099Y+2721901D01*
X+6058099Y+2799201D01*
X+6209041Y+2799201D01*
X+6470241Y+3060401D01*
X+6542084Y+3060401D01*
X+6601599Y+3119916D01*
X+6601599Y+3204084D01*
X+6542084Y+3263599D01*
X+6457916Y+3263599D01*
X+6398401Y+3204084D01*
X+6398401Y+3132241D01*
X+6166959Y+2900799D01*
X+6058099Y+2900799D01*
X+6058099Y+2978099D01*
X+5990799Y+2978099D01*
X+5990799Y+3017041D01*
X+5961041Y+3046799D01*
X+5300799Y+3046799D01*
X+5300799Y+3110301D01*
X+6151699Y+3110301D01*
X+6151699Y+3389699D01*
X+5110301Y+3389699D01*
X+5110301Y+3110301D01*
X+5199201Y+3110301D01*
X+5199201Y+2974959D01*
X+5205911Y+2968249D01*
X+4030799Y+2968249D01*
X+4030799Y+3580201D01*
X+6592111Y+3580201D01*
X+6989040Y+3977130D01*
X+6989040Y+60960D01*
X+6652401Y+407916D02*
X+6652401Y+492084D01*
X+6711916Y+551599D01*
X+6796084Y+551599D01*
X+6855599Y+492084D01*
X+6855599Y+407916D01*
X+6796084Y+348401D01*
X+6711916Y+348401D01*
X+6652401Y+407916D01*
X+2166080Y+674080D02*
X+2180959Y+659201D01*
X+3211901Y+659201D01*
X+3211901Y+311901D01*
X+3349201Y+311901D01*
X+3349201Y+180959D01*
X+3378959Y+151201D01*
X+5352211Y+151201D01*
X+5352211Y+127281D01*
X+5399201Y+127281D01*
X+5399201Y+73080D01*
X+5411321Y+60960D01*
X+1495109Y+60960D01*
X+1643099Y+208950D01*
X+1643099Y+431050D01*
X+1580248Y+493901D01*
X+1801790Y+493901D01*
X+1981099Y+673210D01*
X+1981099Y+859061D01*
X+2166080Y+674080D01*
X+2236901Y+241021D02*
X+2236901Y+458979D01*
X+2391021Y+613099D01*
X+2608979Y+613099D01*
X+2763099Y+458979D01*
X+2763099Y+241021D01*
X+2608979Y+86901D01*
X+2391021Y+86901D01*
X+2236901Y+241021D01*
X+6827636Y+2470047D02*
X+6796084Y+2501599D01*
X+6711916Y+2501599D01*
X+6652401Y+2442084D01*
X+6652401Y+2357916D01*
X+6704317Y+2306000D01*
X+6652401Y+2254084D01*
X+6652401Y+2169916D01*
X+6711916Y+2110401D01*
X+6796084Y+2110401D01*
X+6827636Y+2141953D01*
X+6827636Y+1520047D01*
X+6796084Y+1551599D01*
X+6711916Y+1551599D01*
X+6677799Y+1517482D01*
X+6677799Y+2106041D01*
X+6601599Y+2182241D01*
X+6601599Y+2254084D01*
X+6557282Y+2298401D01*
X+6601599Y+2298401D01*
X+6601599Y+2501599D01*
X+6398401Y+2501599D01*
X+6398401Y+2450799D01*
X+6336559Y+2450799D01*
X+6236559Y+2350799D01*
X+6017789Y+2350799D01*
X+6017789Y+2437201D01*
X+6101041Y+2437201D01*
X+6724241Y+3060401D01*
X+6796084Y+3060401D01*
X+6827636Y+3091953D01*
X+6827636Y+2470047D01*
X+6711916Y+1348401D02*
X+6796084Y+1348401D01*
X+6827636Y+1379953D01*
X+6827636Y+1282047D01*
X+6796084Y+1313599D01*
X+6711916Y+1313599D01*
X+6652401Y+1254084D01*
X+6652401Y+1169916D01*
X+6671519Y+1150798D01*
X+6582481Y+1150798D01*
X+6601599Y+1169916D01*
X+6601599Y+1241759D01*
X+6677799Y+1317959D01*
X+6677799Y+1382518D01*
X+6711916Y+1348401D01*
X+5295156Y+993699D02*
X+5072199Y+993699D01*
X+5072199Y+995563D01*
X+5027563Y+1040199D01*
X+4991641Y+1040199D01*
X+4982638Y+1049202D01*
X+5295156Y+1049202D01*
X+5295156Y+993699D01*
X+3167201Y+760799D02*
X+3088099Y+760799D01*
X+3088099Y+888099D01*
X+2711901Y+888099D01*
X+2711901Y+760799D01*
X+2579398Y+760799D01*
X+2579398Y+968063D01*
X+2598259Y+949202D01*
X+2711901Y+949202D01*
X+2711901Y+911901D01*
X+3088099Y+911901D01*
X+3088099Y+1049201D01*
X+3167201Y+1049201D01*
X+3167201Y+760799D01*
X+4133030Y+1064080D02*
X+4147908Y+1049202D01*
X+4511901Y+1049202D01*
X+4511901Y+911901D01*
X+4888099Y+911901D01*
X+4888099Y+949201D01*
X+4919801Y+949201D01*
X+4919801Y+932437D01*
X+4964437Y+887801D01*
X+5027563Y+887801D01*
X+5060301Y+920539D01*
X+5060301Y+650799D01*
X+4509041Y+650799D01*
X+4145041Y+1014799D01*
X+4001041Y+1014799D01*
X+3776799Y+1239041D01*
X+3776799Y+1420311D01*
X+4133030Y+1064080D01*
X+4511901Y+888099D02*
X+4888099Y+888099D01*
X+4888099Y+711901D01*
X+4511901Y+711901D01*
X+4511901Y+888099D01*
X+6458601Y+6600000D02*
X+6649100Y+6600000D01*
X+6839599Y+6600000D02*
X+6649100Y+6600000D01*
X+6649100Y+6409501D02*
X+6649100Y+6600000D01*
X+6649100Y+6790499D02*
X+6649100Y+6600000D01*
X+2055599Y+2150000D02*
X+1954000Y+2150000D01*
X+1954000Y+2048401D02*
X+1954000Y+2150000D01*
X+1954000Y+2251599D02*
X+1954000Y+2150000D01*
X+6652401Y+2400000D02*
X+6754000Y+2400000D01*
X+6754000Y+2501599D02*
X+6754000Y+2400000D01*
X+6754000Y+1348401D02*
X+6754000Y+1450000D01*
X+6754000Y+1551599D02*
X+6754000Y+1450000D01*
X+6652401Y+450000D02*
X+6754000Y+450000D01*
X+6855599Y+450000D02*
X+6754000Y+450000D01*
X+6754000Y+348401D02*
X+6754000Y+450000D01*
X+6754000Y+551599D02*
X+6754000Y+450000D01*
X+900000Y+3117501D02*
X+900000Y+3308000D01*
X+900000Y+3498499D02*
X+900000Y+3308000D01*
X+1090499Y+3308000D02*
X+900000Y+3308000D01*
X+5504000Y+3110301D02*
X+5504000Y+3250000D01*
X+5504000Y+3389699D02*
X+5504000Y+3250000D01*
X+1375000Y+588099D02*
X+1375000Y+320000D01*
X+1106901Y+320000D02*
X+1375000Y+320000D01*
X+1643099Y+320000D02*
X+1375000Y+320000D01*
X+1050000Y+1068099D02*
X+1050000Y+800000D01*
X+1050000Y+531901D02*
X+1050000Y+800000D01*
X+781901Y+800000D02*
X+1050000Y+800000D01*
X+1318099Y+800000D02*
X+1050000Y+800000D01*
X+1632901Y+3350000D02*
X+1723000Y+3350000D01*
X+1723000Y+3207901D02*
X+1723000Y+3350000D01*
X+1723000Y+3492099D02*
X+1723000Y+3350000D01*
X+4032901Y+3350000D02*
X+4123000Y+3350000D01*
X+4123000Y+3207901D02*
X+4123000Y+3350000D01*
X+4123000Y+3492099D02*
X+4123000Y+3350000D01*
X+3382901Y+3350000D02*
X+3473000Y+3350000D01*
X+3473000Y+3207901D02*
X+3473000Y+3350000D01*
X+3473000Y+3492099D02*
X+3473000Y+3350000D01*
X+2782901Y+3350000D02*
X+2873000Y+3350000D01*
X+2873000Y+3207901D02*
X+2873000Y+3350000D01*
X+2873000Y+3492099D02*
X+2873000Y+3350000D01*
X+2579398Y+850000D02*
X+2439699Y+850000D01*
X+2300000Y+850000D02*
X+2439699Y+850000D01*
X+2300000Y+2120000D02*
X+2439699Y+2120000D01*
X+5200000Y+993699D02*
X+5200000Y+854000D01*
X+5060301Y+854000D02*
X+5200000Y+854000D01*
D12*
X+1150000Y+6600000D03*
X+1650380Y+6600000D03*
X+2150760Y+6600000D03*
X+2651140Y+6600000D03*
X+3148980Y+6600000D03*
X+3649360Y+6600000D03*
X+4149740Y+6600000D03*
X+4650120Y+6600000D03*
X+5150500Y+6600000D03*
X+5650880Y+6600000D03*
X+6151260Y+6600000D03*
X+6649100Y+6600000D03*
D13*
X+2900000Y+2200000D03*
X+2900000Y+2000000D03*
X+2900000Y+1800000D03*
X+2900000Y+1600000D03*
X+2900000Y+1400000D03*
X+2900000Y+1200000D03*
X+2900000Y+1000000D03*
X+2900000Y+800000D03*
D14*
X+3300000Y+500000D03*
X+3500000Y+500000D03*
X+3700000Y+500000D03*
X+3900000Y+500000D03*
X+4100000Y+500000D03*
X+4300000Y+500000D03*
D13*
X+4700000Y+800000D03*
X+4700000Y+1000000D03*
X+4700000Y+1200000D03*
X+4700000Y+1400000D03*
X+4700000Y+1600000D03*
X+4700000Y+1800000D03*
X+4700000Y+2000000D03*
X+4700000Y+2200000D03*
D15*
X+1650000Y+1450000D03*
X+1650000Y+1920000D03*
D16*
X+5450000Y+2300000D03*
X+5920000Y+2300000D03*
X+5450000Y+1900000D03*
X+5920000Y+1900000D03*
X+5450000Y+1500000D03*
X+5920000Y+1500000D03*
D17*
X+1700000Y+2150000D03*
D18*
X+1954000Y+2150000D03*
X+1954000Y+2912000D03*
X+1700000Y+2912000D03*
D17*
X+6500000Y+2400000D03*
D18*
X+6754000Y+2400000D03*
X+6754000Y+3162000D03*
X+6500000Y+3162000D03*
D17*
X+6500000Y+1450000D03*
D18*
X+6754000Y+1450000D03*
X+6754000Y+2212000D03*
X+6500000Y+2212000D03*
D17*
X+6500000Y+450000D03*
D18*
X+6754000Y+450000D03*
X+6754000Y+1212000D03*
X+6500000Y+1212000D03*
D12*
X+900000Y+2800000D03*
X+900000Y+3308000D03*
X+900000Y+1650000D03*
X+900000Y+2158000D03*
D19*
X+2150000Y+4250000D03*
X+3350000Y+4250000D03*
X+2750000Y+4050000D03*
X+2150000Y+5470000D03*
X+3350000Y+5470000D03*
X+450000Y+4250000D03*
X+1650000Y+4250000D03*
X+1050000Y+4050000D03*
X+450000Y+5470000D03*
X+1650000Y+5470000D03*
X+3850000Y+4250000D03*
X+5050000Y+4250000D03*
X+4450000Y+4050000D03*
X+3850000Y+5470000D03*
X+5050000Y+5470000D03*
X+5550000Y+4250000D03*
X+6750000Y+4250000D03*
X+6150000Y+4050000D03*
X+5550000Y+5470000D03*
X+6750000Y+5470000D03*
D70*
X+5250000Y+3250000D03*
X+5504000Y+3250000D03*
X+5758000Y+3250000D03*
X+6012000Y+3250000D03*
D71*
X+1375000Y+320000D03*
X+1050000Y+800000D03*
D20*
X+1675000Y+800000D03*
D70*
X+4900000Y+2750000D03*
X+5154000Y+2750000D03*
D21*
X+1723000Y+3350000D03*
X+1850000Y+3350000D03*
X+1977000Y+3350000D03*
X+4123000Y+3350000D03*
X+4250000Y+3350000D03*
X+4377000Y+3350000D03*
X+3473000Y+3350000D03*
X+3600000Y+3350000D03*
X+3727000Y+3350000D03*
X+2873000Y+3350000D03*
X+3000000Y+3350000D03*
X+3127000Y+3350000D03*
D15*
X+2050000Y+1450000D03*
X+2050000Y+1920000D03*
D16*
X+5450000Y+1100000D03*
X+5920000Y+1100000D03*
X+5450000Y+700000D03*
X+5920000Y+700000D03*
X+5450000Y+300000D03*
X+5920000Y+300000D03*
D22*
X+2260000Y+3350000D03*
X+2540000Y+3350000D03*
X+2360000Y+2950000D03*
X+2640000Y+2950000D03*
X+2360000Y+2500000D03*
X+2640000Y+2500000D03*
X+5660000Y+2850000D03*
X+5940000Y+2850000D03*
D23*
X+2500000Y+350000D03*
X+450000Y+6650000D03*
D70*
X+2439699Y+850000D03*
X+2439699Y+1104000D03*
X+2439699Y+1358000D03*
X+2439699Y+1612000D03*
X+2439699Y+1866000D03*
X+2439699Y+2120000D03*
X+5200000Y+600000D03*
X+5200000Y+854000D03*
D24*
X+0Y+0D02*
X+7050000Y+0D01*
X+7050000Y+7200000D01*
X+0Y+7200000D01*
X+0Y+0D01*
M02*
