G04 PROTEUS GERBER X2 FILE*
%TF.GenerationSoftware,Labcenter,Proteus,8.13-SP0-Build31525*%
%TF.CreationDate,2022-07-11T20:54:32+00:00*%
%TF.FileFunction,Plated,1,2,PTH*%
%TF.FilePolarity,Positive*%
%TF.Part,Single*%
%TF.SameCoordinates,{67e9d6b1-9973-4f3b-b57f-a68231676cbc}*%
%FSLAX45Y45*%
%MOMM*%
G01*
%TA.AperFunction,ViaDrill*%
%ADD76C,0.381000*%
%TA.AperFunction,ComponentDrill*%
%ADD77C,1.524000*%
%TA.AperFunction,ComponentDrill*%
%ADD78C,0.762000*%
%ADD79C,1.016000*%
%TA.AperFunction,ComponentDrill*%
%ADD80C,3.050000*%
%ADD81C,3.560000*%
%ADD82C,0.838200*%
%TA.AperFunction,OtherDrill,Unknown*%
%ADD83C,3.200000*%
%TD.AperFunction*%
D76*
X+2202000Y+2996000D03*
X+3218000Y+1218000D03*
X+3218000Y+1980000D03*
X+1948000Y+2742000D03*
X+1948000Y+2488000D03*
X+4234000Y+1218000D03*
X+2710000Y+2742000D03*
X+5758000Y+710000D03*
X+3218000Y+2996000D03*
X+5758000Y+1472000D03*
X+4996000Y+964000D03*
X+6266000Y+1472000D03*
X+6520000Y+710000D03*
X+4234000Y+1726000D03*
X+4234000Y+1980000D03*
X+3980000Y+1980000D03*
X+2964000Y+2488000D03*
D77*
X+1150000Y+6600000D03*
X+1650380Y+6600000D03*
X+2150760Y+6600000D03*
X+2651140Y+6600000D03*
X+3148980Y+6600000D03*
X+3649360Y+6600000D03*
X+4149740Y+6600000D03*
X+4650120Y+6600000D03*
X+5150500Y+6600000D03*
X+5650880Y+6600000D03*
X+6151260Y+6600000D03*
X+6649100Y+6600000D03*
D78*
X+1700000Y+2150000D03*
X+1954000Y+2150000D03*
X+1954000Y+2912000D03*
X+1700000Y+2912000D03*
X+6500000Y+2400000D03*
X+6754000Y+2400000D03*
X+6754000Y+3162000D03*
X+6500000Y+3162000D03*
X+6500000Y+1450000D03*
X+6754000Y+1450000D03*
X+6754000Y+2212000D03*
X+6500000Y+2212000D03*
X+6500000Y+450000D03*
X+6754000Y+450000D03*
X+6754000Y+1212000D03*
X+6500000Y+1212000D03*
D77*
X+900000Y+2800000D03*
X+900000Y+3308000D03*
X+900000Y+1650000D03*
X+900000Y+2158000D03*
X+2150000Y+4250000D03*
X+3350000Y+4250000D03*
X+2750000Y+4050000D03*
X+2150000Y+5470000D03*
X+3350000Y+5470000D03*
X+450000Y+4250000D03*
X+1650000Y+4250000D03*
X+1050000Y+4050000D03*
X+450000Y+5470000D03*
X+1650000Y+5470000D03*
X+3850000Y+4250000D03*
X+5050000Y+4250000D03*
X+4450000Y+4050000D03*
X+3850000Y+5470000D03*
X+5050000Y+5470000D03*
X+5550000Y+4250000D03*
X+6750000Y+4250000D03*
X+6150000Y+4050000D03*
X+5550000Y+5470000D03*
X+6750000Y+5470000D03*
D79*
X+5250000Y+3250000D03*
X+5504000Y+3250000D03*
X+5758000Y+3250000D03*
X+6012000Y+3250000D03*
D80*
X+1375000Y+320000D03*
X+1050000Y+800000D03*
D81*
X+1675000Y+800000D03*
D79*
X+4900000Y+2750000D03*
X+5154000Y+2750000D03*
D82*
X+1723000Y+3350000D03*
X+1850000Y+3350000D03*
X+1977000Y+3350000D03*
X+4123000Y+3350000D03*
X+4250000Y+3350000D03*
X+4377000Y+3350000D03*
X+3473000Y+3350000D03*
X+3600000Y+3350000D03*
X+3727000Y+3350000D03*
X+2873000Y+3350000D03*
X+3000000Y+3350000D03*
X+3127000Y+3350000D03*
D83*
X+2500000Y+350000D03*
X+450000Y+6650000D03*
D79*
X+2439699Y+850000D03*
X+2439699Y+1104000D03*
X+2439699Y+1358000D03*
X+2439699Y+1612000D03*
X+2439699Y+1866000D03*
X+2439699Y+2120000D03*
X+5200000Y+600000D03*
X+5200000Y+854000D03*
M02*
