G04 PROTEUS GERBER X2 FILE*
%TF.GenerationSoftware,Labcenter,Proteus,8.13-SP0-Build31525*%
%TF.CreationDate,2022-07-11T20:54:32+00:00*%
%TF.FileFunction,Soldermask,Top*%
%TF.FilePolarity,Negative*%
%TF.Part,Single*%
%TF.SameCoordinates,{67e9d6b1-9973-4f3b-b57f-a68231676cbc}*%
%FSLAX45Y45*%
%MOMM*%
G01*
%TA.AperFunction,Material*%
%ADD72C,1.016000*%
%TA.AperFunction,Material*%
%ADD73C,3.302000*%
%AMPPAD024*
4,1,36,
-1.500000,0.627000,
1.500000,0.627000,
1.525970,0.624470,
1.549980,0.617200,
1.571580,0.605650,
1.590290,0.590290,
1.605650,0.571570,
1.617200,0.549980,
1.624470,0.525970,
1.627000,0.500000,
1.627000,-0.500000,
1.624470,-0.525970,
1.617200,-0.549980,
1.605650,-0.571570,
1.590290,-0.590290,
1.571580,-0.605650,
1.549980,-0.617200,
1.525970,-0.624470,
1.500000,-0.627000,
-1.500000,-0.627000,
-1.525970,-0.624470,
-1.549980,-0.617200,
-1.571580,-0.605650,
-1.590290,-0.590290,
-1.605650,-0.571570,
-1.617200,-0.549980,
-1.624470,-0.525970,
-1.627000,-0.500000,
-1.627000,0.500000,
-1.624470,0.525970,
-1.617200,0.549980,
-1.605650,0.571570,
-1.590290,0.590290,
-1.571580,0.605650,
-1.549980,0.617200,
-1.525970,0.624470,
-1.500000,0.627000,
0*%
%TA.AperFunction,Material*%
%ADD30PPAD024*%
%AMPPAD025*
4,1,36,
-0.500000,1.627000,
0.500000,1.627000,
0.525970,1.624470,
0.549980,1.617200,
0.571580,1.605650,
0.590290,1.590290,
0.605650,1.571570,
0.617200,1.549980,
0.624470,1.525970,
0.627000,1.500000,
0.627000,-1.500000,
0.624470,-1.525970,
0.617200,-1.549980,
0.605650,-1.571570,
0.590290,-1.590290,
0.571580,-1.605650,
0.549980,-1.617200,
0.525970,-1.624470,
0.500000,-1.627000,
-0.500000,-1.627000,
-0.525970,-1.624470,
-0.549980,-1.617200,
-0.571580,-1.605650,
-0.590290,-1.590290,
-0.605650,-1.571570,
-0.617200,-1.549980,
-0.624470,-1.525970,
-0.627000,-1.500000,
-0.627000,1.500000,
-0.624470,1.525970,
-0.617200,1.549980,
-0.605650,1.571570,
-0.590290,1.590290,
-0.571580,1.605650,
-0.549980,1.617200,
-0.525970,1.624470,
-0.500000,1.627000,
0*%
%ADD31PPAD025*%
%AMPPAD026*
4,1,4,
-1.346200,-0.596900,
-1.346200,0.596900,
1.346200,0.596900,
1.346200,-0.596900,
-1.346200,-0.596900,
0*%
%TA.AperFunction,Material*%
%ADD32PPAD026*%
%AMPPAD027*
4,1,4,
-0.596900,1.346200,
0.596900,1.346200,
0.596900,-1.346200,
-0.596900,-1.346200,
-0.596900,1.346200,
0*%
%ADD33PPAD027*%
%AMPPAD028*
4,1,36,
-0.635000,0.762000,
0.635000,0.762000,
0.660970,0.759470,
0.684980,0.752200,
0.706580,0.740650,
0.725290,0.725290,
0.740650,0.706570,
0.752200,0.684980,
0.759470,0.660970,
0.762000,0.635000,
0.762000,-0.635000,
0.759470,-0.660970,
0.752200,-0.684980,
0.740650,-0.706570,
0.725290,-0.725290,
0.706580,-0.740650,
0.684980,-0.752200,
0.660970,-0.759470,
0.635000,-0.762000,
-0.635000,-0.762000,
-0.660970,-0.759470,
-0.684980,-0.752200,
-0.706580,-0.740650,
-0.725290,-0.725290,
-0.740650,-0.706570,
-0.752200,-0.684980,
-0.759470,-0.660970,
-0.762000,-0.635000,
-0.762000,0.635000,
-0.759470,0.660970,
-0.752200,0.684980,
-0.740650,0.706570,
-0.725290,0.725290,
-0.706580,0.740650,
-0.684980,0.752200,
-0.660970,0.759470,
-0.635000,0.762000,
0*%
%TA.AperFunction,Material*%
%ADD34PPAD028*%
%ADD35C,1.524000*%
%TA.AperFunction,Material*%
%ADD36C,2.794000*%
%AMPPAD031*
4,1,36,
-1.016000,1.143000,
1.016000,1.143000,
1.041970,1.140470,
1.065980,1.133200,
1.087580,1.121650,
1.106290,1.106290,
1.121650,1.087570,
1.133200,1.065980,
1.140470,1.041970,
1.143000,1.016000,
1.143000,-1.016000,
1.140470,-1.041970,
1.133200,-1.065980,
1.121650,-1.087570,
1.106290,-1.106290,
1.087580,-1.121650,
1.065980,-1.133200,
1.041970,-1.140470,
1.016000,-1.143000,
-1.016000,-1.143000,
-1.041970,-1.140470,
-1.065980,-1.133200,
-1.087580,-1.121650,
-1.106290,-1.106290,
-1.121650,-1.087570,
-1.133200,-1.065980,
-1.140470,-1.041970,
-1.143000,-1.016000,
-1.143000,1.016000,
-1.140470,1.041970,
-1.133200,1.065980,
-1.121650,1.087570,
-1.106290,1.106290,
-1.087580,1.121650,
-1.065980,1.133200,
-1.041970,1.140470,
-1.016000,1.143000,
0*%
%TA.AperFunction,Material*%
%ADD37PPAD031*%
%TA.AperFunction,Material*%
%ADD38C,4.600000*%
%ADD39C,5.360000*%
%AMPPAD034*
4,1,34,
0.000010,1.040000,
0.106330,1.029650,
0.204650,0.999880,
0.293070,0.952590,
0.369690,0.889690,
0.432590,0.813070,
0.479880,0.724650,
0.509650,0.626330,
0.520000,0.520010,
0.520000,-0.520010,
0.509650,-0.626330,
0.479880,-0.724650,
0.432590,-0.813070,
0.369690,-0.889690,
0.293070,-0.952590,
0.204650,-0.999880,
0.106330,-1.029650,
-0.000010,-1.040000,
-0.106330,-1.029650,
-0.204650,-0.999880,
-0.293070,-0.952590,
-0.369690,-0.889690,
-0.432590,-0.813070,
-0.479880,-0.724650,
-0.509650,-0.626330,
-0.520000,-0.520010,
-0.520000,0.520010,
-0.509650,0.626330,
-0.479880,0.724650,
-0.432590,0.813070,
-0.369690,0.889690,
-0.293070,0.952590,
-0.204650,0.999880,
-0.106330,1.029650,
0.000010,1.040000,
0*%
%ADD40PPAD034*%
%AMPPAD035*
4,1,4,
-0.800000,0.900000,
0.800000,0.900000,
0.800000,-0.900000,
-0.800000,-0.900000,
-0.800000,0.900000,
0*%
%TA.AperFunction,Material*%
%ADD41PPAD035*%
%AMPPAD036*
4,1,36,
-1.143000,-1.016000,
-1.143000,1.016000,
-1.140470,1.041970,
-1.133200,1.065980,
-1.121650,1.087580,
-1.106290,1.106290,
-1.087570,1.121650,
-1.065980,1.133200,
-1.041970,1.140470,
-1.016000,1.143000,
1.016000,1.143000,
1.041970,1.140470,
1.065980,1.133200,
1.087570,1.121650,
1.106290,1.106290,
1.121650,1.087580,
1.133200,1.065980,
1.140470,1.041970,
1.143000,1.016000,
1.143000,-1.016000,
1.140470,-1.041970,
1.133200,-1.065980,
1.121650,-1.087580,
1.106290,-1.106290,
1.087570,-1.121650,
1.065980,-1.133200,
1.041970,-1.140470,
1.016000,-1.143000,
-1.016000,-1.143000,
-1.041970,-1.140470,
-1.065980,-1.133200,
-1.087570,-1.121650,
-1.106290,-1.106290,
-1.121650,-1.087580,
-1.133200,-1.065980,
-1.140470,-1.041970,
-1.143000,-1.016000,
0*%
%TA.AperFunction,Material*%
%ADD42PPAD036*%
%TA.AperFunction,Profile*%
%ADD24C,0.203200*%
%TD.AperFunction*%
D72*
X+2202000Y+2996000D03*
X+3218000Y+1218000D03*
X+3218000Y+1980000D03*
X+1948000Y+2742000D03*
X+1948000Y+2488000D03*
X+4234000Y+1218000D03*
X+2710000Y+2742000D03*
X+5758000Y+710000D03*
X+3218000Y+2996000D03*
X+5758000Y+1472000D03*
X+4996000Y+964000D03*
X+6266000Y+1472000D03*
X+6520000Y+710000D03*
X+4234000Y+1726000D03*
X+4234000Y+1980000D03*
X+3980000Y+1980000D03*
X+2964000Y+2488000D03*
D73*
X+1150000Y+6600000D03*
X+1650380Y+6600000D03*
X+2150760Y+6600000D03*
X+2651140Y+6600000D03*
X+3148980Y+6600000D03*
X+3649360Y+6600000D03*
X+4149740Y+6600000D03*
X+4650120Y+6600000D03*
X+5150500Y+6600000D03*
X+5650880Y+6600000D03*
X+6151260Y+6600000D03*
X+6649100Y+6600000D03*
D30*
X+2900000Y+2200000D03*
X+2900000Y+2000000D03*
X+2900000Y+1800000D03*
X+2900000Y+1600000D03*
X+2900000Y+1400000D03*
X+2900000Y+1200000D03*
X+2900000Y+1000000D03*
X+2900000Y+800000D03*
D31*
X+3300000Y+500000D03*
X+3500000Y+500000D03*
X+3700000Y+500000D03*
X+3900000Y+500000D03*
X+4100000Y+500000D03*
X+4300000Y+500000D03*
D30*
X+4700000Y+800000D03*
X+4700000Y+1000000D03*
X+4700000Y+1200000D03*
X+4700000Y+1400000D03*
X+4700000Y+1600000D03*
X+4700000Y+1800000D03*
X+4700000Y+2000000D03*
X+4700000Y+2200000D03*
D32*
X+1650000Y+1450000D03*
X+1650000Y+1920000D03*
D33*
X+5450000Y+2300000D03*
X+5920000Y+2300000D03*
X+5450000Y+1900000D03*
X+5920000Y+1900000D03*
X+5450000Y+1500000D03*
X+5920000Y+1500000D03*
D34*
X+1700000Y+2150000D03*
D35*
X+1954000Y+2150000D03*
X+1954000Y+2912000D03*
X+1700000Y+2912000D03*
D34*
X+6500000Y+2400000D03*
D35*
X+6754000Y+2400000D03*
X+6754000Y+3162000D03*
X+6500000Y+3162000D03*
D34*
X+6500000Y+1450000D03*
D35*
X+6754000Y+1450000D03*
X+6754000Y+2212000D03*
X+6500000Y+2212000D03*
D34*
X+6500000Y+450000D03*
D35*
X+6754000Y+450000D03*
X+6754000Y+1212000D03*
X+6500000Y+1212000D03*
D73*
X+900000Y+2800000D03*
X+900000Y+3308000D03*
X+900000Y+1650000D03*
X+900000Y+2158000D03*
D36*
X+2150000Y+4250000D03*
X+3350000Y+4250000D03*
X+2750000Y+4050000D03*
X+2150000Y+5470000D03*
X+3350000Y+5470000D03*
X+450000Y+4250000D03*
X+1650000Y+4250000D03*
X+1050000Y+4050000D03*
X+450000Y+5470000D03*
X+1650000Y+5470000D03*
X+3850000Y+4250000D03*
X+5050000Y+4250000D03*
X+4450000Y+4050000D03*
X+3850000Y+5470000D03*
X+5050000Y+5470000D03*
X+5550000Y+4250000D03*
X+6750000Y+4250000D03*
X+6150000Y+4050000D03*
X+5550000Y+5470000D03*
X+6750000Y+5470000D03*
D37*
X+5250000Y+3250000D03*
X+5504000Y+3250000D03*
X+5758000Y+3250000D03*
X+6012000Y+3250000D03*
D38*
X+1375000Y+320000D03*
X+1050000Y+800000D03*
D39*
X+1675000Y+800000D03*
D37*
X+4900000Y+2750000D03*
X+5154000Y+2750000D03*
D40*
X+1723000Y+3350000D03*
X+1850000Y+3350000D03*
X+1977000Y+3350000D03*
X+4123000Y+3350000D03*
X+4250000Y+3350000D03*
X+4377000Y+3350000D03*
X+3473000Y+3350000D03*
X+3600000Y+3350000D03*
X+3727000Y+3350000D03*
X+2873000Y+3350000D03*
X+3000000Y+3350000D03*
X+3127000Y+3350000D03*
D32*
X+2050000Y+1450000D03*
X+2050000Y+1920000D03*
D33*
X+5450000Y+1100000D03*
X+5920000Y+1100000D03*
X+5450000Y+700000D03*
X+5920000Y+700000D03*
X+5450000Y+300000D03*
X+5920000Y+300000D03*
D41*
X+2260000Y+3350000D03*
X+2540000Y+3350000D03*
X+2360000Y+2950000D03*
X+2640000Y+2950000D03*
X+2360000Y+2500000D03*
X+2640000Y+2500000D03*
X+5660000Y+2850000D03*
X+5940000Y+2850000D03*
D42*
X+2439699Y+850000D03*
X+2439699Y+1104000D03*
X+2439699Y+1358000D03*
X+2439699Y+1612000D03*
X+2439699Y+1866000D03*
X+2439699Y+2120000D03*
X+5200000Y+600000D03*
X+5200000Y+854000D03*
D24*
X+0Y+0D02*
X+7050000Y+0D01*
X+7050000Y+7200000D01*
X+0Y+7200000D01*
X+0Y+0D01*
M02*
